<svg width="40" height="40" viewBox="0 0 40 40" fill="none" xmlns="http://www.w3.org/2000/svg">
<path d="M4.43233 38.1184L20.1422 20.321C20.1907 20.2681 20.2208 20.198 20.2272 20.123C20.2337 20.048 20.216 19.9729 20.1774 19.9108C19.2221 18.4367 17.4592 18.1812 16.806 17.1906C14.8708 14.2566 14.3798 12.5959 13.5483 12.6989C13.4903 12.7081 13.4368 12.7392 13.3971 12.7869L7.72216 19.2166C4.45754 22.9125 3.98821 31.0588 3.90332 37.8806C3.90301 37.9485 3.9211 38.015 3.95527 38.0714C3.98944 38.1279 4.03812 38.1717 4.09504 38.1973C4.15196 38.2229 4.21451 38.229 4.27462 38.215C4.33474 38.2009 4.38966 38.1673 4.43233 38.1184Z" fill="url(#paint0_linear_138_549)"/>
<path d="M36.5838 37.6792L20.4804 20.3154C20.4324 20.2616 20.3689 20.2283 20.3009 20.2211C20.2329 20.214 20.1648 20.2337 20.1086 20.2766C18.7749 21.3329 18.5436 23.2807 17.6473 24.0026C14.9927 26.1413 13.4902 26.684 13.5832 27.603C13.5916 27.6669 13.6198 27.7256 13.6629 27.7693L19.4804 34.0412C22.8245 37.6496 30.1954 38.1683 36.3681 38.262C36.4292 38.262 36.4889 38.2418 36.5397 38.2042C36.5904 38.1666 36.6298 38.1131 36.653 38.0506C36.6761 37.9881 36.6819 37.9194 36.6695 37.8532C36.6572 37.7871 36.6274 37.7265 36.5838 37.6792Z" fill="#19E58C"/>
<path d="M19.48 34.0433C17.6519 32.0722 16.8047 28.1731 20.3084 20.1327C14.6127 22.946 12.6169 26.6435 13.5984 27.7025L19.48 34.0433Z" fill="#04D659"/>
<path d="M36.1851 2.14607L20.4757 19.9434C20.4271 19.9963 20.3969 20.0664 20.3905 20.1414C20.384 20.2165 20.4017 20.2916 20.4404 20.3536C21.3964 21.8278 23.1582 22.0832 23.812 23.0738C25.7471 26.0079 26.2386 27.6685 27.0697 27.5656C27.1277 27.5564 27.181 27.5253 27.2206 27.4776L32.8956 21.0479C36.1606 17.352 36.6299 9.20572 36.7146 2.38387C36.7147 2.31601 36.6965 2.24966 36.6622 2.19334C36.628 2.13701 36.5793 2.09328 36.5224 2.06773C36.4655 2.04218 36.403 2.03599 36.3429 2.04995C36.2828 2.06391 36.2279 2.09738 36.1851 2.14607Z" fill="url(#paint1_linear_138_549)"/>
<path d="M32.8992 21.0482C31.1156 23.0684 27.5876 24.0047 20.312 20.1327C22.8573 26.4275 26.2032 28.6332 27.1611 27.5485L32.8992 21.0482Z" fill="url(#paint2_linear_138_549)"/>
<path d="M4.03353 2.58522L20.1369 19.9471C20.1848 20.0008 20.2483 20.0341 20.3162 20.0412C20.3841 20.0484 20.4521 20.0289 20.5083 19.9861C21.842 18.9296 22.0733 16.9819 22.9694 16.2599C25.6241 14.1212 27.1268 13.5786 27.0336 12.6595C27.0252 12.5954 26.9971 12.5364 26.954 12.4925L21.1363 6.22056C17.7921 2.61253 10.4212 2.09383 4.2487 2.00001C4.18714 1.99954 4.12688 2.01949 4.0757 2.05728C4.02451 2.09507 3.98477 2.14897 3.9616 2.21199C3.93842 2.27502 3.93289 2.34427 3.94572 2.41081C3.95854 2.47735 3.98913 2.5381 4.03353 2.58522Z" fill="#19E58C"/>
<path d="M21.1393 6.22125C22.9673 8.19238 23.8145 12.0915 20.311 20.1325C26.0065 17.3194 28.0023 13.6209 27.021 12.5627L21.1393 6.22125Z" fill="#04D659"/>
<path d="M7.72217 19.2171C9.50568 17.1968 13.0337 16.2604 20.3093 20.1325C17.7638 13.8379 14.4182 11.6321 13.46 12.7167L7.72217 19.2171Z" fill="url(#paint3_linear_138_549)"/>
<path d="M20.3117 20.9057C20.6996 20.9057 21.014 20.5582 21.014 20.1295C21.014 19.7008 20.6996 19.3533 20.3117 19.3533C19.9238 19.3533 19.6094 19.7008 19.6094 20.1295C19.6094 20.5582 19.9238 20.9057 20.3117 20.9057Z" fill="#4A4848"/>
<defs>
<linearGradient id="paint0_linear_138_549" x1="5.15469" y1="16.9727" x2="22.2855" y2="26.6137" gradientUnits="userSpaceOnUse">
<stop stop-color="#26289F"/>
<stop offset="1" stop-color="#2442BA"/>
</linearGradient>
<linearGradient id="paint1_linear_138_549" x1="21.6406" y1="6.32092" x2="38.7713" y2="15.9622" gradientUnits="userSpaceOnUse">
<stop stop-color="#26289F"/>
<stop offset="1" stop-color="#2442BA"/>
</linearGradient>
<linearGradient id="paint2_linear_138_549" x1="37.5002" y1="30.5" x2="34.0142" y2="24.8641" gradientUnits="userSpaceOnUse">
<stop stop-color="#26289F"/>
<stop offset="0.345331" stop-color="#2442BA"/>
</linearGradient>
<linearGradient id="paint3_linear_138_549" x1="8.68701" y1="13.7392" x2="14.3335" y2="21.8829" gradientUnits="userSpaceOnUse">
<stop stop-color="#26289F"/>
<stop offset="0.503125" stop-color="#2442BA"/>
</linearGradient>
</defs>
</svg>
