<svg width="40" height="23" viewBox="0 0 40 23" fill="none" xmlns="http://www.w3.org/2000/svg">
<g clip-path="url(#clip0_136_949)">
<path d="M11.188 8.35317C11.188 8.82648 11.2391 9.21024 11.3287 9.49166C11.431 9.77308 11.5589 10.0801 11.738 10.4127C11.802 10.515 11.8276 10.6174 11.8276 10.7069C11.8276 10.8348 11.7508 10.9627 11.5845 11.0907L10.7786 11.6279C10.6635 11.7047 10.5484 11.7431 10.446 11.7431C10.3181 11.7431 10.1902 11.6791 10.0623 11.564C9.8832 11.3721 9.7297 11.1674 9.60178 10.9627C9.47386 10.7453 9.34594 10.5022 9.20523 10.208C8.20747 11.3849 6.95386 11.9733 5.44442 11.9733C4.36991 11.9733 3.51285 11.6663 2.88605 11.0523C2.25925 10.4383 1.93945 9.61958 1.93945 8.59622C1.93945 7.5089 2.32321 6.62625 3.10351 5.96107C3.88382 5.29589 4.91996 4.96329 6.23752 4.96329C6.67244 4.96329 7.12016 5.00167 7.59346 5.06563C8.06676 5.12959 8.55285 5.23193 9.06452 5.34705V4.41324C9.06452 3.44105 8.85985 2.76307 8.4633 2.36652C8.05396 1.96997 7.3632 1.77809 6.37823 1.77809C5.93051 1.77809 5.47001 1.82925 4.99671 1.94438C4.52341 2.05951 4.0629 2.20022 3.61519 2.37931C3.41052 2.46885 3.25702 2.52002 3.16747 2.54561C3.07793 2.57119 3.01397 2.58398 2.9628 2.58398C2.78372 2.58398 2.69417 2.45606 2.69417 2.18743V1.56062C2.69417 1.35595 2.71976 1.20245 2.78372 1.1129C2.84768 1.02336 2.9628 0.933815 3.14189 0.844272C3.5896 0.614016 4.12686 0.422136 4.75366 0.268632C5.38046 0.102336 6.04564 0.025584 6.74919 0.025584C8.27143 0.025584 9.38432 0.370968 10.1007 1.06174C10.8042 1.7525 11.1624 2.80145 11.1624 4.20857V8.35317H11.188ZM5.99447 10.2976C6.41661 10.2976 6.85153 10.2208 7.31204 10.0673C7.77254 9.91379 8.18188 9.63237 8.52726 9.24861C8.73193 9.00556 8.88544 8.73693 8.96219 8.42992C9.03894 8.12292 9.09011 7.75195 9.09011 7.31702V6.77976C8.71914 6.69021 8.32259 6.61346 7.91325 6.56229C7.50391 6.51112 7.10737 6.48554 6.71082 6.48554C5.85376 6.48554 5.22696 6.65184 4.80483 6.99722C4.3827 7.3426 4.17803 7.8287 4.17803 8.4683C4.17803 9.06952 4.33153 9.51724 4.65133 9.82425C4.95833 10.1441 5.40605 10.2976 5.99447 10.2976ZM16.2663 11.6791C16.0361 11.6791 15.8826 11.6407 15.7803 11.5512C15.6779 11.4744 15.5884 11.2953 15.5116 11.0523L12.5055 1.16407C12.4288 0.908231 12.3904 0.741936 12.3904 0.652392C12.3904 0.44772 12.4927 0.332592 12.6974 0.332592H13.951C14.1941 0.332592 14.3604 0.370968 14.4499 0.460512C14.5522 0.537264 14.629 0.716352 14.7057 0.9594L16.8548 9.4277L18.8503 0.9594C18.9143 0.70356 18.991 0.537264 19.0933 0.460512C19.1957 0.38376 19.3748 0.332592 19.605 0.332592H20.6284C20.8714 0.332592 21.0377 0.370968 21.14 0.460512C21.2424 0.537264 21.3319 0.716352 21.3831 0.9594L23.4042 9.53003L25.6172 0.9594C25.6939 0.70356 25.7835 0.537264 25.873 0.460512C25.9754 0.38376 26.1417 0.332592 26.3719 0.332592H27.5616C27.7662 0.332592 27.8814 0.434928 27.8814 0.652392C27.8814 0.716352 27.8686 0.780312 27.8558 0.857064C27.843 0.933816 27.8174 1.03615 27.7662 1.17686L24.6834 11.0651C24.6066 11.3209 24.5171 11.4872 24.4148 11.564C24.3124 11.6407 24.1461 11.6919 23.9287 11.6919H22.8286C22.5855 11.6919 22.4192 11.6535 22.3169 11.564C22.2146 11.4744 22.125 11.3081 22.0738 11.0523L20.0911 2.80145L18.1212 11.0395C18.0572 11.2953 17.9805 11.4616 17.8781 11.5512C17.7758 11.6407 17.5967 11.6791 17.3664 11.6791H16.2663ZM32.7039 12.0245C32.0387 12.0245 31.3735 11.9477 30.7339 11.7942C30.0943 11.6407 29.5955 11.4744 29.2629 11.2825C29.0582 11.1674 28.9175 11.0395 28.8663 10.9244C28.8152 10.8092 28.7896 10.6813 28.7896 10.5662V9.91379C28.7896 9.64516 28.8919 9.51724 29.0838 9.51724C29.1605 9.51724 29.2373 9.53004 29.314 9.55562C29.3908 9.5812 29.5059 9.63237 29.6338 9.68354C30.0688 9.87542 30.5421 10.0289 31.0409 10.1313C31.5526 10.2336 32.0515 10.2848 32.5632 10.2848C33.3691 10.2848 33.9959 10.144 34.4308 9.86263C34.8657 9.5812 35.096 9.17186 35.096 8.64739C35.096 8.28921 34.9808 7.995 34.7506 7.75195C34.5203 7.5089 34.0854 7.29144 33.4586 7.08676L31.6038 6.51112C30.67 6.21691 29.9792 5.78198 29.5571 5.20634C29.135 4.64349 28.9175 4.01669 28.9175 3.3515C28.9175 2.81424 29.0326 2.34093 29.2629 1.93159C29.4931 1.52225 29.8001 1.16407 30.1839 0.882648C30.5676 0.588432 31.0026 0.370968 31.5142 0.217464C32.0259 0.0639599 32.5632 0 33.126 0C33.4074 0 33.7017 0.012792 33.9831 0.051168C34.2773 0.0895439 34.5459 0.140712 34.8145 0.19188C35.0704 0.25584 35.3134 0.3198 35.5437 0.396552C35.7739 0.473304 35.953 0.550056 36.0809 0.626808C36.26 0.729144 36.3879 0.83148 36.4647 0.946607C36.5414 1.04894 36.5798 1.18966 36.5798 1.36874V1.96997C36.5798 2.2386 36.4775 2.37931 36.2856 2.37931C36.1833 2.37931 36.017 2.32814 35.7995 2.22581C35.0704 1.89321 34.2517 1.72692 33.3435 1.72692C32.6143 1.72692 32.0387 1.84205 31.6422 2.08509C31.2456 2.32814 31.0409 2.69911 31.0409 3.22358C31.0409 3.58176 31.1689 3.88877 31.4247 4.13181C31.6805 4.37486 32.1538 4.61791 32.8318 4.83537L34.6482 5.41101C35.5693 5.70523 36.2344 6.11457 36.631 6.63904C37.0275 7.16352 37.2194 7.76474 37.2194 8.42992C37.2194 8.97998 37.1043 9.47887 36.8868 9.91379C36.6566 10.3487 36.3496 10.7325 35.953 11.0395C35.5565 11.3593 35.0832 11.5895 34.5331 11.7558C33.9575 11.9349 33.3563 12.0245 32.7039 12.0245Z" fill="url(#paint0_linear_136_949)"/>
<path fill-rule="evenodd" clip-rule="evenodd" d="M35.1215 18.2414C30.913 21.3499 24.7985 23.0001 19.541 23.0001C12.1729 23.0001 5.53392 20.2754 0.519511 15.747C0.122963 15.3888 0.481135 14.9027 0.954434 15.1841C6.37818 18.331 13.0683 20.237 19.9887 20.237C24.6578 20.237 29.7873 19.2648 34.5075 17.2692C35.211 16.9494 35.8123 17.7298 35.1215 18.2414Z" fill="#19E58C"/>
<path fill-rule="evenodd" clip-rule="evenodd" d="M36.874 16.2459C36.3368 15.5551 33.3179 15.9133 31.9491 16.0796C31.5398 16.1307 31.4758 15.7726 31.8468 15.5039C34.2517 13.8154 38.2044 14.3015 38.6649 14.8643C39.1254 15.44 38.537 19.3927 36.2856 21.2859C35.9402 21.5801 35.6076 21.4266 35.7611 21.0429C36.2728 19.7765 37.4113 16.9238 36.874 16.2459Z" fill="#19E58C"/>
</g>
<defs>
<linearGradient id="paint0_linear_136_949" x1="4.64376" y1="2.01523" x2="11.0018" y2="18.4319" gradientUnits="userSpaceOnUse">
<stop stop-color="#26289F"/>
<stop offset="1" stop-color="#2442BA"/>
</linearGradient>
<clipPath id="clip0_136_949">
<rect width="39.2488" height="23" fill="white"/>
</clipPath>
</defs>
</svg>
