<svg width="40" height="34" viewBox="0 0 40 34" fill="none" xmlns="http://www.w3.org/2000/svg">
<path d="M39.3566 18.4562C39.4185 19.933 38.8919 21.374 37.8926 22.4631C36.8933 23.5522 35.5028 24.2004 34.0262 24.2656C33.9398 24.2696 33.8536 24.2716 33.7676 24.2716C33.3752 24.2713 32.9841 24.2289 32.6008 24.145C31.4636 25.9008 29.9724 27.3999 28.2227 28.5465C26.4729 29.6931 24.5031 30.4618 22.4393 30.8036C22.1952 31.5207 21.7082 32.13 21.0625 32.5262C20.4168 32.9223 19.653 33.0804 18.903 32.9732C18.1531 32.8659 17.4643 32.5 16.9555 31.9387C16.4468 31.3774 16.1501 30.656 16.1169 29.8992C16.0836 29.1424 16.3158 28.3977 16.7733 27.7939C17.2308 27.1901 17.8849 26.7652 18.6226 26.5925C19.3602 26.4199 20.1349 26.5104 20.8129 26.8483C21.4909 27.1863 22.0294 27.7505 22.3355 28.4435C25.2411 27.9061 27.8661 26.3662 29.7528 24.0921C31.6395 21.818 32.6684 18.9539 32.6602 15.999C32.6602 9.01816 26.9809 3.33887 20 3.33887C13.0191 3.33887 7.33984 9.01816 7.33984 15.999C7.33947 18.1576 7.89114 20.2804 8.94242 22.1657C8.97805 22.228 9.0048 22.2949 9.02188 22.3645C9.12342 22.6467 9.11257 22.9572 8.99156 23.2317C8.87055 23.5061 8.64866 23.7235 8.3718 23.8389C7.69387 24.1243 6.96575 24.2712 6.23024 24.2711C6.14367 24.2711 6.05693 24.2691 5.97 24.265C4.49397 24.1991 3.10434 23.5504 2.10582 22.4614C1.10729 21.3724 0.581367 19.9319 0.64336 18.4557C0.668282 17.867 0.654376 17.3418 0.640782 16.8339C0.628126 16.3557 0.614923 15.8611 0.636642 15.3451C0.70146 13.9038 1.32148 12.5434 2.36684 11.5489C3.4122 10.5545 4.80181 10.003 6.24461 10.0102C8.56149 4.70926 13.8547 0.995117 20 0.995117C26.1453 0.995117 31.4386 4.70926 33.7555 10.0103C35.1984 10.002 36.5885 10.553 37.634 11.5475C38.6796 12.5419 39.2993 13.9027 39.3633 15.3443C39.3851 15.8611 39.372 16.3555 39.3591 16.8337C39.3457 17.3417 39.3317 17.8671 39.3566 18.4562ZM29.8285 15.999C29.8279 17.5048 29.4816 18.9903 28.8161 20.3409C28.1506 21.6916 27.1837 22.8714 25.9901 23.7894C24.7965 24.7073 23.4081 25.3388 21.9318 25.6352C20.4555 25.9316 18.9309 25.885 17.4755 25.499L13.4973 27.7964C13.2965 27.9124 13.0659 27.9662 12.8346 27.951C12.6033 27.9359 12.3817 27.8525 12.1978 27.7114C12.0139 27.5703 11.876 27.3778 11.8015 27.1583C11.727 26.9388 11.7193 26.7021 11.7793 26.4782L12.796 22.6854C11.1123 20.8655 10.1754 18.4784 10.1719 15.999C10.1719 10.5781 14.5805 6.16824 20 6.16824C25.4195 6.16824 29.8285 10.5781 29.8285 15.999ZM17.2676 15.999C17.2676 15.6882 17.1441 15.3902 16.9243 15.1704C16.7046 14.9506 16.4065 14.8271 16.0957 14.8271H16.0938C15.8621 14.8276 15.6357 14.8967 15.4433 15.0257C15.2509 15.1547 15.101 15.3379 15.0126 15.5521C14.9243 15.7662 14.9014 16.0018 14.9468 16.229C14.9923 16.4562 15.1041 16.6648 15.2681 16.8284C15.432 16.9921 15.6409 17.1035 15.8681 17.1485C16.0954 17.1936 16.3309 17.1702 16.5449 17.0815C16.7589 16.9927 16.9418 16.8425 17.0705 16.6499C17.1991 16.4572 17.2678 16.2307 17.2678 15.999H17.2676ZM21.1721 15.999C21.172 15.9607 21.1699 15.9223 21.1659 15.8842C21.1622 15.8459 21.1565 15.8078 21.1488 15.7701C21.1417 15.7326 21.1323 15.6955 21.1205 15.6592C21.1097 15.6225 21.0964 15.5865 21.0823 15.5506C21.0683 15.5146 21.0511 15.4811 21.0331 15.4475C21.0153 15.4137 20.9957 15.3808 20.9745 15.349C20.9532 15.3169 20.9302 15.2859 20.9057 15.2561C20.8816 15.2262 20.8558 15.1978 20.8284 15.1709C20.8019 15.1436 20.773 15.1178 20.7433 15.0928C20.7135 15.0693 20.6823 15.0459 20.6502 15.0248C20.6185 15.0036 20.5856 14.9841 20.5519 14.9662C20.5182 14.9482 20.4831 14.9318 20.4479 14.917C20.4127 14.9023 20.3767 14.8895 20.3402 14.8787C20.2671 14.8552 20.1916 14.84 20.1152 14.8334C20.0004 14.8223 19.8846 14.8279 19.7714 14.8498C19.7337 14.8575 19.6965 14.8671 19.6598 14.8787C19.6231 14.8895 19.5872 14.9022 19.552 14.917C19.5168 14.9318 19.4816 14.9482 19.448 14.9662C19.4145 14.9842 19.3816 15.0037 19.3495 15.0248C19.2854 15.0674 19.2257 15.1163 19.1715 15.1709C19.1441 15.1978 19.1182 15.2262 19.0941 15.2561C19.0699 15.2859 19.0472 15.3169 19.0262 15.349C19.0047 15.3808 18.9849 15.4136 18.9668 15.4475C18.9488 15.4809 18.9326 15.5154 18.9183 15.5506C18.9035 15.5861 18.8904 15.6223 18.8792 15.6592C18.8684 15.6951 18.859 15.7326 18.8512 15.7701C18.8435 15.8078 18.8377 15.8459 18.8339 15.8842C18.8301 15.9225 18.8284 15.9607 18.8284 15.999C18.8284 16.0373 18.8301 16.0764 18.8339 16.1146C18.8378 16.1527 18.8435 16.1905 18.8512 16.2279C18.859 16.2654 18.8684 16.3029 18.8792 16.3396C18.8904 16.3762 18.9035 16.4122 18.9183 16.4475C18.9326 16.4829 18.9488 16.5176 18.9668 16.5514C18.9847 16.585 19.0051 16.6178 19.0262 16.6498C19.0472 16.6817 19.0699 16.7124 19.0941 16.742C19.1184 16.7719 19.1443 16.8006 19.1715 16.8279C19.1988 16.8545 19.227 16.8811 19.2574 16.9053C19.2868 16.9297 19.3176 16.9524 19.3495 16.9732C19.3816 16.9943 19.4144 17.0146 19.448 17.0326C19.5159 17.068 19.5867 17.0973 19.6598 17.1201C19.6964 17.1311 19.7339 17.1404 19.7714 17.1482C19.8467 17.1637 19.9234 17.1712 20.0003 17.1709C20.3107 17.1701 20.6083 17.0468 20.8284 16.8279C20.8824 16.7731 20.9313 16.7135 20.9745 16.6498C20.9956 16.6178 21.0152 16.585 21.0331 16.5514C21.0511 16.5178 21.0675 16.4826 21.0823 16.4475C21.0972 16.4123 21.1097 16.3756 21.1205 16.3396C21.1322 16.303 21.1417 16.2657 21.1488 16.2279C21.1564 16.1905 21.1621 16.1527 21.1659 16.1146C21.1699 16.0762 21.1719 16.0375 21.1719 15.9989L21.1721 15.999ZM25.0784 15.999C25.0784 15.6882 24.9549 15.3902 24.7351 15.1704C24.5154 14.9506 24.2173 14.8271 23.9065 14.8271H23.9042C23.6725 14.8276 23.4462 14.8967 23.2538 15.0257C23.0614 15.1548 22.9115 15.338 22.8232 15.5521C22.7348 15.7663 22.7119 16.0019 22.7574 16.229C22.8029 16.4562 22.9147 16.6648 23.0786 16.8285C23.2426 16.9921 23.4514 17.1035 23.6787 17.1485C23.906 17.1936 24.1415 17.1702 24.3555 17.0815C24.5695 16.9927 24.7524 16.8425 24.881 16.6498C25.0097 16.4572 25.0784 16.2307 25.0784 15.999Z" fill="white"/>
</svg>
