<svg width="40" height="24" viewBox="0 0 40 24" fill="none" xmlns="http://www.w3.org/2000/svg">
<path d="M9.66664 2.16661C8.33328 0.833252 2.66664 0.499971 0.833281 0.333252C0.666641 0.333252 0.499922 0.333252 0.333281 0.499893C0.166641 0.666612 0 0.999971 0 1.16661V16.1666C0 16.6666 0.333359 17 0.833359 17H5.83336C6.16672 17 6.5 16.8333 6.66672 16.5C6.66672 16 9.66672 7.16661 10.0001 2.83333C10 2.66661 10 2.33333 9.66664 2.16661ZM27.5 6.16661C25.8334 5.66661 24.3334 4.99997 23 4.49997C20 3.16661 18.6666 3.83333 16 6.49997C14.8334 7.66661 14 9.33333 14.1666 9.99997C14.1666 10.1666 14.1666 10.1666 14.5 10.3333C15.3334 10.6667 16.5 10.8333 17.6666 8.99997C17.8333 8.83333 18 8.66661 18.3333 8.66661C18.8333 8.66661 18.9999 8.49997 19.4999 8.33325C19.8333 8.16661 20.1666 7.99989 20.6666 7.83325H20.9999C21.1666 7.83325 21.4999 7.99989 21.6666 7.99989C22.5 8.83333 24 9.99997 25.5 11.3333C27.8334 13.1667 30.1666 15.1667 31.3334 16.6667H31.5C30.3334 13.3333 28.3334 7.66661 27.5 6.16661ZM39.1666 1.99997C32.6666 1.99997 29 3.66661 28.8333 3.66661L28.3333 4.16661C28.3333 4.33325 28.3333 4.66661 28.4999 4.83325C29.4999 6.49989 32.8333 15.6666 33.3333 17.9999C33.4999 18.3333 33.8333 18.6665 34.1666 18.6665H39.1666C39.6666 18.6665 40 18.3332 40 17.8332V2.83317C40 2.33333 39.6666 1.99997 39.1666 1.99997Z" fill="white"/>
<path d="M30.1666 18.3333C29.5 16.8333 26.6666 14.6667 24.1666 12.6667C22.8334 11.5 21.5 10.5 20.5 9.66661C20.3334 9.83325 20 9.83325 20 9.99997C19.5 10.1666 19.3334 10.3333 18.6666 10.3333C17.3334 12 15.6666 12.6666 13.8334 12C13 11.8333 12.5 11.1666 12.3334 10.5C12 8.83333 13.5 6.49997 14.6667 5.33333H11.3334C10.6667 8.66669 9.5 13 8.66672 15.3333C9.33336 16 10.0001 16.8333 10.5001 17.1667C13.6667 19.8333 17.3334 22.5 18.0001 23C18.5001 23.3334 19.5001 23.6667 20.0001 23.6667H20.5001L17.8334 21C17.5 20.6666 17.5 20.1666 17.8334 19.8333C18.1667 19.5 18.6667 19.5 19 19.8333L22.3334 23.1667C22.6667 23.5 23 23.3333 23.3334 23.3333C23.8334 23.1667 24 22.8333 24.1667 22.3333L20.3334 18.5C20 18.1666 20 17.6666 20.3334 17.3333C20.6667 17 21.1667 17 21.5 17.3333L25.6666 21.5C25.8333 21.6666 26.5 21.6666 27 21.5C27.1666 21.3333 27.5 21.1666 27.6666 20.8333L23 16.1666C22.6666 15.8333 22.6666 15.3333 23 15C23.3334 14.6667 23.8334 14.6666 24.1666 15L29 19.8333C29.3334 20 29.6666 19.8333 30 19.6667C30.1666 19.5 30.5 19 30.1666 18.3333Z" fill="white"/>
</svg>
