<svg width="32" height="40" viewBox="0 0 32 40" fill="none" xmlns="http://www.w3.org/2000/svg">
<path d="M14.5767 0H21.1167V30.275C17.7617 30.9117 15.2983 31.1667 12.6233 31.1667C4.63832 31.1667 0.476654 27.5567 0.476654 20.6333C0.476654 13.965 4.89332 9.63333 11.7317 9.63333C12.7933 9.63333 13.6 9.71833 14.5767 9.97333V0ZM14.5767 15.2383C13.8657 14.9982 13.1186 14.8831 12.3683 14.8983C9.05499 14.8983 7.14499 16.9367 7.14499 20.505C7.14499 23.9883 8.97165 25.8983 12.3267 25.8983C13.0483 25.8983 13.6433 25.8567 14.5767 25.7283V15.2383ZM31.5233 10.1V25.2617C31.5233 30.485 31.1416 32.9917 29.995 35.1567C28.9333 37.2383 27.5317 38.555 24.6433 39.9983L18.57 37.11C21.4583 35.7517 22.86 34.5617 23.7516 32.735C24.6866 30.8667 24.9833 28.7 24.9833 23.01V10.0983L31.5233 10.1ZM24.9833 0.035H31.5233V6.745H24.9833V0.035Z" fill="url(#paint0_linear_151_197)"/>
<defs>
<linearGradient id="paint0_linear_151_197" x1="2.85647" y1="6.70349" x2="32.1059" y2="26.6833" gradientUnits="userSpaceOnUse">
<stop stop-color="#26289F"/>
<stop offset="1" stop-color="#2442BA"/>
</linearGradient>
</defs>
</svg>
