<svg width="40" height="40" viewBox="0 0 40 40" fill="none" xmlns="http://www.w3.org/2000/svg">
<g clip-path="url(#clip0_138_570)">
<path d="M24.1465 41C24.0113 40.7942 23.8238 40.61 23.7482 40.3795C19.4956 27.4066 15.2522 14.4299 11.0083 1.45339C10.6743 0.432059 10.8206 0.197265 11.7839 0.197265C12.7777 0.197265 13.7715 0.196945 14.7652 0.197344C15.3268 0.197584 15.4271 0.276301 15.621 0.869475C18.962 11.0837 22.3025 21.2983 25.644 31.5123C26.5883 34.3987 27.5343 37.2842 28.4835 40.1685C28.6251 40.599 28.395 40.8058 28.1231 40.9999C26.7976 41 25.472 41 24.1465 41Z" fill="url(#paint0_linear_138_570)"/>
<path d="M16.9033 41.0001C16.7367 40.7237 16.5119 40.4713 16.4122 40.1673C14.3651 33.9259 12.3321 27.6786 10.2964 21.4325C10.1662 21.0331 10.3819 20.6119 10.7596 20.6069C12.0013 20.5909 13.2432 20.5968 14.4849 20.6045C14.7733 20.6063 14.9074 20.823 15.0021 21.1135C15.8214 23.6267 16.65 26.1363 17.4754 28.6471C18.7299 32.4631 19.9785 36.2815 21.2455 40.0922C21.3928 40.5353 21.1905 40.7558 20.9509 40.9999C19.6017 41.0001 18.2525 41.0001 16.9033 41.0001Z" fill="url(#paint1_linear_138_570)"/>
<path d="M10.2279 41C10.1064 40.831 9.93515 40.6829 9.87078 40.4899C8.88576 37.5371 7.91418 34.5787 6.9411 31.6209C6.81158 31.2273 7.03584 30.8162 7.42675 30.8102C8.66818 30.7911 9.91012 30.7978 11.1517 30.8073C11.443 30.8096 11.5642 31.049 11.6571 31.3332C12.5961 34.2063 13.5436 37.0759 14.4837 39.9485C14.5425 40.1282 14.6264 40.351 14.5786 40.5075C14.5206 40.6974 14.3349 40.838 14.2046 40.9999C12.879 41 11.5534 41 10.2279 41Z" fill="#19E58C"/>
<path d="M26.7734 20.5984C26.2293 20.5984 25.6846 20.5795 25.1414 20.6047C24.748 20.623 24.5504 20.4481 24.414 20.0295C22.3946 13.8321 20.3618 7.64013 18.3324 1.44684C18.0005 0.433974 18.1507 0.197343 19.1223 0.197343C20.1159 0.197343 21.1095 0.196944 22.1031 0.197502C22.6192 0.197742 22.7647 0.310868 22.9418 0.852868C24.9542 7.01063 26.9661 13.1685 28.9783 19.3264C29.0148 19.4383 29.054 19.5492 29.0902 19.6613C29.2619 20.1926 29.0231 20.5878 28.5122 20.5961C27.9327 20.6054 27.353 20.5982 26.7734 20.5984Z" fill="url(#paint2_linear_138_570)"/>
<path d="M27.7426 0.197284C28.2512 0.197284 28.7599 0.197124 29.2685 0.197364C29.8342 0.197603 29.9059 0.251252 30.0987 0.837401C31.0226 3.64696 31.9456 6.45691 32.8689 9.26671C32.8935 9.34127 32.9173 9.41624 32.9429 9.49032C33.1122 9.97995 32.8933 10.3869 32.4254 10.3922C31.2426 10.4056 30.0597 10.3981 28.8768 10.3953C28.5736 10.3946 28.4224 10.198 28.3209 9.88726C27.3906 7.03795 26.4505 4.19263 25.5133 1.34619C25.4888 1.27162 25.4648 1.19682 25.4391 1.12273C25.2545 0.592148 25.4843 0.207503 26.0036 0.199519C26.5832 0.190737 27.1629 0.197523 27.7426 0.197284Z" fill="#19E58C"/>
</g>
<defs>
<linearGradient id="paint0_linear_138_570" x1="12.2014" y1="7.03546" x2="33.5292" y2="15.1684" gradientUnits="userSpaceOnUse">
<stop stop-color="#26289F"/>
<stop offset="1" stop-color="#2442BA"/>
</linearGradient>
<linearGradient id="paint1_linear_138_570" x1="11.1043" y1="24.0162" x2="23.5369" y2="29.9348" gradientUnits="userSpaceOnUse">
<stop stop-color="#26289F"/>
<stop offset="1" stop-color="#2442BA"/>
</linearGradient>
<linearGradient id="paint2_linear_138_570" x1="19.0139" y1="3.6176" x2="31.4016" y2="9.47876" gradientUnits="userSpaceOnUse">
<stop stop-color="#26289F"/>
<stop offset="1" stop-color="#2442BA"/>
</linearGradient>
<clipPath id="clip0_138_570">
<rect width="40" height="40" fill="white"/>
</clipPath>
</defs>
</svg>
