<svg width="46" height="40" viewBox="0 0 46 40" fill="none" xmlns="http://www.w3.org/2000/svg">
<path d="M9.01324 31.1024C10.2588 32.9085 12.082 34.1903 13.7907 35.5278C15.4744 36.6136 17.3436 37.6993 19.2596 38.2532C22.66 39.4917 26.3099 39.6101 29.8844 39.8907C32.0627 39.8876 34.2496 39.7334 36.3982 39.3504C38.3338 39.558 39.7253 37.9124 41.473 38.7814C42.5329 37.8462 44.0766 38.2568 45.1355 37.5771C45.918 34.9269 42.4458 37.0515 41.3456 35.7547C40.1515 37.1538 39.1464 35.6032 37.6957 36.0388C35.2272 36.1631 37.8834 34.9386 37.8203 33.814C36.5139 32.8151 35.0346 35.1857 34.1968 35.8233C32.1305 35.4525 30.087 34.8631 28.1916 33.9737C26.0302 32.854 23.9101 31.523 22.3445 29.6337C20.7092 27.7041 18.8974 25.7543 18.1504 23.2773C16.5712 19.1859 16.6741 14.7601 16.2706 10.4636C16.4198 7.55564 19.5073 10.7759 20.841 9.72555C20.3839 8.21796 17.9473 7.74258 16.6019 7.13815C15.3058 7.04921 14.8314 5.89285 13.4493 5.79833C13.5147 4.18489 10.9109 5.07322 9.9619 3.92243C10.896 1.52652 6.87352 3.9819 7.18653 1.90755C8.49605 -0.790406 3.18926 -0.33316 5.40101 2.04201C7.52565 3.23604 3.30353 4.11426 4.53664 4.9147C4.92974 5.7563 4.50702 6.69119 3.35874 6.84274C1.67627 6.98748 1.83435 9.27301 3.47546 8.07566C5.30567 7.49634 3.78952 8.30585 2.92778 8.47117C0.990837 9.03026 -0.326922 10.9525 0.797178 12.7123C1.87326 15.1344 2.15893 17.8358 2.99315 20.3557C4.37295 24.2306 6.39121 27.9174 9.01324 31.1024Z" fill="#19E58C"/>
<path d="M14.4745 8.43387C14.635 8.79256 14.7117 8.3258 14.6792 8.20394C16.1838 7.97401 14.914 7.29342 14.4745 8.43387ZM9.02806 9.08687C9.46991 9.28461 9.95828 8.53044 10.5978 9.00639C12.9769 8.55803 9.72572 8.25912 9.02806 9.08687ZM7.58854 9.73527L7.89551 10.0112C9.50712 10.1422 7.649 8.96961 7.58854 9.73527ZM6.66296 10.5308C6.87459 10.4802 7.20947 10.6021 7.41179 10.7516C9.11178 11.9012 7.11877 8.86384 6.66296 10.5308ZM14.4745 8.43387C14.635 8.79256 14.7117 8.3258 14.6792 8.20394C16.1838 7.97401 14.914 7.29342 14.4745 8.43387ZM9.02806 9.08687C9.46991 9.28461 9.95828 8.53044 10.5978 9.00639C12.9769 8.55803 9.72572 8.25912 9.02806 9.08687ZM7.58854 9.73527L7.89551 10.0112C9.50712 10.1422 7.649 8.96961 7.58854 9.73527ZM6.66296 10.5308C6.87459 10.4802 7.20947 10.6021 7.41179 10.7516C9.11178 11.9012 7.11877 8.86384 6.66296 10.5308ZM14.4745 8.43387C14.635 8.79256 14.7117 8.3258 14.6792 8.20394C16.1838 7.97401 14.914 7.29342 14.4745 8.43387ZM9.02806 9.08687C9.46991 9.28461 9.95828 8.53044 10.5978 9.00639C12.9769 8.55803 9.72572 8.25912 9.02806 9.08687ZM7.58854 9.73527L7.89551 10.0112C9.50712 10.1422 7.649 8.96961 7.58854 9.73527ZM6.66296 10.5308C6.87459 10.4802 7.20947 10.6021 7.41179 10.7516C9.11178 11.9012 7.11877 8.86384 6.66296 10.5308Z" fill="url(#paint0_linear_151_208)"/>
<path d="M20.9512 30.2036C20.393 29.6265 20.2489 28.5481 20.8512 29.4862C21.1605 29.6081 21.8419 31.2498 20.9512 30.2036Z" fill="url(#paint1_linear_151_208)"/>
<path d="M17.5233 24.6232L17.3744 24.3818C16.7116 22.9126 17.8488 23.5794 17.5233 24.6232Z" fill="url(#paint2_linear_151_208)"/>
<path d="M15.9094 18.9785L15.9047 18.7577C15.9908 17.2126 16.3745 17.8334 15.9094 18.9785Z" fill="url(#paint3_linear_151_208)"/>
<path d="M15.1187 19.6728C15.0187 20.5534 14.7303 20.8707 14.4582 20.0935C13.5722 19.5693 14.2234 16.3986 14.5257 18.5668C15.3861 18.2909 14.4769 19.6865 15.1187 19.6728Z" fill="url(#paint4_linear_151_208)"/>
<path d="M14.8722 14.0855C14.4652 13.3773 15.3861 10.9676 15.4885 12.4621C15.0606 13.6279 15.3652 14.2786 15.6629 12.7151C16.214 11.4872 15.542 15.1431 14.8722 14.0855Z" fill="url(#paint5_linear_151_208)"/>
<path d="M9.77935 14.9133C10.098 14.4512 8.93285 12.8256 9.94679 14.3316C10.384 14.6765 11.2142 14.9064 10.4817 15.0513C11.6328 16.0538 10.2003 15.3226 9.77935 14.9133Z" fill="url(#paint6_linear_151_208)"/>
<path d="M10.1792 15.8836C9.92804 15.61 9.39316 15.7342 9.19781 15.4491C9.9792 15.2835 12.435 16.8056 10.1792 15.8836Z" fill="url(#paint7_linear_151_208)"/>
<path d="M9.83736 16.5895C9.52573 16.509 9.15132 16.4791 8.99551 16.1342C7.68157 14.3408 12.8164 17.9484 9.83736 16.5895Z" fill="url(#paint8_linear_151_208)"/>
<path d="M8.92806 17.0585L8.59318 16.7251C6.54902 14.9247 11.1652 17.6678 8.92806 17.0585Z" fill="url(#paint9_linear_151_208)"/>
<path d="M8.17228 17.7875C7.46763 17.0954 6.95834 16.4585 8.20483 17.3575C8.6839 17.3759 7.1374 15.9089 8.32111 16.8907C9.56528 17.1138 8.93506 18.9072 8.17228 17.7875Z" fill="url(#paint10_linear_151_208)"/>
<path d="M12.5048 20.8662C11.6746 19.7188 12.0141 21.5008 11.2583 20.3488C10.9606 19.866 10.4699 18.4496 10.6281 18.0173C10.7699 18.7232 12.142 21.0501 11.3001 18.9807C10.3699 17.2471 12.4118 19.5418 12.6234 19.9763C12.7234 20.4063 12.0513 19.8591 12.5048 20.8662Z" fill="url(#paint11_linear_151_208)"/>
<path d="M41.6812 35.7496C40.4766 37.1522 39.465 35.5978 38.0022 36.0347C35.5138 36.1589 38.1905 34.9333 38.1278 33.8067C36.8115 32.8065 35.3185 35.1817 34.4743 35.8186C32.3906 35.4461 30.3302 34.8575 28.4209 33.9653C26.2418 32.8433 24.1047 31.5097 22.5256 29.6174C20.8768 27.6837 19.0512 25.7316 18.2977 23.2506C16.7047 19.1533 16.8094 14.7179 16.4024 10.4137C16.5536 7.50044 19.6652 10.7264 21.0093 9.67558C20.5489 8.16494 18.0908 7.68899 16.735 7.08427C15.428 6.9946 14.9489 5.83805 13.5559 5.74148C13.621 4.12508 10.9978 5.0149 10.0397 3.86296C10.9815 1.46249 6.92577 3.92274 7.24205 1.84417C8.56296 -0.857499 3.21186 -0.399939 5.44207 1.97983C7.5839 3.17547 3.32814 4.0561 4.56998 4.85625C4.96533 5.7001 4.53975 6.63591 3.38162 6.78766C1.68629 6.93252 1.84676 9.22032 3.50023 8.02238C5.34439 7.44296 3.8165 8.25231 2.94674 8.41786C0.995602 8.97889 -0.33229 10.9034 0.800256 12.667C1.88629 15.0927 2.17233 17.799 3.01419 20.3236C4.40487 24.2048 6.43973 27.8975 9.08389 31.0889C10.3397 32.8985 12.1769 34.1815 13.9001 35.522C15.5978 36.6095 17.4815 37.6971 19.414 38.2512C22.8419 39.4929 26.5209 39.6101 30.1255 39.8906C32.3208 39.8883 34.5255 39.732 36.6929 39.3503C38.644 39.5572 40.0463 37.9086 41.8091 38.7801C42.8765 37.842 44.4347 38.2558 45.5021 37.5729C46.2905 34.9196 42.7905 37.0487 41.6812 35.7496ZM20.4698 9.54912C20.2442 9.6135 20.2838 9.2778 20.1163 9.22262C18.2931 8.3029 20.9954 8.6248 20.4698 9.54912ZM10.2095 5.3598C9.00249 4.73899 10.4513 6.10937 9.4397 6.08408C8.89319 6.09327 7.87925 4.92983 8.21413 4.34351C8.80482 4.60103 10.0141 4.72059 10.2095 5.3598ZM8.12808 3.55715L7.79785 3.54106C7.71181 2.86276 9.76062 3.34332 8.12808 3.55715ZM5.72113 1.69472C4.78858 1.26245 5.73276 -0.383844 6.71415 0.391019C7.88157 1.94534 4.56998 0.211674 5.72113 1.69472ZM7.91413 5.31381C9.27923 6.3416 7.15135 5.31151 6.28624 5.95532C4.92347 6.09327 7.77925 5.19655 7.91413 5.31381ZM8.3211 6.64281C9.10714 6.6589 12.5629 5.10918 11.4118 6.47956C12.3839 7.62461 11.7746 7.36938 11.1118 6.63361C11.4373 7.25902 10.9583 8.56502 10.1025 7.43606C9.49318 6.31171 9.08156 6.85204 9.50249 7.59242C9.57923 7.67749 9.649 7.77636 9.70946 7.88673C9.62574 7.78786 9.55597 7.68669 9.50249 7.59242C8.65133 6.6497 6.79089 7.16935 5.40021 7.6361C4.41882 7.53033 7.94204 6.81066 8.3211 6.64281ZM3.49092 10.7425C1.80955 10.1515 1.78629 11.9013 1.96071 12.8969L1.84676 12.8946C0.304912 10.9333 2.01885 10.1331 3.96999 9.88022C3.60023 10.7861 4.50254 11.0804 5.36997 11.2437C6.77461 10.8597 4.4444 10.6137 5.50718 10.2481C6.0909 10.1423 3.64441 9.66868 5.6816 9.39736C7.76995 9.05017 9.65132 8.24082 11.7211 7.81545C13.5885 7.44756 15.3606 7.23832 17.0489 7.38088C17.728 8.16264 16.535 9.48244 15.2954 9.56981C13.7885 10.1262 12.2583 10.2665 10.8583 10.4481C9.06296 10.2251 7.77227 11.8185 5.91415 12.0209C6.4095 11.1149 5.50718 11.7128 4.56301 11.6668C5.0444 13.5016 1.24676 11.1839 3.49092 10.7425ZM6.42112 13.4004C7.91646 13.3522 7.43739 14.2213 6.58624 14.2788C6.56764 14.3363 5.8095 14.0994 6.12345 13.8948C8.46529 14.1868 4.10487 13.1659 6.42112 13.4004ZM5.00021 16.2562L4.80254 16.1849C3.22814 15.4744 5.97229 15.8791 5.00021 16.2562ZM4.55603 20.3558C3.96301 20.1512 3.99092 19.2315 3.71418 18.7463C2.94674 16.4309 4.73045 19.643 4.55603 20.3558ZM4.09789 20.0247C5.0537 21.1675 4.67928 21.7952 5.66997 23.1931C4.39557 22.3953 4.15371 20.4961 3.34441 19.2682C2.45605 17.169 3.9165 19.151 4.09789 20.0247ZM13.3559 34.3194C12.5862 34.1562 12.0606 33.3652 11.5164 32.8479C9.90016 31.8339 8.85133 30.1324 7.96297 28.5068C6.81879 26.7984 5.44439 25.0878 4.66533 23.092C3.74674 21.018 5.24207 23.246 5.45369 24.0232C5.93508 25.5384 7.44437 26.4099 7.59786 27.417C9.27226 28.3712 8.41413 29.9255 9.81876 30.3646C10.442 30.0519 10.5048 32.2409 11.8327 31.7856C11.0955 32.1259 12.142 32.5283 12.5118 33.1652C13.3466 33.0479 15.1838 34.9885 13.3559 34.3194ZM9.91411 21.9584C10.8141 21.5813 10.2839 23.7151 11.1676 23.9726C12.8908 26.196 9.96992 24.0393 8.99551 23.8231C9.1211 23.8162 8.13273 23.5472 8.55831 23.4507C8.24669 23.1334 7.54902 21.9814 9.14203 22.7517C10.4095 23.3817 10.5188 22.9563 9.91411 21.9584ZM12.749 26.849C11.8769 26.8237 11.6141 26.7571 12.8583 27.5112C12.3699 27.8998 13.8443 28.2102 13.3373 28.7919C14.8373 29.9508 13.0652 29.0839 12.4257 28.6103C12.0466 28.3505 10.5048 27.8331 10.7443 27.4928C12.5652 28.4401 11.2071 27.456 10.4048 26.8283C11.8722 27.1824 9.22807 25.7523 10.6257 26.1293C11.0397 26.2282 9.99783 25.2832 11.3653 25.973C10.0188 24.8946 12.3071 25.789 12.8838 25.8994C12.9652 26.2374 11.2536 26.1868 12.749 26.849ZM13.1327 31.0383L12.7606 30.9579C11.2257 29.753 13.4769 30.114 14.4769 30.6406C16.6768 31.1234 14.0117 31.7028 13.1327 31.0383ZM17.3861 33.2664L17.1396 33.1721L16.8559 33.0456C15.5792 31.9213 19.5326 33.8665 17.3861 33.2664ZM17.4047 32.1397L17.0605 32.027C15.5466 31.0912 18.9629 32.3397 17.4047 32.1397ZM16.9117 30.659C15.5722 30.3532 17.4001 30.2336 17.7396 30.7325C20.0466 31.0981 17.5954 31.2591 16.9117 30.659ZM16.6605 31.0016C17.7117 31.1441 17.7187 31.6178 16.5536 31.3212C16.3466 31.1947 16.014 31.2016 15.9071 30.9372C14.3117 29.9301 16.0954 30.4819 16.6605 31.0016ZM22.7396 38.7387C20.6721 38.4812 18.828 37.6327 16.9419 36.8257C16.6675 36.6969 16.4094 36.5383 16.1489 36.3865C14.8536 35.6783 15.0141 35.5312 16.2722 36.2302C16.7187 36.5796 19.8768 37.8581 18.3722 37.0142C17.721 36.8533 14.0699 34.869 16.4768 35.7381C18.4024 36.9153 20.6233 37.5385 22.6791 38.4444C24.4884 38.6789 26.3977 39.1526 28.1767 38.7755C29.6604 39.5089 31.1999 38.5869 32.6883 39.2514C29.4046 39.8837 26.0186 39.1893 22.7396 38.7387ZM23.5093 37.8695C25.7767 38.7019 22.1558 38.1455 21.407 37.6787C19.3024 36.8004 23.1279 37.95 23.5093 37.8695ZM26.8372 36.6026C27.9465 35.6622 27.986 36.1198 27.9767 36.8923C26.986 37.973 27.5744 36.4486 26.9604 37.0349C26.393 37.481 26.5302 36.7705 26.8372 36.6026ZM29.6372 37.4327L29.4488 37.4925C29.3976 36.874 30.6744 36.7705 29.6372 37.4327ZM31.3023 37.8787L31.0232 38.0581C30.4976 37.6971 32.6325 36.9314 31.3023 37.8787ZM32.965 36.9682C32.0604 37.4534 31.2023 36.6578 30.3209 36.6992C29.0953 36.283 27.1535 35 25.8395 35.8692C24.0233 36.9958 26.7697 34.616 25.2977 35.6806C23.8023 37.4534 24.2837 34.577 22.8256 35.4369C22.7419 35.161 21.5303 35.0874 22.4465 34.6022C21.6256 34.5517 22.1372 34.5011 22.4349 33.8527C22.0814 33.7814 20.121 33.8481 19.3489 33.2112C18.4419 32.0454 19.507 32.5191 20.4535 32.6892C18.9349 32.9537 20.9791 33.8159 21.9954 33.3353C21.5372 33.1422 21.0163 32.165 19.8094 31.3143C18.121 30.3072 16.7303 29.8289 14.9815 29.0265C13.0862 27.9159 15.4071 28.6356 16.0629 29.2196C17.9536 30.045 17.2094 28.0631 16.114 27.548C15.0745 27.5894 14.7024 26.5777 14.0001 26.3524C13.8838 26.3455 13.7629 26.3317 13.6397 26.311C13.7699 26.2995 13.8885 26.3156 14.0001 26.3524C15.3117 26.4443 16.0792 25.7982 14.5234 24.4118C12.9141 22.5562 15.1931 25.8074 14.2559 25.389C13.8303 24.8348 14.1489 24.0393 12.7885 23.7519C12.7745 24.2669 12.6048 25.0579 12.3094 23.9795C11.9304 24.0439 11.4955 24.4532 11.1862 23.3426C11.4792 22.0803 9.92109 21.7929 9.68155 20.9858C11.0257 21.8366 11.635 21.1652 10.6815 20.2362C10.0257 19.1027 9.93504 19.9948 9.56993 20.1512C8.25134 21.4825 9.449 17.8519 8.86296 18.8981C8.27227 18.882 8.60947 19.5419 8.6211 20.3581C6.69321 19.8845 9.08854 21.3606 9.64667 22.1723C8.76529 21.2594 8.91645 22.8574 8.18157 22.0987C7.93274 21.4273 7.89553 20.3673 6.67228 20.1811C8.06529 19.7028 5.84671 18.7371 6.03043 18.6842C6.8281 17.9691 6.93042 16.985 7.88855 18.5256C6.67229 18.429 7.85134 20.5076 8.15134 19.8891C8.10483 18.8245 8.64901 17.7024 6.81182 17.2104C6.27229 17.9301 5.33742 15.8032 6.4188 16.2539C6.27694 14.8398 8.09785 15.6721 7.98157 15.0605C8.91877 14.6536 6.8467 13.3407 7.96064 12.8141C8.81645 13.3292 11.0397 12.0025 9.54435 11.8185C10.4792 11.8093 11.228 12.214 11.328 11.2782C12.0839 11.4391 14.128 12.0852 12.2722 11.0736C12.8629 10.7815 14.1164 10.5332 14.8396 10.524C16.6257 9.15134 16.2582 12.752 15.8466 13.7591C16.5257 13.3016 16.3954 15.8814 16.1768 16.8448C16.5443 16.3573 16.6978 17.6265 16.2931 18.5325C16.3861 18.3922 17.1605 18.3163 16.5489 19.351C16.0652 18.2956 15.8559 21.4963 16.1675 20.0592C17.0233 18.7003 16.7978 19.9856 17.0582 20.5857C17.2257 21.832 17.7861 22.9793 17.9559 24.083C18.7442 24.8693 17.6164 24.3359 17.621 25.4005C17.8768 25.0924 18.9256 25.835 18.9187 26.941C19.0047 25.1912 19.107 26.5317 19.9698 26.9847C20.6931 28.1343 21.2279 29.2104 22.3047 30.1554C23.1442 31.1142 22.2558 30.4451 22.6186 31.0314C23.5093 32.595 25.5744 33.4963 27.3604 33.9056C28.1441 34.915 29.3209 35.9174 30.9116 35.4599C29.5604 36.2807 34.7045 36.5038 32.965 36.9682ZM35.0441 36.9958L34.6301 36.9705L34.3743 36.9314C34.5115 35.9266 37.3906 36.7153 38.5626 36.7452C38.2068 37.481 36.0092 36.8027 35.0441 36.9958ZM42.7812 37.0119C41.5882 36.7337 43.3207 36.7452 43.6789 36.69C45.9649 36.6877 43.8323 37.0142 42.7812 37.0119Z" fill="url(#paint12_linear_151_208)"/>
<defs>
<linearGradient id="paint0_linear_151_208" x1="7.33222" y1="8.33291" x2="9.14052" y2="12.6393" gradientUnits="userSpaceOnUse">
<stop stop-color="#26289F"/>
<stop offset="1" stop-color="#2442BA"/>
</linearGradient>
<linearGradient id="paint1_linear_151_208" x1="20.5326" y1="29.3574" x2="21.5025" y2="29.912" gradientUnits="userSpaceOnUse">
<stop stop-color="#26289F"/>
<stop offset="1" stop-color="#2442BA"/>
</linearGradient>
<linearGradient id="paint2_linear_151_208" x1="17.1952" y1="23.7137" x2="17.7162" y2="23.89" gradientUnits="userSpaceOnUse">
<stop stop-color="#26289F"/>
<stop offset="1" stop-color="#2442BA"/>
</linearGradient>
<linearGradient id="paint3_linear_151_208" x1="15.9224" y1="18.0269" x2="16.2311" y2="18.0817" gradientUnits="userSpaceOnUse">
<stop stop-color="#26289F"/>
<stop offset="1" stop-color="#2442BA"/>
</linearGradient>
<linearGradient id="paint4_linear_151_208" x1="14.0954" y1="18.2724" x2="15.452" y2="18.7592" gradientUnits="userSpaceOnUse">
<stop stop-color="#26289F"/>
<stop offset="1" stop-color="#2442BA"/>
</linearGradient>
<linearGradient id="paint5_linear_151_208" x1="14.8531" y1="12.3674" x2="16.1416" y2="12.9089" gradientUnits="userSpaceOnUse">
<stop stop-color="#26289F"/>
<stop offset="1" stop-color="#2442BA"/>
</linearGradient>
<linearGradient id="paint6_linear_151_208" x1="9.62987" y1="14.0158" x2="10.9691" y2="14.9057" gradientUnits="userSpaceOnUse">
<stop stop-color="#26289F"/>
<stop offset="1" stop-color="#2442BA"/>
</linearGradient>
<linearGradient id="paint7_linear_151_208" x1="9.34437" y1="15.5614" x2="9.77836" y2="16.5402" gradientUnits="userSpaceOnUse">
<stop stop-color="#26289F"/>
<stop offset="1" stop-color="#2442BA"/>
</linearGradient>
<linearGradient id="paint8_linear_151_208" x1="8.92963" y1="15.8374" x2="9.88483" y2="17.1549" gradientUnits="userSpaceOnUse">
<stop stop-color="#26289F"/>
<stop offset="1" stop-color="#2442BA"/>
</linearGradient>
<linearGradient id="paint9_linear_151_208" x1="8.1716" y1="16.2784" x2="8.97056" y2="17.287" gradientUnits="userSpaceOnUse">
<stop stop-color="#26289F"/>
<stop offset="1" stop-color="#2442BA"/>
</linearGradient>
<linearGradient id="paint10_linear_151_208" x1="7.5674" y1="16.8203" x2="8.81141" y2="17.9011" gradientUnits="userSpaceOnUse">
<stop stop-color="#26289F"/>
<stop offset="1" stop-color="#2442BA"/>
</linearGradient>
<linearGradient id="paint11_linear_151_208" x1="10.7535" y1="18.4948" x2="12.7694" y2="19.7628" gradientUnits="userSpaceOnUse">
<stop stop-color="#26289F"/>
<stop offset="1" stop-color="#2442BA"/>
</linearGradient>
<linearGradient id="paint12_linear_151_208" x1="3.85062" y1="6.68544" x2="35.1657" y2="37.9349" gradientUnits="userSpaceOnUse">
<stop stop-color="#26289F"/>
<stop offset="1" stop-color="#2442BA"/>
</linearGradient>
</defs>
</svg>
