<svg width="40" height="40" viewBox="0 0 40 40" fill="none" xmlns="http://www.w3.org/2000/svg">
<path d="M14.4361 19.5496C14.4438 16.564 16.9439 14.1524 20.0173 14.1659C23.0937 14.1795 25.5585 16.5997 25.5485 19.5972C25.5386 22.5848 23.048 24.9758 19.9572 24.9648C16.8942 24.9539 14.4283 22.5353 14.4361 19.5496Z" fill="#19E58C"/>
<path d="M33.7198 28.2621C33.7198 27.1224 33.7197 25.9886 33.7198 24.8548C33.7199 23.5593 33.7178 22.2638 33.7235 20.9684C33.7242 20.8178 33.6815 20.7103 33.5707 20.6033C32.2672 19.3446 30.9699 18.0798 29.666 16.8216C29.5496 16.7093 29.5004 16.5972 29.4989 16.4389C29.4939 15.9343 29.4727 15.4299 29.4585 14.9254C29.4565 14.8541 29.4582 14.7827 29.4582 14.7502C30.1219 14.7502 30.7663 14.7477 31.4106 14.7547C31.466 14.7553 31.5294 14.811 31.5744 14.8551C33.1755 16.4245 34.7762 17.9944 36.3704 19.5703C36.444 19.6431 36.4934 19.7726 36.4942 19.8761C36.503 20.9792 36.4974 22.0825 36.5005 23.1857C36.503 24.0772 36.5139 24.9686 36.5174 25.8601C36.5203 26.6129 36.5168 27.3658 36.5193 28.1187C36.5197 28.2292 36.5029 28.2983 36.3623 28.2973C35.5039 28.2914 34.6454 28.2914 33.787 28.2886C33.7735 28.2885 33.7602 28.2784 33.7198 28.2621Z" fill="url(#paint0_linear_136_1105)"/>
<path d="M10.9965 32.7735C11.1044 32.7735 11.1939 32.7735 11.2835 32.7735C13.7009 32.7735 16.1183 32.7721 18.5358 32.7768C18.6924 32.7772 18.7987 32.7305 18.908 32.6238C20.2041 31.358 21.5065 30.0985 22.8024 28.8325C22.9178 28.7197 23.0328 28.6667 23.1963 28.6686C23.7821 28.6755 24.368 28.6713 24.9881 28.6713C24.9881 28.7156 24.9902 28.7998 24.9878 28.8838C24.9731 29.3957 24.9628 29.9079 24.9371 30.4193C24.9325 30.5104 24.8858 30.6209 24.8199 30.6845C23.4041 32.0509 21.9828 33.4117 20.5628 34.7739C20.3645 34.9641 20.1757 35.1646 19.9666 35.3427C19.8852 35.412 19.7599 35.4694 19.6544 35.4696C16.8379 35.4764 14.0215 35.4748 11.2051 35.4757C11.0771 35.4758 10.9692 35.4823 10.9707 35.3009C10.9776 34.4959 10.9739 33.6908 10.9751 32.8858C10.9751 32.8583 10.9852 32.8305 10.9965 32.7735Z" fill="url(#paint1_linear_136_1105)"/>
<path d="M16.8487 29.3406C16.3605 29.79 15.8982 30.2187 15.4298 30.641C15.387 30.6796 15.3053 30.6923 15.2417 30.6921C12.9447 30.6828 10.6477 30.6717 8.35085 30.6536C8.26689 30.653 8.16488 30.5981 8.10265 30.5379C6.48553 28.973 4.87262 27.4039 3.25894 25.8357C2.89678 25.4838 2.53635 25.1302 2.17048 24.7819C2.10178 24.7166 2.01113 24.673 1.93555 24.6227C2.63506 23.951 3.28184 23.3299 3.94519 22.6929C3.98511 22.7296 4.05064 22.7871 4.11301 22.8477C5.81743 24.5038 7.52271 26.1591 9.22315 27.819C9.34458 27.9375 9.46614 27.986 9.63717 27.9855C11.4599 27.9805 13.2827 27.9843 15.1055 27.9795C15.2829 27.979 15.4207 28.0207 15.5498 28.1425C15.9702 28.5395 16.3994 28.9276 16.8487 29.3406Z" fill="url(#paint2_linear_136_1105)"/>
<path d="M30.1343 22.5554C30.5883 23.0218 31.0237 23.4662 31.4536 23.9157C31.494 23.958 31.5182 24.0321 31.5181 24.0913C31.5123 26.324 31.5037 28.5567 31.4899 30.7893C31.4895 30.8679 31.4554 30.9676 31.4 31.0217C29.3636 33.0081 27.323 34.9902 25.2823 36.9725C25.2675 36.9869 25.245 36.9936 25.2332 37C24.5891 36.3688 23.9489 35.7415 23.2905 35.0962C23.3358 35.0501 23.3998 34.982 23.4668 34.9169C25.1454 33.2869 26.8223 31.6552 28.5063 30.0305C28.6729 29.8697 28.7463 29.7109 28.7448 29.4777C28.734 27.728 28.7412 25.9783 28.7355 24.2286C28.7349 24.0533 28.7899 23.9287 28.9156 23.8041C29.3214 23.4022 29.7142 22.9879 30.1343 22.5554Z" fill="url(#paint3_linear_136_1105)"/>
<path d="M16.7124 3.78969C16.1079 4.37102 15.5284 4.92469 14.9529 5.48245C13.7533 6.64521 12.5538 7.80809 11.3621 8.97833C11.279 9.05987 11.2174 9.20227 11.2168 9.31676C11.2078 11.1095 11.2085 12.9024 11.2138 14.6952C11.2143 14.8535 11.1714 14.9712 11.0582 15.0849C10.6866 15.4582 10.3247 15.8405 9.95798 16.2183C9.91788 16.2596 9.87049 16.2942 9.81324 16.3433C9.36727 15.8837 8.92727 15.4336 8.49365 14.9777C8.45432 14.9364 8.44065 14.8581 8.44092 14.7971C8.45083 12.5581 8.46274 10.3192 8.48075 8.08024C8.48138 8.00411 8.52936 7.91066 8.5862 7.85524C10.5537 5.93813 12.5249 4.02476 14.4952 2.11038C14.6348 1.97483 14.8143 1.9641 14.9367 2.07832C15.5278 2.62931 16.1017 3.19767 16.7124 3.78969Z" fill="url(#paint4_linear_136_1105)"/>
<path d="M36.1521 16.2821C35.5998 15.7407 35.0663 15.2149 34.5296 14.6921C33.3062 13.5007 32.0795 12.3125 30.8597 11.1177C30.732 10.9927 30.6038 10.9454 30.4243 10.946C28.5718 10.9525 26.7193 10.9517 24.8668 10.9493C24.7894 10.9492 24.6901 10.9359 24.6383 10.8895C24.1743 10.4732 23.7187 10.0482 23.2505 9.61632C23.4228 9.4477 23.5816 9.28633 23.7471 9.13183C24.0132 8.88347 24.2763 8.6312 24.5567 8.39885C24.6486 8.32267 24.7904 8.2637 24.9093 8.26392C27.1607 8.26792 29.4121 8.27988 31.6634 8.29998C31.7817 8.30104 31.9289 8.36045 32.0127 8.44142C33.9837 10.3448 35.9479 12.2549 37.9133 14.1639C38.1122 14.3571 38.114 14.3849 37.9231 14.5698C37.3423 15.1326 36.7604 15.6942 36.1521 16.2821Z" fill="url(#paint5_linear_136_1105)"/>
<path d="M15.1987 10.2248C15.1987 9.61865 15.196 8.99176 15.2034 8.36499C15.2041 8.31081 15.2623 8.24888 15.3082 8.20472C16.9346 6.63981 18.562 5.07591 20.1935 3.51597C20.2499 3.462 20.3488 3.4226 20.428 3.42242C23.2818 3.41736 26.1356 3.41776 28.9895 3.41793C29.0332 3.41793 29.0769 3.42479 29.1345 3.42963C29.1345 4.31918 29.1345 5.20024 29.1345 6.10985C28.8841 6.10985 28.6382 6.10989 28.3924 6.10985C26.1334 6.10923 23.8744 6.11033 21.6155 6.10444C21.4503 6.104 21.3382 6.15304 21.2231 6.26554C19.9273 7.5313 18.6249 8.79054 17.3288 10.056C17.2146 10.1674 17.101 10.2288 16.9367 10.2271C16.3504 10.2212 15.764 10.2248 15.1987 10.2248Z" fill="url(#paint6_linear_136_1105)"/>
<path d="M6.27888 10.6703C6.27888 11.3634 6.27888 12.0356 6.27888 12.7078C6.27888 14.4497 6.28128 16.1917 6.27517 17.9337C6.27453 18.1084 6.32513 18.2321 6.45339 18.3559C7.75167 19.6095 9.04211 20.8707 10.3406 22.124C10.4687 22.2477 10.5263 22.3727 10.5241 22.5457C10.5171 23.107 10.5215 23.6684 10.5215 24.2105C10.0239 24.2105 9.49918 24.1961 8.97586 24.216C8.67512 24.2274 8.46258 24.1351 8.25028 23.9243C6.71231 22.397 5.16037 20.8831 3.61734 19.3606C3.55669 19.3008 3.51021 19.1973 3.51003 19.1141C3.50528 16.3328 3.5069 13.5515 3.50813 10.7703C3.50813 10.7423 3.51487 10.7144 3.52053 10.6703C4.43348 10.6703 5.34018 10.6703 6.27888 10.6703Z" fill="url(#paint7_linear_136_1105)"/>
<defs>
<linearGradient id="paint0_linear_136_1105" x1="29.9988" y1="17.0203" x2="38.0599" y2="20.7181" gradientUnits="userSpaceOnUse">
<stop stop-color="#26289F"/>
<stop offset="1" stop-color="#2442BA"/>
</linearGradient>
<linearGradient id="paint1_linear_136_1105" x1="12.0452" y1="29.8094" x2="16.5661" y2="38.0025" gradientUnits="userSpaceOnUse">
<stop stop-color="#26289F"/>
<stop offset="1" stop-color="#2442BA"/>
</linearGradient>
<linearGradient id="paint2_linear_136_1105" x1="3.07868" y1="24.0335" x2="8.66008" y2="33.1908" gradientUnits="userSpaceOnUse">
<stop stop-color="#26289F"/>
<stop offset="1" stop-color="#2442BA"/>
</linearGradient>
<linearGradient id="paint3_linear_136_1105" x1="23.9212" y1="24.9762" x2="33.0064" y2="29.5303" gradientUnits="userSpaceOnUse">
<stop stop-color="#26289F"/>
<stop offset="1" stop-color="#2442BA"/>
</linearGradient>
<linearGradient id="paint4_linear_136_1105" x1="9.07495" y1="4.40386" x2="18.1631" y2="9.01608" gradientUnits="userSpaceOnUse">
<stop stop-color="#26289F"/>
<stop offset="1" stop-color="#2442BA"/>
</linearGradient>
<linearGradient id="paint5_linear_136_1105" x1="24.386" y1="9.60772" x2="30.0037" y2="18.7416" gradientUnits="userSpaceOnUse">
<stop stop-color="#26289F"/>
<stop offset="1" stop-color="#2442BA"/>
</linearGradient>
<linearGradient id="paint6_linear_136_1105" x1="16.2665" y1="4.55905" x2="20.8036" y2="12.731" gradientUnits="userSpaceOnUse">
<stop stop-color="#26289F"/>
<stop offset="1" stop-color="#2442BA"/>
</linearGradient>
<linearGradient id="paint7_linear_136_1105" x1="4.04473" y1="12.9406" x2="12.0723" y2="16.6002" gradientUnits="userSpaceOnUse">
<stop stop-color="#26289F"/>
<stop offset="1" stop-color="#2442BA"/>
</linearGradient>
</defs>
</svg>
