<svg width="40" height="40" viewBox="0 0 40 40" fill="none" xmlns="http://www.w3.org/2000/svg">
<mask id="mask0_136_962" style="mask-type:alpha" maskUnits="userSpaceOnUse" x="0" y="0" width="40" height="40">
<rect width="40" height="40" fill="#D9D9D9"/>
</mask>
<g mask="url(#mask0_136_962)">
<path d="M26.9363 12.6471L30.3264 9.26034L30.5516 7.83487C24.3749 2.2223 14.5554 2.85947 8.98551 9.16245C7.43833 10.9125 6.29169 13.0954 5.67969 15.3504L6.89337 15.1786L13.6735 14.0623L14.1961 13.5282C17.2114 10.2187 22.312 9.77386 25.7931 12.5887L26.9363 12.6471Z" fill="#19E58C"/>
<path d="M35.1568 15.2489C34.378 12.3825 32.7776 9.80462 30.553 7.83301L25.7946 12.5869C27.8042 14.227 28.9474 16.6967 28.8993 19.2883V20.1315C31.2373 20.1315 33.1334 22.0259 33.1334 24.3616C33.1334 26.6973 31.2373 28.5453 28.8993 28.5453H20.419L19.5869 29.4486V34.5236L20.419 35.3205H28.8993C34.9814 35.3686 39.9514 30.5272 39.9995 24.4509C40.0287 20.767 38.2099 17.3132 35.1568 15.2489Z" fill="#19E58C"/>
<path d="M11.9493 35.3206H20.4193V28.547H11.9493C11.3493 28.547 10.7579 28.4165 10.213 28.1675L9.01134 28.535L5.59721 31.9218L5.2998 33.0742C7.21488 34.5185 9.55114 35.3309 11.9493 35.3206Z" fill="url(#paint0_linear_136_962)"/>
<path d="M11.9491 13.3477C5.86525 13.3838 0.964097 18.3403 1.0002 24.4183C1.02083 27.8119 2.60756 31.0064 5.29966 33.0759L10.2128 28.1675C8.08117 27.2057 7.13394 24.7 8.09664 22.5703C9.05933 20.4407 11.5675 19.4944 13.6992 20.4562C14.6378 20.8804 15.3908 21.6309 15.8154 22.5703L20.7286 17.6619C18.6382 14.9312 15.3891 13.3357 11.9491 13.3477Z" fill="url(#paint1_linear_136_962)"/>
</g>
<defs>
<linearGradient id="paint0_linear_136_962" x1="6.45876" y1="29.3663" x2="11.1428" y2="38.0791" gradientUnits="userSpaceOnUse">
<stop stop-color="#26289F"/>
<stop offset="1" stop-color="#2442BA"/>
</linearGradient>
<linearGradient id="paint1_linear_136_962" x1="2.51225" y1="16.654" x2="17.8738" y2="30.173" gradientUnits="userSpaceOnUse">
<stop stop-color="#26289F"/>
<stop offset="1" stop-color="#2442BA"/>
</linearGradient>
</defs>
</svg>
