<svg width="263" height="203" viewBox="0 0 263 203" fill="none" xmlns="http://www.w3.org/2000/svg">
<mask id="mask0_15_185" style="mask-type:alpha" maskUnits="userSpaceOnUse" x="0" y="0" width="263" height="203">
<rect width="263" height="203" transform="matrix(1 -8.74228e-08 -8.74228e-08 -1 3.05176e-05 203)" fill="#D9D9D9"/>
</mask>
<g mask="url(#mask0_15_185)">
<path d="M296.5 74L236 33.5" stroke="#D8D8D8"/>
<path d="M275.5 60L148.5 132.5L148.5 159.5L296.5 73.5L275.5 60Z" fill="#F2F2F4"/>
<path d="M222.163 42.0961L222.169 42.0925L295.833 0.209096L295.833 -85.5L295.833 -85.5041L296.521 -170.96L222.17 -213.092L222.163 -213.096L148.5 -256.42L74.837 -213.096L74.83 -213.092L0.478983 -170.96L1.16706 -85.504L1.16699 -85.496L0.478998 -0.0400315L74.83 42.0921L74.8301 42.0921L74.837 42.0961L148.5 85.4199L222.163 42.0961Z" stroke="#19E58C"/>
<path opacity="0.4" d="M148.5 159.5L148.5 -239.5" stroke="#19E58C"/>
<path opacity="0.4" d="M148.5 -19L60.5 34.5" stroke="#19E58C"/>
<path d="M295.5 0.499974L237 34M0.500023 0L74.5836 42.5271L148.5 85.5L222.417 42.5271L237 34M237 34L148.5 -19" stroke="#19E58C"/>
<path d="M222.163 116.096L222.17 116.092L296.521 73.9599L295.833 -11.496L295.833 -11.5041L296.521 -96.96L222.17 -139.092L222.163 -139.096L148.5 -182.42L74.837 -139.096L74.83 -139.092L0.476647 -96.9586L0.476685 -10.5L0.476662 73.9586L74.83 116.092L74.8301 116.092L74.837 116.096L148.5 159.42L222.163 116.096Z" stroke="#19E58C"/>
<path d="M2.50003 203L75.5 160L2.30429e-05 117.5" stroke="#19E58C"/>
</g>
</svg>
