<svg width="263" height="203" viewBox="0 0 263 203" fill="none" xmlns="http://www.w3.org/2000/svg">
<mask id="mask0_15_188" style="mask-type:alpha" maskUnits="userSpaceOnUse" x="0" y="0" width="263" height="203">
<rect x="263" y="203" width="263" height="203" transform="rotate(-180 263 203)" fill="#D9D9D9"/>
</mask>
<g mask="url(#mask0_15_188)">
<path d="M-33.5 74L27 33.5" stroke="#D8D8D8"/>
<path d="M-12.5 60L114.5 132.5L114.5 159.5L-33.5 73.5L-12.5 60Z" fill="#F2F2F4"/>
<path d="M40.8371 42.0961L40.8307 42.0925L-32.8329 0.209096L-32.8329 -85.5L-32.833 -85.5041L-33.5209 -170.96L40.8301 -213.092L40.8371 -213.096L114.5 -256.42L188.163 -213.096L188.17 -213.092L262.521 -170.96L261.833 -85.504L261.833 -85.496L262.521 -0.0400315L188.17 42.0921L188.17 42.0921L188.163 42.0961L114.5 85.4199L40.8371 42.0961Z" stroke="#19E58C"/>
<path opacity="0.4" d="M114.5 159.5L114.5 -239.5" stroke="#19E58C"/>
<path opacity="0.4" d="M114.5 -19L202.5 34.5" stroke="#19E58C"/>
<path d="M-32.5 0.499974L26 34M262.5 0L188.416 42.5271L114.5 85.5L40.5835 42.5271L26 34M26 34L114.5 -19" stroke="#19E58C"/>
<path d="M40.837 116.096L40.83 116.092L-33.521 73.9599L-32.8329 -11.496L-32.833 -11.5041L-33.521 -96.96L40.8301 -139.092L40.837 -139.096L114.5 -182.42L188.163 -139.096L188.17 -139.092L262.523 -96.9586L262.523 -10.5L262.523 73.9586L188.17 116.092L188.17 116.092L188.163 116.096L114.5 159.42L40.837 116.096Z" stroke="#19E58C"/>
<path d="M260.5 203L187.5 160L263 117.5" stroke="#19E58C"/>
</g>
</svg>
