<svg width="40" height="40" viewBox="0 0 40 40" fill="none" xmlns="http://www.w3.org/2000/svg">
<path d="M20.6446 23.2403C18.9237 23.2443 17.4405 21.7762 17.4702 20.0229C17.5026 18.0972 18.9845 16.8155 20.6196 16.7999C22.3332 16.7835 23.7766 18.281 23.7782 20.0565C23.7798 21.7555 22.3223 23.2363 20.6446 23.2403Z" fill="url(#paint0_linear_138_556)"/>
<path d="M23.0789 25.6429C24.2943 25.6539 25.2918 26.5048 25.5435 27.7608C25.7977 29.0296 25.0237 30.3521 23.8059 30.7299C22.4182 31.1605 20.9568 30.2562 20.6553 28.7803C20.3777 27.4218 21.1934 26.0595 22.4888 25.7304C22.6806 25.6818 22.882 25.6713 23.0789 25.6429Z" fill="#19E58C"/>
<path d="M28.7924 13.3736C28.804 14.6044 27.8772 15.7075 26.791 15.9396C25.9245 16.1248 24.9195 15.7398 24.337 14.9503C23.3523 13.6156 23.857 11.8686 25.1806 11.1093C26.2148 10.5162 27.6336 10.8755 28.3039 11.8845C28.6081 12.3423 28.807 12.8359 28.7924 13.3736Z" fill="#19E58C"/>
<path d="M15.5024 11.7458C15.4774 10.3735 16.6222 9.1636 17.9727 9.13485C19.2489 9.1077 20.4403 10.3109 20.4641 11.651C20.4891 13.0586 19.3756 14.2465 18.027 14.2836C16.6739 14.3206 15.5095 13.0878 15.5024 11.7458Z" fill="url(#paint1_linear_138_556)"/>
<path d="M17.0861 26.2272C17.0434 27.3814 16.5103 28.2058 15.6133 28.6336C14.5775 29.1277 13.4849 28.8206 12.7823 27.9995C12.5558 27.7347 12.3826 27.4513 12.2769 27.0972C12.0715 26.4087 12.1023 25.7607 12.4215 25.1328C12.7631 24.4607 13.3026 24.028 14.0391 23.8085C15.3855 23.4073 16.8719 24.5766 17.0143 25.8344C17.032 25.9896 17.0704 26.1425 17.0861 26.2272Z" fill="url(#paint2_linear_138_556)"/>
<path d="M31.4067 21.952C31.4172 22.74 31.133 23.3612 30.6223 23.86C30.3825 24.0944 30.0734 24.2848 29.7618 24.4122C29.3791 24.5686 28.9598 24.6366 28.5387 24.5418C27.8186 24.3795 27.2526 23.9911 26.8775 23.353C26.5941 22.8706 26.4236 22.3525 26.4852 21.7789C26.5516 21.1605 26.7981 20.6172 27.2293 20.1805C27.5946 19.8103 28.0453 19.5663 28.5736 19.4787C29.7533 19.2832 30.7441 19.9899 31.179 20.9361C31.3325 21.2699 31.4373 21.6279 31.4067 21.952Z" fill="#19E58C"/>
<path d="M9.57764 17.5632C9.61048 16.5191 10.0974 15.7498 11.0034 15.2432C11.1228 15.1763 11.2964 15.1941 11.4004 15.1146C11.6628 14.9139 11.9549 14.9902 12.2373 14.978C12.5581 14.964 12.8385 15.1031 13.113 15.2445C13.7721 15.5841 14.1776 16.1268 14.4042 16.8281C14.7834 18.0012 14.1446 19.2056 13.3219 19.7034C12.2688 20.3408 11.2942 20.1819 10.3865 19.4037C10.1858 19.2316 10.0524 18.9794 9.89669 18.758C9.86151 18.7079 9.86064 18.633 9.84706 18.569C9.84093 18.5399 9.85421 18.4988 9.83845 18.481C9.60537 18.2163 9.58216 17.8945 9.57764 17.5632Z" fill="url(#paint3_linear_138_556)"/>
<path d="M22.9987 35.555C23.0125 34.3681 23.9154 33.4777 25.0932 33.4889C26.1665 33.4992 27.0959 34.4689 27.0802 35.5616C27.0644 36.6489 26.114 37.5935 25.0377 37.5916C23.9266 37.5899 22.9858 36.6502 22.9987 35.555Z" fill="#19E58C"/>
<path d="M31.3915 9.48421C30.2669 9.48057 29.3506 8.55976 29.3511 7.43316C29.3514 6.381 30.3123 5.40109 31.3684 5.4224C32.5605 5.44648 33.4021 6.40187 33.4125 7.46527C33.423 8.5402 32.4617 9.48772 31.3915 9.48421Z" fill="#19E58C"/>
<path d="M17.8844 4.19978C17.956 5.12482 17.0396 6.19318 15.8908 6.19289C14.8203 6.1926 13.8669 5.32375 13.8716 4.14286C13.8758 3.07523 14.7885 2.14859 15.8656 2.14231C16.9923 2.1356 17.8784 3.03859 17.8844 4.19978Z" fill="url(#paint4_linear_138_556)"/>
<path d="M9.10589 33.7553C7.96295 33.7665 7.07455 32.7075 7.09761 31.7328C7.12446 30.6002 8.06293 29.7107 9.12559 29.7194C10.241 29.7286 11.1486 30.6414 11.1463 31.775C11.1442 32.8285 10.1719 33.7656 9.10589 33.7553Z" fill="url(#paint5_linear_138_556)"/>
<path d="M33.9948 24.1313C33.9528 23.0124 35.0592 22.1059 35.9665 22.1322C37.1673 22.1671 37.9939 23.0265 38 24.149C38.007 25.4176 37.0064 26.152 35.983 26.1708C34.9269 26.1902 33.9853 25.2518 33.9948 24.1313Z" fill="#19E58C"/>
<path d="M4.87691 18.1591C4.15387 18.101 3.59634 17.6953 3.21015 17.0502C3.10142 16.8686 3.0518 16.6407 3.01823 16.4273C2.92423 15.8292 3.10419 15.2935 3.48396 14.8379C3.85351 14.3945 4.7333 13.959 5.44729 14.1868C6.12012 14.4015 6.58936 14.7871 6.8655 15.431C7.2203 16.2587 6.86185 17.3023 6.12888 17.7782C5.82414 17.9761 5.50611 18.0881 5.16225 18.1569C5.08664 18.1721 5.00535 18.1591 4.87691 18.1591Z" fill="url(#paint6_linear_138_556)"/>
<defs>
<linearGradient id="paint0_linear_138_556" x1="17.9533" y1="17.8791" x2="22.954" y2="22.1897" gradientUnits="userSpaceOnUse">
<stop stop-color="#26289F"/>
<stop offset="1" stop-color="#2442BA"/>
</linearGradient>
<linearGradient id="paint1_linear_138_556" x1="15.8823" y1="9.99751" x2="19.8709" y2="13.3798" gradientUnits="userSpaceOnUse">
<stop stop-color="#26289F"/>
<stop offset="1" stop-color="#2442BA"/>
</linearGradient>
<linearGradient id="paint2_linear_138_556" x1="12.5256" y1="24.5902" x2="16.5066" y2="27.9547" gradientUnits="userSpaceOnUse">
<stop stop-color="#26289F"/>
<stop offset="1" stop-color="#2442BA"/>
</linearGradient>
<linearGradient id="paint3_linear_138_556" x1="9.9562" y1="15.8324" x2="13.9252" y2="19.1985" gradientUnits="userSpaceOnUse">
<stop stop-color="#26289F"/>
<stop offset="1" stop-color="#2442BA"/>
</linearGradient>
<linearGradient id="paint4_linear_138_556" x1="14.1795" y1="2.82113" x2="17.33" y2="5.57056" gradientUnits="userSpaceOnUse">
<stop stop-color="#26289F"/>
<stop offset="1" stop-color="#2442BA"/>
</linearGradient>
<linearGradient id="paint5_linear_138_556" x1="7.40754" y1="30.3958" x2="10.5515" y2="33.1716" gradientUnits="userSpaceOnUse">
<stop stop-color="#26289F"/>
<stop offset="1" stop-color="#2442BA"/>
</linearGradient>
<linearGradient id="paint6_linear_138_556" x1="3.30103" y1="14.8014" x2="6.44377" y2="17.5465" gradientUnits="userSpaceOnUse">
<stop stop-color="#26289F"/>
<stop offset="1" stop-color="#2442BA"/>
</linearGradient>
</defs>
</svg>
