<svg width="40" height="40" viewBox="0 0 40 40" fill="none" xmlns="http://www.w3.org/2000/svg">
<path d="M2.42015 12.5469H1.16468C-0.388812 12.6046 -0.38764 14.834 1.16468 14.8911H2.42015C3.97364 14.8335 3.97247 12.6041 2.42015 12.5469ZM32.5507 14.8911H33.8061C35.3596 14.8335 35.3584 12.6041 33.8061 12.5469H32.5507C30.9972 12.6046 30.9984 14.8341 32.5507 14.8911ZM17.4854 3.59224C18.1327 3.59224 18.6575 3.06745 18.6575 2.42015V1.16468C18.5999 -0.388812 16.3705 -0.38764 16.3133 1.16468V2.42015C16.3133 3.06745 16.8381 3.59224 17.4854 3.59224ZM7.01522 4.10226L5.75983 2.84679C5.30209 2.38913 4.56 2.38905 4.10226 2.84679C3.64451 3.30453 3.64451 4.04662 4.10226 4.50436L5.35764 5.75983C5.81546 6.21765 6.55755 6.21741 7.01522 5.75983C7.47296 5.30209 7.47296 4.56 7.01522 4.10226ZM29.6132 5.75983L30.8685 4.50436C31.3263 4.04662 31.3263 3.30453 30.8685 2.84679C30.4109 2.38913 29.6687 2.38905 29.211 2.84679L27.9556 4.10226C27.4978 4.56 27.4978 5.30209 27.9556 5.75983C28.4134 6.21765 29.1556 6.21749 29.6132 5.75983ZM17.5687 30.667V28.2701C17.5687 27.1062 18.1621 26.0633 19.0764 25.4498C18.8638 24.3696 19.1818 23.2125 20.0047 22.3896L22.3897 20.0047C23.1807 19.2046 24.3482 18.8526 25.45 19.0761C26.0636 18.162 27.1064 17.5687 28.2701 17.5687H28.6998C28.7516 11.3561 23.6975 6.26695 17.4854 6.26977C6.53036 6.63405 2.75083 19.1797 10.0986 26.0534C11.467 27.5948 12.5479 28.8124 12.5469 30.667H17.5687V30.667ZM29.9564 27.99C28.8721 27.99 27.9899 28.8722 27.9899 29.9565C28.0887 32.5618 31.8245 32.5611 31.923 29.9565C31.923 28.8722 31.0408 27.99 29.9564 27.99Z" fill="white"/>
<path d="M39.0805 27.2286L37.8002 27.0687C37.7234 26.86 37.6381 26.6545 37.5447 26.4527L38.3371 25.4338C38.4941 25.2318 38.572 24.9795 38.5561 24.7242C38.5402 24.4688 38.4316 24.2281 38.2508 24.0472L35.8656 21.6622C35.6847 21.4813 35.444 21.3727 35.1887 21.3568C34.9333 21.3409 34.681 21.4188 34.4791 21.5758L33.4601 22.3682C33.2583 22.2748 33.0529 22.1896 32.8442 22.1127L32.6843 20.8324C32.6526 20.5785 32.5293 20.345 32.3375 20.1756C32.1457 20.0063 31.8987 19.9128 31.6428 19.9128H28.2701C28.0142 19.9128 27.7672 20.0063 27.5754 20.1756C27.3836 20.3449 27.2603 20.5785 27.2286 20.8324L27.0687 22.1126C26.86 22.1895 26.6545 22.2748 26.4526 22.3681L25.4337 21.5757C25.2318 21.4187 24.9794 21.3408 24.7241 21.3567C24.4688 21.3726 24.2281 21.4812 24.0472 21.6621L21.6621 24.0471C21.4812 24.228 21.3726 24.4687 21.3567 24.724C21.3408 24.9794 21.4187 25.2317 21.5758 25.4336L22.3683 26.4526C22.2749 26.6544 22.1896 26.8599 22.1127 27.0685L20.8324 27.2284C20.5785 27.2601 20.345 27.3835 20.1756 27.5753C20.0063 27.7671 19.9128 28.0141 19.9128 28.2699V31.6427C19.9128 31.8985 20.0063 32.1456 20.1756 32.3373C20.345 32.5291 20.5785 32.6525 20.8324 32.6842L22.1126 32.8441C22.1895 33.0528 22.2748 33.2583 22.3682 33.4601L21.5758 34.479C21.4187 34.6809 21.3408 34.9332 21.3567 35.1886C21.3726 35.4439 21.4812 35.6846 21.6621 35.8655L24.0472 38.2505C24.2281 38.4315 24.4688 38.5401 24.7241 38.556C24.9794 38.5719 25.2318 38.494 25.4337 38.3369L26.4527 37.5445C26.6546 37.6378 26.86 37.7231 27.0687 37.8L27.2286 39.0802C27.2603 39.3341 27.3836 39.5677 27.5754 39.737C27.7672 39.9063 28.0142 39.9998 28.2701 39.9998H31.6428C31.8987 39.9998 32.1457 39.9063 32.3375 39.737C32.5293 39.5676 32.6526 39.3341 32.6843 39.0802L32.8442 37.8C33.0529 37.7231 33.2584 37.6379 33.4602 37.5445L34.4791 38.3368C34.681 38.4939 34.9333 38.5718 35.1887 38.5559C35.444 38.54 35.6847 38.4314 35.8656 38.2505L38.2508 35.8653C38.4317 35.6845 38.5403 35.4437 38.5562 35.1884C38.5721 34.9331 38.4942 34.6807 38.3371 34.4788L37.5446 33.4599C37.638 33.2581 37.7232 33.0526 37.8002 32.844L39.0805 32.6841C39.3343 32.6524 39.5679 32.5291 39.7372 32.3373C39.9066 32.1455 40 31.8984 40 31.6426V28.2701C40 28.0143 39.9066 27.7672 39.7372 27.5754C39.5679 27.3837 39.3344 27.2603 39.0805 27.2286ZM29.9564 34.2671C27.5795 34.2671 25.6457 32.3333 25.6457 29.9564C25.8624 24.2455 34.0513 24.2471 34.2671 29.9565C34.2671 32.3334 32.3333 34.2671 29.9564 34.2671ZM19.0764 34.4632C18.5418 34.1037 18.1198 33.6003 17.8591 33.0112H12.5469V34.4339C12.5469 36.6263 14.1926 38.4403 16.3133 38.709V38.8279C16.3709 40.3814 18.6003 40.3802 18.6574 38.8279V38.709C19.317 38.6252 19.9481 38.3891 20.5007 38.0194L20.0046 37.5233C19.1818 36.7003 18.8638 35.5433 19.0764 34.4632Z" fill="white"/>
</svg>
