<svg width="38" height="40" viewBox="0 0 38 40" fill="none" xmlns="http://www.w3.org/2000/svg">
<path d="M37.1667 0.333359C37 0.166641 36.8334 0 36.5001 0H1.50003C1.33339 0 1.00011 0.166641 0.833389 0.333359C0.66667 0.500078 0.666748 0.666719 0.666748 1L4.00011 34.3334C4.00011 34.6667 4.33347 35 4.50003 35L19.5 40H20.1667L33.5 35C33.8334 34.8334 33.9999 34.6666 33.9999 34.3334L37.3333 1C37.3335 0.833438 37.3335 0.5 37.1667 0.333359ZM19.0001 30.1667C19.0001 30.3334 18.8334 30.6667 18.6667 30.8334C18.5001 31 18.3235 31.0221 18.157 31.0221L18.0002 31L12.1668 29.3334C11.8335 29.1667 11.6669 29 11.5002 28.6667L10.6668 24.5C10.5002 24.0001 10.8335 23.6666 11.3335 23.5C11.8334 23.3334 12.1668 23.6666 12.3335 24.1666L13.0002 27.8333L17.3335 29V10.1667H8.16675C7.66683 10.1667 7.33339 9.83336 7.33339 9.33336C7.33339 8.83344 7.66675 8.5 8.16675 8.5H18.1667C18.6667 8.5 19.0001 8.83336 19.0001 9.33336V30.1667ZM30.6667 9.5L29.8334 12.8334C29.6667 13.3333 29.327 13.5802 28.8334 13.5C28.3132 13.4156 28.114 12.9973 28.1667 12.4999C28.2296 11.9066 28.6667 10.1666 28.6667 10.1666H22.1667V18.5H28C28.1667 18.5 28.5 18.6666 28.6667 18.8334C28.8333 19 28.8333 19.3333 28.8333 19.5L27.1667 28.6666C27.1667 29 26.8333 29.1666 26.6667 29.3333L21.6667 30.9999C21.5001 30.9999 20.8946 31.2304 20.5 30.5C20.3334 30.0001 20.6667 29.6666 21 29.4999L25.4999 27.9999L26.8333 20.3332H21.1666C20.6667 20.3332 20.3332 19.9998 20.3332 19.4998V9.49984C20.3332 8.99992 20.6666 8.66648 21.1666 8.66648H29.4999C29.8333 8.66648 30.0614 8.73773 30.2792 8.82797C30.7414 9.01945 30.6667 9.33336 30.6667 9.5Z" fill="url(#paint0_linear_151_192)"/>
<defs>
<linearGradient id="paint0_linear_151_192" x1="3.47734" y1="6.70376" x2="34.1676" y2="31.4616" gradientUnits="userSpaceOnUse">
<stop stop-color="#26289F"/>
<stop offset="1" stop-color="#2442BA"/>
</linearGradient>
</defs>
</svg>
