<svg width="30" height="40" viewBox="0 0 30 40" fill="none" xmlns="http://www.w3.org/2000/svg">
<path d="M14.8019 7.4115C12.9536 8.71143 10.8588 10.1849 9.73645 12.6225C7.78695 16.8751 13.7257 21.514 13.9795 21.7094C14.0386 21.755 14.1115 21.779 14.1861 21.7775C14.2608 21.7759 14.3327 21.749 14.3899 21.7011C14.4472 21.6532 14.4864 21.5872 14.501 21.514C14.5156 21.4408 14.5049 21.3648 14.4705 21.2985C14.449 21.2571 12.3173 17.1165 12.3965 14.1459C12.4246 13.1114 13.8724 11.9378 15.4053 10.6952C16.8092 9.55707 18.4006 8.2671 19.3317 6.75812C21.3758 3.43656 19.1039 0.170473 19.0807 0.137948C19.0369 0.0766437 18.9733 0.0322845 18.9007 0.0123273C18.828 -0.00762991 18.7507 -0.0019683 18.6818 0.0283604C18.6128 0.0586892 18.5564 0.111836 18.522 0.178867C18.4876 0.245898 18.4773 0.322727 18.4929 0.396439C18.4975 0.417948 18.9393 2.57781 17.7099 4.80298C17.2033 5.72246 16.0905 6.50527 14.8019 7.4115Z" fill="#19E58C"/>
<path d="M22.5888 8.87625C22.6519 8.82876 22.6958 8.76007 22.7123 8.68281C22.7288 8.60555 22.7169 8.52493 22.6787 8.45577C22.6405 8.38661 22.5786 8.33356 22.5045 8.30638C22.4303 8.27921 22.3488 8.27973 22.2749 8.30786C21.961 8.42721 14.5862 11.2698 14.5862 14.7047C14.5862 17.0723 15.5976 18.3232 16.3361 19.2366C16.6258 19.5948 16.8759 19.9042 16.9582 20.1683C17.1902 20.9295 16.6406 22.3052 16.4095 22.771C16.3772 22.8362 16.3675 22.9103 16.3819 22.9816C16.3963 23.0529 16.434 23.1174 16.489 23.1649C16.5441 23.2124 16.6134 23.2403 16.6861 23.2441C16.7587 23.2479 16.8306 23.2275 16.8903 23.186C17.0171 23.0977 19.9893 20.9963 19.4562 18.4646C19.2576 17.5023 18.7847 16.7991 18.3674 16.1787C17.721 15.2175 17.2541 14.5231 17.9624 13.2406C18.7926 11.745 22.5509 8.90471 22.5888 8.87625Z" fill="#19E58C"/>
<path d="M3.39213 23.2994C3.2657 23.6778 3.32537 24.0535 3.56459 24.3857C4.36406 25.4955 7.19579 26.1068 11.5386 26.1068H11.5391C12.1276 26.1068 12.7488 26.0952 13.3851 26.0724C20.3285 25.8238 22.9038 23.6608 23.01 23.5688C23.0662 23.5202 23.1042 23.4539 23.1178 23.3808C23.1313 23.3078 23.1197 23.2322 23.0847 23.1667C23.0498 23.1011 22.9936 23.0494 22.9253 23.0199C22.8571 22.9905 22.7809 22.9851 22.7092 23.0046C20.2639 23.6723 15.6977 23.9093 12.5305 23.9093C8.98647 23.9093 7.18162 23.6541 6.73979 23.4656C6.96654 23.1543 8.36496 22.5983 10.0978 22.2575C10.178 22.2421 10.2495 22.1973 10.2984 22.1319C10.3473 22.0665 10.37 21.9852 10.3621 21.9039C10.3542 21.8226 10.3162 21.7472 10.2557 21.6925C10.1951 21.6377 10.1162 21.6076 10.0346 21.6079C9.01873 21.608 3.92459 21.6896 3.39213 23.2994ZM26.6259 21.0718C25.1938 21.0718 23.8357 21.7894 23.7786 21.82C23.7144 21.8546 23.6635 21.9096 23.6341 21.9764C23.6047 22.0431 23.5983 22.1177 23.616 22.1885C23.6338 22.2592 23.6745 22.322 23.7319 22.367C23.7894 22.412 23.8601 22.4366 23.933 22.4369C23.9635 22.437 26.9879 22.4617 27.2618 24.1897C27.5044 25.6804 24.4002 28.0959 23.1835 28.9009C23.12 28.943 23.0731 29.0061 23.051 29.0791C23.0289 29.1521 23.0329 29.2306 23.0625 29.3009C23.092 29.3713 23.1451 29.4291 23.2127 29.4645C23.2803 29.4999 23.3581 29.5106 23.4327 29.4948C23.7215 29.4332 30.4956 27.9405 29.7794 23.9962C29.3425 21.5791 27.8233 21.0718 26.6259 21.0718ZM21.9803 28.4182C21.9918 28.3564 21.9853 28.2925 21.9615 28.2342C21.9377 28.1759 21.8977 28.1257 21.8461 28.0896L20.2218 26.9519C20.1827 26.9245 20.1381 26.9061 20.091 26.8977C20.044 26.8894 19.9957 26.8914 19.9496 26.9036C19.9327 26.9081 18.234 27.3545 15.768 27.6283C14.7892 27.7381 13.6929 27.7961 12.5975 27.7961C10.132 27.7961 8.51998 27.5064 8.28523 27.2939C8.25415 27.2342 8.26398 27.2071 8.26949 27.192C8.31211 27.0733 8.5407 26.9323 8.68811 26.8766C8.76657 26.8476 8.83097 26.7897 8.86815 26.7148C8.90533 26.6399 8.91246 26.5536 8.8881 26.4736C8.86373 26.3936 8.80971 26.3259 8.73709 26.2844C8.66446 26.2429 8.57872 26.2307 8.49742 26.2504C6.86805 26.6436 6.07133 27.1935 6.1293 27.8846C6.23225 29.1099 9.07067 29.7389 11.4703 29.9053C11.8153 29.9289 12.1886 29.941 12.5792 29.941H12.5799C16.5701 29.941 21.6853 28.6891 21.7365 28.6763C21.7976 28.6613 21.8531 28.6289 21.8963 28.5831C21.9395 28.5374 21.9687 28.4801 21.9803 28.4182ZM9.73453 31.0484C9.79436 31.0094 9.83982 30.952 9.864 30.8848C9.88817 30.8176 9.88973 30.7444 9.86843 30.6762C9.82489 30.5361 9.69388 30.4442 9.54673 30.446C9.32837 30.4518 7.41008 30.5384 7.27579 31.7597C7.23513 32.1247 7.33966 32.4581 7.58661 32.7507C8.27539 33.5669 10.1345 34.0521 13.2695 34.234C13.6404 34.2561 14.017 34.2673 14.3893 34.2673C18.3749 34.2673 21.0591 33.0194 21.1715 32.9663C21.225 32.941 21.2706 32.9018 21.3036 32.8527C21.3366 32.8035 21.3557 32.7464 21.3588 32.6874C21.362 32.6283 21.3491 32.5695 21.3215 32.5171C21.294 32.4648 21.2528 32.4209 21.2023 32.39L19.1496 31.1369C19.0784 31.0937 18.9934 31.079 18.9118 31.0957C18.8988 31.0985 17.5955 31.3688 15.6285 31.6359C15.2564 31.6864 14.7903 31.7121 14.2434 31.7121C12.2785 31.7121 10.0931 31.3911 9.67394 31.181C9.66791 31.1415 9.67565 31.0917 9.73453 31.0484Z" fill="url(#paint0_linear_151_158)"/>
<path d="M12.5319 38.035C21.661 38.0273 26.5608 36.4038 27.5047 35.3822C27.8388 35.0206 27.8749 34.6784 27.8464 34.4549C27.7763 33.9049 27.2754 33.5683 27.2185 33.5317C27.0815 33.4435 26.8976 33.4666 26.7907 33.5899C26.6841 33.7133 26.6816 33.8934 26.7886 34.0165C26.8462 34.0906 26.8795 34.2145 26.7111 34.3831C26.3338 34.7355 22.5279 35.8052 16.1911 36.1265C15.3231 36.1718 14.4127 36.1946 13.4852 36.1947C7.81149 36.1947 3.65924 35.4177 3.1142 34.9647C3.32443 34.6629 4.79301 34.1806 6.35497 33.9079C6.44017 33.8938 6.51636 33.8467 6.567 33.7767C6.61764 33.7068 6.63865 33.6197 6.62545 33.5344C6.61225 33.449 6.56592 33.3723 6.49652 33.321C6.42712 33.2696 6.34025 33.2476 6.25478 33.2599C6.21071 33.2658 6.06134 33.275 5.88809 33.2855C3.31092 33.4429 0.332698 33.7937 0.177289 35.1214C0.130076 35.5262 0.250338 35.8934 0.534796 36.2131C1.23079 36.9951 3.23144 38.0349 12.5315 38.0349L12.5319 38.035Z" fill="url(#paint1_linear_151_158)"/>
<path d="M29.2979 35.67C29.2351 35.6409 29.1647 35.6325 29.0969 35.6458C29.029 35.6592 28.9671 35.6937 28.92 35.7444C28.9065 35.7588 27.5341 37.1941 23.4073 38.0368C21.8273 38.3534 18.8617 38.5139 14.5927 38.5139C10.3158 38.5139 6.24614 38.3457 6.20548 38.344C6.12392 38.3401 6.04389 38.367 5.98121 38.4194C5.91854 38.4717 5.87778 38.5457 5.86699 38.6266C5.85581 38.7073 5.8751 38.7893 5.92109 38.8566C5.96709 38.9239 6.0365 38.9716 6.11578 38.9905C6.15814 39.0006 10.4232 39.9998 16.2548 39.9998C19.0517 39.9998 21.7734 39.7726 24.3444 39.3243C29.1383 38.4839 29.4739 36.1069 29.4858 36.0061C29.4939 35.9375 29.4801 35.868 29.4464 35.8076C29.4126 35.7472 29.3606 35.6991 29.2979 35.67Z" fill="url(#paint2_linear_151_158)"/>
<defs>
<linearGradient id="paint0_linear_151_158" x1="5.35914" y1="23.2833" x2="14.2379" y2="38.978" gradientUnits="userSpaceOnUse">
<stop stop-color="#26289F"/>
<stop offset="1" stop-color="#2442BA"/>
</linearGradient>
<linearGradient id="paint1_linear_151_158" x1="2.28958" y1="34.0574" x2="3.70639" y2="41.2819" gradientUnits="userSpaceOnUse">
<stop stop-color="#26289F"/>
<stop offset="1" stop-color="#2442BA"/>
</linearGradient>
<linearGradient id="paint2_linear_151_158" x1="7.67475" y1="36.3704" x2="9.04997" y2="42.9277" gradientUnits="userSpaceOnUse">
<stop stop-color="#26289F"/>
<stop offset="1" stop-color="#2442BA"/>
</linearGradient>
</defs>
</svg>
