<svg width="24" height="38" viewBox="0 0 24 38" fill="none" xmlns="http://www.w3.org/2000/svg">
<path d="M11.6751 14.893C11.9425 14.7098 12.207 14.5286 12.4716 14.3474C12.9739 14.0036 13.4757 13.659 13.9794 13.3172C14.0343 13.2799 14.0491 13.2474 14.0308 13.1817C13.4769 11.1885 14.1785 9.16078 15.8654 7.90547C16.6595 7.31452 17.5614 6.98954 18.5596 6.91823C21.0656 6.7392 23.3161 8.3845 23.8532 10.7134C24.2916 12.6141 23.7431 14.2476 22.2726 15.5662C21.4944 16.2639 20.5587 16.6678 19.507 16.7737C17.8059 16.9449 16.3641 16.4085 15.1847 15.201C15.1642 15.18 15.1462 15.1569 15.1218 15.1288C15.0165 15.2003 14.9186 15.2664 14.8212 15.333C14.1523 15.7907 13.4841 16.2495 12.8135 16.7048C12.7503 16.7477 12.7376 16.7841 12.7625 16.8545C13.0595 17.6928 13.1735 18.5545 13.0956 19.4387C13.0486 19.9723 12.931 20.4919 12.748 20.9969C12.7278 21.0527 12.7265 21.0867 12.7835 21.1259C13.5419 21.6462 14.2982 22.1693 15.0551 22.6916C15.0711 22.7027 15.0883 22.7121 15.12 22.7315C15.1376 22.7083 15.1532 22.6831 15.1732 22.6619C16.0064 21.785 17.0263 21.2421 18.2428 21.0883C19.7263 20.9007 21.0557 21.2801 22.2 22.2215C23.1713 23.0206 23.7641 24.044 23.9401 25.272C24.1618 26.8184 23.7295 28.1866 22.6511 29.3437C21.8514 30.2017 20.8517 30.7249 19.674 30.889C18.1666 31.099 16.8131 30.7273 15.6453 29.7714C14.695 28.9935 14.1183 27.9952 13.9092 26.8014C13.7862 26.0989 13.8241 25.4011 14.0204 24.7138C14.0446 24.6289 14.0318 24.5837 13.9547 24.531C13.2118 24.0232 12.4725 23.5106 11.732 22.9994C11.7052 22.9809 11.6772 22.964 11.6444 22.9429C10.5954 24.1638 9.27028 24.9182 7.65473 25.207C7.65307 25.2384 7.64962 25.2728 7.64962 25.3073C7.64934 26.2413 7.65034 27.1753 7.64762 28.1093C7.6474 28.1859 7.67255 28.21 7.74767 28.2305C9.78779 28.785 11.0957 30.0566 11.5292 32.0813C12.0763 34.6367 10.4802 37.1493 7.89708 37.8087C5.87907 38.3238 4.12864 37.7935 2.73341 36.28C1.74761 35.2107 1.36364 33.9238 1.51307 32.4952C1.72602 30.4593 3.2922 28.7216 5.32998 28.24C5.37513 28.2293 5.4196 28.2159 5.46709 28.2031C5.46709 27.205 5.46709 26.2102 5.46709 25.2148C5.24704 25.1635 5.02962 25.1177 4.81494 25.0618C2.49438 24.4582 0.620752 22.5457 0.150396 20.2483C-0.309239 18.0032 0.285579 16.0376 1.92231 14.3942C2.86116 13.4516 4.01566 12.8738 5.34028 12.6253C5.40535 12.6131 5.42832 12.5907 5.42816 12.5249C5.42617 11.6333 5.42545 10.7417 5.42908 9.85012C5.42942 9.76658 5.38459 9.75742 5.32319 9.74128C3.78814 9.33769 2.63083 8.45628 1.97503 7.04528C1.09415 5.15002 1.35071 3.35491 2.69862 1.74086C3.48182 0.802991 4.51816 0.226885 5.7471 0.0605868C7.86975 -0.226645 9.56557 0.509663 10.792 2.22155C11.4167 3.09343 11.6989 4.08772 11.6281 5.14756C11.4935 7.16522 10.4646 8.61095 8.5911 9.47418C8.30746 9.60486 7.99463 9.67656 7.69263 9.76699C7.62059 9.78856 7.60015 9.81568 7.60033 9.88562C7.60251 10.7545 7.60253 11.6235 7.60037 12.4924C7.60019 12.5655 7.61478 12.5973 7.69848 12.6124C9.27763 12.896 10.5836 13.6393 11.6165 14.8386C11.6272 14.851 11.6381 14.8633 11.6496 14.8752C11.654 14.8797 11.6602 14.8827 11.6751 14.893ZM3.12353 18.9047C3.12529 20.7567 4.66701 22.2579 6.56315 22.2538C8.45794 22.2496 9.99475 20.7514 9.99669 18.9063C9.99864 17.0589 8.45541 15.5523 6.55988 15.5511C4.66423 15.55 3.12176 17.0553 3.12353 18.9047ZM18.9234 9.45493C17.5636 9.4519 16.4616 10.5221 16.4563 11.8506C16.4511 13.1734 17.5531 14.2562 18.9106 14.2621C20.2678 14.2681 21.3853 13.1828 21.3861 11.8582C21.3868 10.5353 20.2828 9.45796 18.9234 9.45493ZM16.4563 25.9898C16.4526 27.3128 17.5559 28.3951 18.9127 28.3995C20.2665 28.4039 21.3788 27.3262 21.3861 26.0032C21.3933 24.6787 20.2835 23.593 18.9213 23.5919C17.5608 23.5909 16.4601 24.6617 16.4563 25.9898ZM9.02226 4.94738C9.02534 3.62108 7.92756 2.546 6.56561 2.54157C5.20805 2.53715 4.09849 3.61074 4.09251 4.93449C4.08654 6.2579 5.19861 7.34723 6.5574 7.34894C7.91306 7.35066 9.01917 6.27295 9.02226 4.94738ZM6.56222 30.6377C5.20616 30.6347 4.0968 31.7115 4.09251 33.0349C4.08823 34.358 5.2025 35.4463 6.56086 35.4457C7.91716 35.4451 9.0219 34.3659 9.02226 33.0412C9.02262 31.7145 7.92358 30.6407 6.56222 30.6377Z" fill="url(#paint0_linear_138_543)"/>
<defs>
<linearGradient id="paint0_linear_138_543" x1="1.83967" y1="6.36858" x2="27.1741" y2="20.4498" gradientUnits="userSpaceOnUse">
<stop stop-color="#26289F"/>
<stop offset="1" stop-color="#2442BA"/>
</linearGradient>
</defs>
</svg>
