 <svg width="78" height="38" viewBox="0 0 78 38" fill="none" xmlns="http://www.w3.org/2000/svg">
               <path d="M38.7855 4.86963L55.7272 28.9851L72.1929 0.27832H68.5702L55.6721 22.3434L40.304 0.27832H38.7855H37.2674L21.8993 22.3434L9.00119 0.27832H5.37854L21.8443 28.9851L38.7855 4.86963Z" fill="url(#paint0_linear_117_48)"/>
               <path d="M73.1804 0.27832L55.7547 30.4785L38.7855 6.20697L21.8167 30.4785L4.39052 0.27832H0L21.5149 37.7218L31.48 23.422L38.7855 12.938L46.0914 23.422L56.0565 37.7218L77.5714 0.27832H73.1804Z" fill="url(#paint1_linear_117_48)"/>
               <path d="M38.7855 23.2573H31.5948L29.6743 26.0137H38.7855H47.8971L45.9766 23.2573H38.7855Z" fill="url(#paint2_linear_117_48)"/>
               <defs>
                  <linearGradient id="paint0_linear_117_48" x1="10.5" y1="5.0894" x2="28.2691" y2="41.4853" gradientUnits="userSpaceOnUse">
                     <stop stop-color="#26289F"/>
                     <stop offset="1" stop-color="#2442BA"/>
                  </linearGradient>
                  <linearGradient id="paint1_linear_117_48" x1="5.94607" y1="6.55363" x2="30.7338" y2="51.7458" gradientUnits="userSpaceOnUse">
                     <stop stop-color="#26289F"/>
                     <stop offset="1" stop-color="#2442BA"/>
                  </linearGradient>
                  <linearGradient id="paint2_linear_117_48" x1="31.0711" y1="23.7193" x2="31.7936" y2="27.9228" gradientUnits="userSpaceOnUse">
                     <stop stop-color="#26289F"/>
                     <stop offset="1" stop-color="#2442BA"/>
                  </linearGradient>
               </defs>
            </svg>