<svg width="40" height="40" viewBox="0 0 40 40" fill="none" xmlns="http://www.w3.org/2000/svg">
<g clip-path="url(#clip0_23_447)">
<path d="M1.88411 13.2247H2.02179V14.9421H19.6377C19.5068 14.5586 19.4864 14.146 19.5786 13.7514C19.6709 13.3568 19.8721 12.996 20.1594 12.7102L22.5 10.3769C22.7259 10.1486 22.9998 9.97349 23.302 9.86443C23.6041 9.75537 23.9267 9.71508 24.2464 9.74649V8.17403C24.246 7.59759 24.0168 7.04487 23.6092 6.63727C23.2016 6.22967 22.6489 6.00051 22.0724 6.00012H1.88411C1.30808 6.00184 0.756142 6.23143 0.348828 6.63874C-0.0584863 7.04606 -0.288075 7.598 -0.289795 8.17403V11.0508C-0.288075 11.6269 -0.0584863 12.1788 0.348828 12.5861C0.756142 12.9934 1.30808 13.223 1.88411 13.2247ZM9.11597 8.88417C9.30816 8.88417 9.49247 8.96051 9.62836 9.09641C9.76426 9.23231 9.8406 9.41662 9.8406 9.6088C9.8406 9.80099 9.76426 9.9853 9.62836 10.1212C9.49247 10.2571 9.30816 10.3334 9.11597 10.3334C8.92378 10.3334 8.73947 10.2571 8.60358 10.1212C8.46768 9.9853 8.39133 9.80099 8.39133 9.6088C8.39133 9.41662 8.46768 9.23231 8.60358 9.09641C8.73947 8.96051 8.92378 8.88417 9.11597 8.88417ZM6.21743 8.88417C6.40961 8.88417 6.59393 8.96051 6.72982 9.09641C6.86572 9.23231 6.94206 9.41662 6.94206 9.6088C6.94206 9.80099 6.86572 9.9853 6.72982 10.1212C6.59393 10.2571 6.40961 10.3334 6.21743 10.3334C6.02524 10.3334 5.84093 10.2571 5.70503 10.1212C5.56914 9.9853 5.49279 9.80099 5.49279 9.6088C5.49279 9.41662 5.56914 9.23231 5.70503 9.09641C5.84093 8.96051 6.02524 8.88417 6.21743 8.88417ZM3.31889 8.88417C3.51107 8.88417 3.69539 8.96051 3.83128 9.09641C3.96718 9.23231 4.04352 9.41662 4.04352 9.6088C4.04352 9.80099 3.96718 9.9853 3.83128 10.1212C3.69539 10.2571 3.51107 10.3334 3.31889 10.3334C3.1267 10.3334 2.94239 10.2571 2.80649 10.1212C2.6706 9.9853 2.59425 9.80099 2.59425 9.6088C2.59425 9.41662 2.6706 9.23231 2.80649 9.09641C2.94239 8.96051 3.1267 8.88417 3.31889 8.88417ZM22.5 29.6232C22.1855 29.2544 19.9283 27.1783 19.7754 26.7754H1.88411C1.30808 26.7771 0.756142 27.0067 0.348828 27.414C-0.0584863 27.8214 -0.288075 28.3733 -0.289795 28.9493V31.8261C-0.288075 32.4021 -0.0584863 32.9541 0.348828 33.3614C0.756142 33.7687 1.30808 33.9983 1.88411 34H22.0724C22.6489 33.9996 23.2016 33.7705 23.6092 33.3629C24.0168 32.9553 24.246 32.4026 24.2464 31.8261V30.2537C23.9267 30.2851 23.6041 30.2448 23.302 30.1357C22.9998 30.0267 22.7259 29.8516 22.5 29.6232ZM3.31889 31.116C3.1267 31.116 2.94239 31.0396 2.80649 30.9037C2.6706 30.7678 2.59425 30.5835 2.59425 30.3913C2.59425 30.1992 2.6706 30.0148 2.80649 29.8789C2.94239 29.7431 3.1267 29.6667 3.31889 29.6667C3.51107 29.6667 3.69539 29.7431 3.83128 29.8789C3.96718 30.0148 4.04352 30.1992 4.04352 30.3913C4.04352 30.5835 3.96718 30.7678 3.83128 30.9037C3.69539 31.0396 3.51107 31.116 3.31889 31.116ZM6.21743 31.116C6.02524 31.116 5.84093 31.0396 5.70503 30.9037C5.56914 30.7678 5.49279 30.5835 5.49279 30.3913C5.49279 30.1992 5.56914 30.0148 5.70503 29.8789C5.84093 29.7431 6.02524 29.6667 6.21743 29.6667C6.40961 29.6667 6.59393 29.7431 6.72982 29.8789C6.86572 30.0148 6.94206 30.1992 6.94206 30.3913C6.94206 30.5835 6.86572 30.7678 6.72982 30.9037C6.59393 31.0396 6.40961 31.116 6.21743 31.116ZM9.11597 31.116C8.92378 31.116 8.73947 31.0396 8.60358 30.9037C8.46768 30.7678 8.39133 30.5835 8.39133 30.3913C8.39133 30.1992 8.46768 30.0148 8.60358 29.8789C8.73947 29.7431 8.92378 29.6667 9.11597 29.6667C9.30816 29.6667 9.49247 29.7431 9.62836 29.8789C9.76426 30.0148 9.8406 30.1992 9.8406 30.3913C9.8406 30.5835 9.76426 30.7678 9.62836 30.9037C9.49247 31.0396 9.30816 31.116 9.11597 31.116ZM1.88411 23.6088H2.02179V25.3261H19.5652C19.639 24.9755 19.7955 24.6475 20.0217 24.3696L20.4203 23.8841L19.7826 23.8189C19.2451 23.7665 18.7466 23.5153 18.3847 23.1145C18.0227 22.7138 17.8235 22.1923 17.8261 21.6522V18.3479C17.8242 17.9402 17.9374 17.5403 18.1528 17.1942C18.3681 16.848 18.6769 16.5698 19.0435 16.3914H1.88411C1.30767 16.3918 0.754954 16.6209 0.347351 17.0285C-0.0602519 17.4361 -0.289411 17.9889 -0.289795 18.5653V21.4349C-0.289411 22.0113 -0.0602519 22.564 0.347351 22.9716C0.754954 23.3792 1.30767 23.6084 1.88411 23.6088ZM9.11597 19.2754C9.30816 19.2754 9.49247 19.3518 9.62836 19.4877C9.76426 19.6236 9.8406 19.8079 9.8406 20.0001C9.8406 20.1923 9.76426 20.3766 9.62836 20.5125C9.49247 20.6484 9.30816 20.7247 9.11597 20.7247C8.92378 20.7247 8.73947 20.6484 8.60358 20.5125C8.46768 20.3766 8.39133 20.1923 8.39133 20.0001C8.39133 19.8079 8.46768 19.6236 8.60358 19.4877C8.73947 19.3518 8.92378 19.2754 9.11597 19.2754ZM6.21743 19.2754C6.40961 19.2754 6.59393 19.3518 6.72982 19.4877C6.86572 19.6236 6.94206 19.8079 6.94206 20.0001C6.94206 20.1923 6.86572 20.3766 6.72982 20.5125C6.59393 20.6484 6.40961 20.7247 6.21743 20.7247C6.02524 20.7247 5.84093 20.6484 5.70503 20.5125C5.56914 20.3766 5.49279 20.1923 5.49279 20.0001C5.49279 19.8079 5.56914 19.6236 5.70503 19.4877C5.84093 19.3518 6.02524 19.2754 6.21743 19.2754ZM3.31889 19.2754C3.51107 19.2754 3.69539 19.3518 3.83128 19.4877C3.96718 19.6236 4.04352 19.8079 4.04352 20.0001C4.04352 20.1923 3.96718 20.3766 3.83128 20.5125C3.69539 20.6484 3.51107 20.7247 3.31889 20.7247C3.1267 20.7247 2.94239 20.6484 2.80649 20.5125C2.6706 20.3766 2.59425 20.1923 2.59425 20.0001C2.59425 19.8079 2.6706 19.6236 2.80649 19.4877C2.94239 19.3518 3.1267 19.2754 3.31889 19.2754Z" fill="white"/>
<path d="M39.6376 17.6232L37.971 17.4565C37.8163 17.4291 37.671 17.3632 37.5486 17.2647C37.4261 17.1663 37.3305 17.0385 37.2706 16.8933C37.2106 16.7481 37.1882 16.5901 37.2055 16.434C37.2228 16.2779 37.2792 16.1286 37.3695 16L38.4275 14.7102C38.5423 14.5719 38.6015 14.3958 38.5934 14.2163C38.5854 14.0367 38.5107 13.8666 38.384 13.7392L36.0434 11.3986C35.916 11.2719 35.7459 11.1972 35.5663 11.1892C35.3868 11.1811 35.2107 11.2403 35.0724 11.3551L33.7753 12.4131C33.6467 12.5011 33.4982 12.5556 33.3432 12.5717C33.1882 12.5878 33.0316 12.565 32.8876 12.5052C32.7437 12.4455 32.617 12.3508 32.5189 12.2297C32.4208 12.1085 32.3545 11.9649 32.326 11.8116L32.1594 10.145C32.1414 9.96561 32.0571 9.79941 31.9231 9.67882C31.7891 9.55822 31.615 9.4919 31.4347 9.49281H28.1304C27.9501 9.4919 27.776 9.55822 27.642 9.67882C27.508 9.79941 27.4238 9.96561 27.4058 10.145L27.2391 11.8116C27.2106 11.9649 27.1443 12.1085 27.0463 12.2297C26.9482 12.3508 26.8215 12.4455 26.6775 12.5052C26.5336 12.565 26.377 12.5878 26.222 12.5717C26.067 12.5556 25.9184 12.5011 25.7898 12.4131L24.4927 11.3551C24.3545 11.2403 24.1784 11.1811 23.9988 11.1892C23.8193 11.1972 23.6492 11.2719 23.5217 11.3986L21.1812 13.7392C21.0544 13.8666 20.9798 14.0367 20.9717 14.2163C20.9637 14.3958 21.0228 14.5719 21.1377 14.7102L22.1956 16.0073C22.2839 16.1358 22.3386 16.2844 22.3547 16.4395C22.3709 16.5945 22.3481 16.7512 22.2884 16.8952C22.2286 17.0392 22.1338 17.166 22.0126 17.264C21.8913 17.362 21.7475 17.4282 21.5942 17.4565L19.9275 17.6232C19.7482 17.6412 19.582 17.7255 19.4614 17.8595C19.3408 17.9935 19.2745 18.1676 19.2754 18.3478V21.6522C19.2745 21.8324 19.3408 22.0066 19.4614 22.1406C19.582 22.2746 19.7482 22.3588 19.9275 22.3768L21.5942 22.5435C21.7481 22.5723 21.8923 22.6391 22.0138 22.7377C22.1354 22.8364 22.2303 22.9639 22.29 23.1086C22.3498 23.2533 22.3725 23.4106 22.356 23.5663C22.3395 23.7219 22.2844 23.871 22.1956 24L21.1377 25.2899C21.0228 25.4281 20.9637 25.6042 20.9717 25.7838C20.9798 25.9633 21.0544 26.1334 21.1812 26.2609L23.5217 28.6014C23.6492 28.7282 23.8193 28.8028 23.9988 28.8109C24.1784 28.8189 24.3545 28.7597 24.4927 28.6449L25.7898 27.5869C25.9184 27.4989 26.067 27.4444 26.222 27.4283C26.377 27.4122 26.5336 27.4351 26.6775 27.4948C26.8215 27.5545 26.9482 27.6493 27.0463 27.7704C27.1443 27.8915 27.2106 28.0352 27.2391 28.1884L27.4058 29.8551C27.4238 30.0344 27.508 30.2006 27.642 30.3212C27.776 30.4418 27.9501 30.5081 28.1304 30.5072H31.4347C31.615 30.5081 31.7891 30.4418 31.9231 30.3212C32.0571 30.2006 32.1414 30.0344 32.1594 29.8551L32.326 28.1884C32.3499 28.0288 32.4163 27.8787 32.5183 27.7537C32.6204 27.6287 32.7542 27.5336 32.9058 27.4783C33.0475 27.4184 33.2025 27.3969 33.3551 27.416C33.5078 27.435 33.6527 27.494 33.7753 27.5869L35.0724 28.6449C35.2107 28.7597 35.3868 28.8189 35.5663 28.8109C35.7459 28.8028 35.916 28.7282 36.0434 28.6014L38.384 26.2609C38.5107 26.1334 38.5854 25.9633 38.5934 25.7838C38.6015 25.6042 38.5423 25.4281 38.4275 25.2899L37.3695 23.9928C37.2813 23.8642 37.2266 23.7156 37.2104 23.5606C37.1942 23.4055 37.217 23.2489 37.2768 23.1048C37.3366 22.9608 37.4314 22.8341 37.5526 22.736C37.6738 22.638 37.8176 22.5718 37.971 22.5435L39.6376 22.3768C39.817 22.3588 39.9832 22.2746 40.1038 22.1406C40.2244 22.0066 40.2907 21.8324 40.2898 21.6522V18.3478C40.2907 18.1676 40.2244 17.9935 40.1038 17.8595C39.9832 17.7255 39.817 17.6412 39.6376 17.6232ZM29.7826 23.6232C24.9935 23.4739 24.9949 16.5254 29.7826 16.3768C34.5717 16.5261 34.5702 23.4746 29.7826 23.6232Z" fill="white"/>
</g>
<defs>
<clipPath id="clip0_23_447">
<rect width="40" height="40" fill="white"/>
</clipPath>
</defs>
</svg>
