<svg width="19" height="40" viewBox="0 0 19 40" fill="none" xmlns="http://www.w3.org/2000/svg">
<path d="M9.41117 0.107178L10.4583 2.07387C10.6937 2.4368 10.9487 2.75804 11.2491 3.05721C12.1298 3.92693 12.9507 4.85517 13.7063 5.83559C15.4804 8.16521 16.6771 10.7523 17.5317 13.5503C18.0443 15.2595 18.3226 17.0129 18.3434 18.7858C18.4292 24.0863 16.6121 28.6377 12.9485 32.4202C12.3526 33.0201 11.7088 33.5704 11.0235 34.0657C10.6606 34.0657 10.4889 33.7873 10.3393 33.5311C10.0669 33.0559 9.88563 32.534 9.80475 31.9923C9.67601 31.351 9.59141 30.7098 9.6331 30.0477V29.7485C9.60367 29.6848 9.28365 0.25799 9.41117 0.107178Z" fill="#19E58C"/>
<path d="M9.41119 0.0421821C9.36828 -0.043646 9.32537 0.0213381 9.28245 0.063026C9.3033 0.492166 9.15371 0.874714 8.91952 1.2401C8.66204 1.60303 8.32118 1.88135 7.97909 2.18053C6.07861 3.82597 4.58275 5.81351 3.38484 8.03645C1.79089 11.0282 0.969388 14.2345 0.736426 17.61C0.629754 18.8275 1.12143 23.1238 1.5052 24.3634C2.5523 27.6543 4.43316 30.4118 6.86946 32.8052C7.4678 33.3815 8.10783 33.9161 8.76993 34.4298C8.96243 34.4298 8.98328 34.2582 9.02742 34.1306C9.11182 33.8578 9.17615 33.5791 9.21992 33.2969L9.64906 30.0918L9.41119 0.0421821Z" fill="url(#paint0_linear_151_238)"/>
<path d="M10.4583 35.3678C10.5012 34.8773 10.7366 34.4703 10.9929 34.0644C10.7354 33.9578 10.5441 33.7456 10.3946 33.509C10.2656 33.2849 10.1588 33.0488 10.0758 32.804C9.7766 31.9065 9.71284 30.9648 9.62701 30.0477V29.4922C9.52034 29.5781 9.49827 30.3039 9.49827 30.4118C9.43588 31.3812 9.30724 32.3451 9.11327 33.2969C9.04951 33.6819 9.0066 34.0657 8.76996 34.4077C8.76996 34.4507 8.76996 34.4936 8.7908 34.5573C9.1758 35.6903 9.28125 36.844 9.34623 38.0199V38.449C9.34623 38.9615 9.32539 38.8536 9.75085 39.0253C9.92251 39.0891 10.1138 39.1111 10.2854 39.2386C10.4142 39.2386 10.435 39.132 10.435 39.0461L10.3713 38.3411V36.3744C10.3504 36.0311 10.4142 35.6903 10.4571 35.369L10.4583 35.3678Z" fill="#8B849B"/>
<defs>
<linearGradient id="paint0_linear_151_238" x1="1.40593" y1="5.77023" x2="13.1305" y2="8.44565" gradientUnits="userSpaceOnUse">
<stop stop-color="#26289F"/>
<stop offset="1" stop-color="#2442BA"/>
</linearGradient>
</defs>
</svg>
