<svg width="40" height="39" viewBox="0 0 40 39" fill="none" xmlns="http://www.w3.org/2000/svg">
<path d="M32.792 26.1804C32.0888 24.5982 29.1002 22.3128 26.4632 20.2032C25.0568 18.9725 23.6504 17.9177 22.5956 17.0387C22.4198 17.2144 22.0682 17.2144 22.0682 17.3903C21.5408 17.5661 21.365 17.7419 20.6617 17.7419C19.2554 19.4999 17.4973 20.2031 15.5636 19.4999C14.6845 19.3241 14.1571 18.6209 13.9814 17.9177C13.6297 16.1597 15.2119 13.6985 16.4426 12.4679H12.9266C12.2234 15.9839 10.9927 20.5547 10.1138 23.0159C10.8169 23.7191 11.5202 24.5982 12.0476 24.9498C15.3878 27.7626 19.2555 30.5754 19.9586 31.1028C20.486 31.4545 21.5409 31.806 22.0683 31.806H22.5957L19.7828 28.9932C19.4312 28.6415 19.4312 28.1141 19.7828 27.7626C20.1344 27.411 20.6618 27.4109 21.0134 27.7626L24.5294 31.2786C24.881 31.6302 25.2326 31.4544 25.5842 31.4544C26.1116 31.2786 26.2874 30.927 26.4633 30.3996L22.4198 26.3561C22.0682 26.0045 22.0682 25.4771 22.4198 25.1256C22.7714 24.774 23.2988 24.7739 23.6504 25.1256L28.0454 29.5206C28.2212 29.6963 28.9244 29.6963 29.4518 29.5206C29.6276 29.3448 29.9792 29.1689 30.155 28.8174L25.2326 23.8949C24.881 23.5433 24.881 23.0159 25.2326 22.6643C25.5842 22.3128 26.1116 22.3127 26.4632 22.6643L31.5614 27.7626C31.9131 27.9383 32.2646 27.7626 32.6162 27.5868C32.792 27.4109 33.1436 26.8835 32.792 26.1804Z" fill="url(#paint0_linear_138_488)"/>
<circle cx="20.7569" cy="19.7567" r="19.2433" fill="url(#paint1_linear_138_488)"/>
<path d="M16.8744 15.0497V24.7386H15.105L10.8898 18.6405H10.8188V24.7386H8.77033V15.0497H10.5681L14.7502 21.1432H14.8354V15.0497H16.8744ZM18.5669 24.7386V15.0497H22.3894C23.1243 15.0497 23.7504 15.1901 24.2676 15.4708C24.7849 15.7483 25.1791 16.1347 25.4503 16.6299C25.7247 17.1219 25.8619 17.6896 25.8619 18.333C25.8619 18.9764 25.7232 19.5441 25.4456 20.0361C25.1681 20.5281 24.7659 20.9113 24.2392 21.1857C23.7157 21.4601 23.0817 21.5973 22.3374 21.5973H19.901V19.9557H22.0062C22.4005 19.9557 22.7253 19.8879 22.9808 19.7523C23.2394 19.6135 23.4318 19.4227 23.558 19.1798C23.6873 18.9338 23.7519 18.6515 23.7519 18.333C23.7519 18.0113 23.6873 17.7306 23.558 17.4909C23.4318 17.248 23.2394 17.0604 22.9808 16.9279C22.7222 16.7923 22.3942 16.7245 21.9968 16.7245H20.6154V24.7386H18.5669ZM27.1925 24.7386V15.0497H29.241V23.0497H33.3947V24.7386H27.1925Z" fill="#19E58C"/>
<defs>
<linearGradient id="paint0_linear_138_488" x1="11.8637" y1="15.7089" x2="27.0335" y2="31.4686" gradientUnits="userSpaceOnUse">
<stop stop-color="#26289F"/>
<stop offset="1" stop-color="#2442BA"/>
</linearGradient>
<linearGradient id="paint1_linear_138_488" x1="4.46377" y1="6.96354" x2="34.4316" y2="33.3364" gradientUnits="userSpaceOnUse">
<stop stop-color="#26289F"/>
<stop offset="1" stop-color="#2442BA"/>
</linearGradient>
</defs>
</svg>
