<svg width="37" height="39" viewBox="0 0 37 39" fill="none" xmlns="http://www.w3.org/2000/svg">
<path d="M5.27415 22.142C5.27415 25.5116 5.27415 28.8811 5.27415 32.2869C5.16729 32.237 5.09461 32.2072 5.0257 32.1703C3.64709 31.4327 2.27002 30.6922 0.888944 29.9593C0.753154 29.8872 0.710339 29.8049 0.710449 29.6549C0.714134 23.2371 0.713611 16.8193 0.713941 10.4015C0.713941 10.3451 0.718862 10.2886 0.722849 10.2032C0.810984 10.2433 0.88419 10.2733 0.954422 10.309C2.31815 11.0037 3.68048 11.7012 5.04574 12.3929C5.36308 12.5536 5.58898 12.7711 5.7465 13.1071C7.91391 17.7311 10.0944 22.3489 12.2718 26.9681C12.3129 27.0553 12.3564 27.1413 12.4415 27.2215C12.4415 23.5664 12.4415 19.9112 12.4415 16.2211C12.5439 16.2656 12.6101 16.2905 12.673 16.3221C14.231 17.1046 15.7867 17.8918 17.349 18.6657C17.5362 18.7585 17.58 18.8701 17.5798 19.0621C17.5745 25.5291 17.5742 31.9961 17.5732 38.4631C17.5732 38.5427 17.5732 38.6223 17.5732 38.7311C17.5023 38.7004 17.4574 38.6869 17.4186 38.6633C16.0344 37.8191 14.6569 36.9637 13.2641 36.1339C12.6883 35.7909 12.2441 35.3324 11.9315 34.7561C11.2485 33.4972 10.5852 32.2276 9.92293 30.9576C8.42412 28.0836 6.93082 25.2066 5.43513 22.331C5.40122 22.2658 5.36544 22.2016 5.33055 22.1369C5.31174 22.1386 5.29296 22.1403 5.27415 22.142Z" fill="#19E58C"/>
<path d="M27.8627 26.507C27.8627 26.6123 27.8627 26.6918 27.8627 26.7712C27.8639 29.4512 27.8629 32.1312 27.8709 34.8112C27.8714 35.0018 27.8167 35.095 27.6425 35.1812C25.2738 36.3538 22.9098 37.536 20.5446 38.7156C20.4653 38.7552 20.3846 38.7918 20.271 38.8457C20.2647 38.7406 20.2562 38.6638 20.2561 38.587C20.2555 35.8988 20.2566 33.2106 20.2529 30.5224C20.2527 30.369 20.2813 30.2728 20.4354 30.1962C22.8465 28.9984 25.254 27.7931 27.6626 26.5901C27.7186 26.5621 27.7784 26.5417 27.8627 26.507Z" fill="url(#paint0_linear_138_355)"/>
<path d="M20.2676 27.2525C20.2628 27.1473 20.256 27.0682 20.256 26.9891C20.2554 24.3334 20.2565 21.6778 20.2529 19.0221C20.2527 18.8699 20.2784 18.7713 20.4331 18.6949C22.8472 17.5023 25.2578 16.3026 27.6693 15.105C27.7125 15.0835 27.7582 15.0672 27.8415 15.0322C27.8461 15.1293 27.8526 15.2048 27.8527 15.2804C27.8556 17.9442 27.8566 20.6081 27.8633 23.2719C27.8637 23.4286 27.8278 23.519 27.6766 23.5936C25.277 24.7784 22.8808 25.9703 20.4835 27.1599C20.4208 27.1911 20.3546 27.2154 20.2676 27.2525Z" fill="url(#paint1_linear_138_355)"/>
<path d="M30.5058 33.7363C30.5058 33.6139 30.5059 33.5332 30.5058 33.4525C30.5032 30.7885 30.5034 28.1245 30.4927 25.4605C30.4918 25.2472 30.5647 25.1453 30.7491 25.0531C32.7548 24.0497 34.7561 23.0376 36.7589 22.0283C36.8226 21.9962 36.8887 21.969 36.9835 21.926C36.9884 22.037 36.9956 22.123 36.9956 22.209C36.9962 24.8894 36.9941 27.5699 37.0002 30.2503C37.0007 30.4384 36.9509 30.5393 36.7748 30.6263C34.7711 31.6156 32.7724 32.6149 30.7722 33.6112C30.7001 33.6471 30.6264 33.6798 30.5058 33.7363Z" fill="url(#paint2_linear_138_355)"/>
<path d="M30.5055 22.1852C30.5007 22.0768 30.4948 22.0045 30.4947 21.9322C30.4918 19.2686 30.4901 16.6049 30.4849 13.9412C30.4846 13.7922 30.5032 13.6907 30.6623 13.6124C32.7103 12.6031 34.7537 11.5846 36.7986 10.569C36.8485 10.5442 36.9013 10.5255 36.9808 10.4922C36.9867 10.5888 36.9956 10.6662 36.9957 10.7436C36.9964 13.3826 36.9955 16.0217 36.9982 18.6608C36.9984 18.8097 36.9797 18.9133 36.8226 18.9925C34.7693 20.0281 32.7202 21.0721 30.6698 22.1135C30.6268 22.1354 30.5812 22.1523 30.5055 22.1852Z" fill="url(#paint3_linear_138_355)"/>
<path d="M12.1992 13.0872C12.9078 12.7155 13.5797 12.3623 14.2524 12.0104C15.8035 11.1988 17.3557 10.3893 18.9047 9.57384C19.0397 9.50276 19.1456 9.48744 19.2894 9.56042C21.419 10.6417 23.552 11.7164 25.6838 12.7934C25.7401 12.8218 25.7926 12.8578 25.8758 12.9076C25.2964 13.2001 24.7448 13.48 24.192 13.7574C22.4743 14.6193 20.7569 15.4822 19.0355 16.3367C18.9426 16.3828 18.7917 16.3999 18.7046 16.3566C16.5734 15.2972 14.4472 14.2278 12.3202 13.1599C12.2912 13.1453 12.2643 13.1265 12.1992 13.0872Z" fill="url(#paint4_linear_138_355)"/>
<path d="M16.1142 7.98337C15.4057 8.35334 14.7265 8.70821 14.0471 9.06281C12.5025 9.86894 10.9573 10.6741 9.41392 11.4825C9.286 11.5495 9.18169 11.5889 9.03056 11.5126C6.93539 10.4538 4.83612 9.40322 2.73817 8.35001C2.6887 8.32518 2.64269 8.29342 2.56445 8.24656C2.87296 8.09229 3.15414 7.95141 3.43554 7.81103C5.44852 6.8068 7.46073 5.80102 9.47714 4.80369C9.56981 4.75785 9.72158 4.74512 9.80977 4.7892C11.8585 5.81299 13.9022 6.8467 15.9465 7.87928C15.995 7.90381 16.0394 7.93662 16.1142 7.98337Z" fill="url(#paint5_linear_138_355)"/>
<path d="M35.1451 8.25412C34.6996 8.47956 34.2933 8.6866 33.8858 8.89105C32.3055 9.68387 30.7236 10.4735 29.1461 11.2718C28.9845 11.3535 28.8615 11.3642 28.6935 11.2788C26.5775 10.2035 24.457 9.13711 22.3378 8.06801C22.2733 8.03545 22.2111 7.99819 22.1201 7.94773C22.6057 7.69138 23.0662 7.44804 23.5269 7.20515C25.004 6.42624 26.4823 5.64956 27.9567 4.86559C28.1083 4.78499 28.2244 4.7757 28.3841 4.8563C30.5612 5.9548 32.7425 7.04491 34.9227 8.1373C34.9809 8.16645 35.038 8.19777 35.1451 8.25412Z" fill="url(#paint6_linear_138_355)"/>
<path d="M12.6885 3.19392C13.5446 2.767 14.3568 2.36224 15.1687 1.95704C16.3478 1.36859 17.5255 0.77712 18.7085 0.196424C18.8008 0.151079 18.9509 0.137164 19.0384 0.180585C21.0257 1.16653 23.008 2.16246 24.991 3.15699C25.0331 3.17808 25.0722 3.20497 25.1397 3.24526C25.0603 3.29597 25.0046 3.33713 24.944 3.36945C23.0734 4.36785 21.2032 5.36713 19.3286 6.35789C19.2378 6.40585 19.0849 6.42216 18.998 6.37885C16.9398 5.35206 14.8867 4.31511 12.8329 3.27961C12.7979 3.26192 12.7653 3.23965 12.6885 3.19392Z" fill="url(#paint7_linear_138_355)"/>
<defs>
<linearGradient id="paint0_linear_138_355" x1="20.8369" y1="28.5749" x2="28.9635" y2="32.9903" gradientUnits="userSpaceOnUse">
<stop stop-color="#26289F"/>
<stop offset="1" stop-color="#2442BA"/>
</linearGradient>
<linearGradient id="paint1_linear_138_355" x1="20.8363" y1="17.0803" x2="28.9227" y2="21.5121" gradientUnits="userSpaceOnUse">
<stop stop-color="#26289F"/>
<stop offset="1" stop-color="#2442BA"/>
</linearGradient>
<linearGradient id="paint2_linear_138_355" x1="30.9915" y1="23.9054" x2="38.2713" y2="27.4354" gradientUnits="userSpaceOnUse">
<stop stop-color="#26289F"/>
<stop offset="1" stop-color="#2442BA"/>
</linearGradient>
<linearGradient id="paint3_linear_138_355" x1="30.9841" y1="12.4519" x2="38.2401" y2="16.0088" gradientUnits="userSpaceOnUse">
<stop stop-color="#26289F"/>
<stop offset="1" stop-color="#2442BA"/>
</linearGradient>
<linearGradient id="paint4_linear_138_355" x1="13.2476" y1="10.6638" x2="17.8903" y2="18.7988" gradientUnits="userSpaceOnUse">
<stop stop-color="#26289F"/>
<stop offset="1" stop-color="#2442BA"/>
</linearGradient>
<linearGradient id="paint5_linear_138_355" x1="3.60308" y1="5.90032" x2="8.18955" y2="13.9521" gradientUnits="userSpaceOnUse">
<stop stop-color="#26289F"/>
<stop offset="1" stop-color="#2442BA"/>
</linearGradient>
<linearGradient id="paint6_linear_138_355" x1="23.1185" y1="5.896" x2="27.5361" y2="13.6411" gradientUnits="userSpaceOnUse">
<stop stop-color="#26289F"/>
<stop offset="1" stop-color="#2442BA"/>
</linearGradient>
<linearGradient id="paint7_linear_138_355" x1="13.6429" y1="1.20171" x2="17.8657" y2="8.60555" gradientUnits="userSpaceOnUse">
<stop stop-color="#26289F"/>
<stop offset="1" stop-color="#2442BA"/>
</linearGradient>
</defs>
</svg>
