<svg width="25" height="24" viewBox="0 0 25 24" fill="none" xmlns="http://www.w3.org/2000/svg">
<path d="M13 22.0001H4.57997C3.41997 22.0001 2.46997 21.0701 2.46997 19.9301V5.09011C2.46997 2.47011 4.41997 1.2801 6.80997 2.4501L11.25 4.63011C12.21 5.10011 13 6.3501 13 7.4101V22.0001Z" stroke="url(#paint0_linear_33_456)" stroke-width="1.5" stroke-linecap="round" stroke-linejoin="round"/>
<path d="M22.47 15.0602V18.8402C22.47 21.0002 21.47 22.0002 19.31 22.0002H13V10.4202L13.47 10.5202L17.97 11.5302L20 11.9802C21.32 12.2702 22.4 12.9502 22.46 14.8702C22.47 14.9302 22.47 14.9902 22.47 15.0602Z" stroke="url(#paint1_linear_33_456)" stroke-width="1.5" stroke-linecap="round" stroke-linejoin="round"/>
<path d="M6 9.00012H9.47" stroke="url(#paint2_linear_33_456)" stroke-width="1.5" stroke-linecap="round" stroke-linejoin="round"/>
<path d="M6 13.0001H9.47" stroke="url(#paint3_linear_33_456)" stroke-width="1.5" stroke-linecap="round" stroke-linejoin="round"/>
<path d="M17.97 11.5301V14.7501C17.97 15.9901 16.96 17.0001 15.72 17.0001C14.48 17.0001 13.47 15.9901 13.47 14.7501V10.5201L17.97 11.5301Z" stroke="url(#paint4_linear_33_456)" stroke-width="1.5" stroke-linecap="round" stroke-linejoin="round"/>
<path d="M22.46 14.8702C22.4 16.0502 21.42 17.0002 20.22 17.0002C18.98 17.0002 17.97 15.9902 17.97 14.7502V11.5302L20 11.9802C21.32 12.2702 22.4 12.9502 22.46 14.8702Z" stroke="url(#paint5_linear_33_456)" stroke-width="1.5" stroke-linecap="round" stroke-linejoin="round"/>
<defs>
<linearGradient id="paint0_linear_33_456" x1="3.27712" y1="5.3517" x2="15.2551" y2="10.9015" gradientUnits="userSpaceOnUse">
<stop stop-color="#26289F"/>
<stop offset="1" stop-color="#2442BA"/>
</linearGradient>
<linearGradient id="paint1_linear_33_456" x1="13.7259" y1="12.3609" x2="22.3459" y2="18.5646" gradientUnits="userSpaceOnUse">
<stop stop-color="#26289F"/>
<stop offset="1" stop-color="#2442BA"/>
</linearGradient>
<linearGradient id="paint2_linear_33_456" x1="6.26599" y1="9.16772" x2="6.73033" y2="10.5857" gradientUnits="userSpaceOnUse">
<stop stop-color="#26289F"/>
<stop offset="1" stop-color="#2442BA"/>
</linearGradient>
<linearGradient id="paint3_linear_33_456" x1="6.26599" y1="13.1677" x2="6.73033" y2="14.5857" gradientUnits="userSpaceOnUse">
<stop stop-color="#26289F"/>
<stop offset="1" stop-color="#2442BA"/>
</linearGradient>
<linearGradient id="paint4_linear_33_456" x1="13.8149" y1="11.6062" x2="18.3418" y2="14.3727" gradientUnits="userSpaceOnUse">
<stop stop-color="#26289F"/>
<stop offset="1" stop-color="#2442BA"/>
</linearGradient>
<linearGradient id="paint5_linear_33_456" x1="18.3141" y1="12.4469" x2="22.3907" y2="15.3917" gradientUnits="userSpaceOnUse">
<stop stop-color="#26289F"/>
<stop offset="1" stop-color="#2442BA"/>
</linearGradient>
</defs>
</svg>
