<svg width="40" height="40" viewBox="0 0 40 40" fill="none" xmlns="http://www.w3.org/2000/svg">
<path d="M8 10.2316C8.07135 10.2177 8.14269 10.1919 8.21409 10.1918C9.47948 10.1894 10.7448 10.1899 12.0102 10.1909C12.0635 10.191 12.1168 10.2019 12.2009 10.2111C12.2009 10.3505 12.2009 10.4771 12.2009 10.6036C12.2009 19.9587 12.2009 29.3138 12.2014 38.6688C12.2014 38.7886 12.2091 38.9084 12.2132 39.0282C10.8088 39.0282 9.40441 39.0282 8 39.0282C8 29.4293 8 19.8305 8 10.2316Z" fill="url(#paint0_linear_138_337)"/>
<path d="M27.8633 0.815674C29.256 0.815674 30.6198 0.815674 32 0.815674C32 10.42 32 20.0106 32 29.6194C30.6195 29.6194 29.249 29.6194 27.8633 29.6194C27.8633 20.0161 27.8633 10.4256 27.8633 0.815674Z" fill="url(#paint1_linear_138_337)"/>
<path d="M14.7402 3.07715C16.126 3.07715 17.4913 3.07715 18.8776 3.07715C18.8776 5.95599 18.8776 8.82527 18.8776 11.7139C17.5029 11.7139 16.1319 11.7139 14.7402 11.7139C14.7402 8.84644 14.7402 5.97721 14.7402 3.07715Z" fill="url(#paint2_linear_138_337)"/>
<path d="M18.8766 29.5371C17.4927 29.5371 16.1274 29.5371 14.7407 29.5371C14.7407 26.6602 14.7407 23.7912 14.7407 20.9017C16.1126 20.9017 17.4837 20.9017 18.8766 20.9017C18.8766 23.7676 18.8766 26.6366 18.8766 29.5371Z" fill="url(#paint3_linear_138_337)"/>
<path d="M21.3081 10.223C22.706 10.223 24.0694 10.223 25.4469 10.223C25.4469 13.1098 25.4469 15.9798 25.4469 18.8656C24.0636 18.8656 22.6934 18.8656 21.3081 18.8656C21.3081 15.9804 21.3081 13.1108 21.3081 10.223Z" fill="url(#paint4_linear_138_337)"/>
<path d="M21.312 28.0475C22.6968 28.0475 24.0606 28.0475 25.4426 28.0475C25.4426 30.9262 25.4426 33.7953 25.4426 36.6838C24.0718 36.6838 22.7018 36.6838 21.312 36.6838C21.312 33.8134 21.312 30.9447 21.312 28.0475Z" fill="url(#paint5_linear_138_337)"/>
<path d="M25.4511 25.4859C24.063 25.4859 22.7002 25.4859 21.3149 25.4859C21.3149 24.1385 21.3149 22.7962 21.3149 21.4304C22.6889 21.4304 24.065 21.4304 25.4511 21.4304C25.4511 22.781 25.4511 24.1178 25.4511 25.4859Z" fill="#19E58C"/>
<path d="M14.7363 14.2828C16.1244 14.2828 17.4894 14.2828 18.8764 14.2828C18.8764 15.6357 18.8764 16.9789 18.8764 18.3403C17.4953 18.3403 16.1243 18.3403 14.7363 18.3403C14.7363 16.9876 14.7363 15.6515 14.7363 14.2828Z" fill="#19E58C"/>
<defs>
<linearGradient id="paint0_linear_138_337" x1="8.32296" y1="15.0232" x2="14.0497" y2="15.7595" gradientUnits="userSpaceOnUse">
<stop stop-color="#26289F"/>
<stop offset="1" stop-color="#2442BA"/>
</linearGradient>
<linearGradient id="paint1_linear_138_337" x1="28.1804" y1="5.643" x2="33.8062" y2="6.35403" gradientUnits="userSpaceOnUse">
<stop stop-color="#26289F"/>
<stop offset="1" stop-color="#2442BA"/>
</linearGradient>
<linearGradient id="paint2_linear_138_337" x1="15.0574" y1="4.52462" x2="19.9113" y2="6.57095" gradientUnits="userSpaceOnUse">
<stop stop-color="#26289F"/>
<stop offset="1" stop-color="#2442BA"/>
</linearGradient>
<linearGradient id="paint3_linear_138_337" x1="15.0578" y1="22.349" x2="19.9103" y2="24.3943" gradientUnits="userSpaceOnUse">
<stop stop-color="#26289F"/>
<stop offset="1" stop-color="#2442BA"/>
</linearGradient>
<linearGradient id="paint4_linear_138_337" x1="21.6254" y1="11.6715" x2="26.4815" y2="13.718" gradientUnits="userSpaceOnUse">
<stop stop-color="#26289F"/>
<stop offset="1" stop-color="#2442BA"/>
</linearGradient>
<linearGradient id="paint5_linear_138_337" x1="21.6286" y1="29.4949" x2="26.4769" y2="31.5355" gradientUnits="userSpaceOnUse">
<stop stop-color="#26289F"/>
<stop offset="1" stop-color="#2442BA"/>
</linearGradient>
</defs>
</svg>
