<svg width="24" height="24" viewBox="0 0 24 24" fill="none" xmlns="http://www.w3.org/2000/svg">
<g clip-path="url(#clip0_33_476)">
<g clip-path="url(#clip1_33_476)">
<path d="M20.1385 21C20.1225 21 20.1063 21 20.0902 20.9985C11.0475 20.4188 6.87523 15.7793 4.96693 11.9892C3.7031 9.45705 3.03056 6.67103 3 3.84117C3.00537 3.64929 3.08368 3.46668 3.21897 3.33052C3.35427 3.19435 3.53637 3.11487 3.72822 3.10825L6.8541 3.00047C6.95722 2.99683 7.05999 3.01438 7.15606 3.05203C7.25212 3.08967 7.33945 3.14662 7.41263 3.21936C7.48581 3.29209 7.5433 3.37906 7.58154 3.47489C7.61977 3.57072 7.63794 3.67337 7.63493 3.7765C7.6564 5.23578 7.90089 6.68319 8.35992 8.06857C8.42132 8.25643 8.40655 8.46088 8.31879 8.63796C8.23103 8.81504 8.07728 8.95062 7.89061 9.01554L7.01989 9.31733C6.92629 9.34989 6.8272 9.36369 6.72828 9.35795C6.62935 9.35222 6.53252 9.32705 6.44332 9.28389C6.35411 9.24074 6.27429 9.18044 6.2084 9.10643C6.1425 9.03243 6.09183 8.94617 6.05927 8.85258C6.02671 8.759 6.01291 8.65991 6.01865 8.56099C6.02438 8.46207 6.04955 8.36525 6.09271 8.27605C6.13587 8.18686 6.19618 8.10703 6.27018 8.04114C6.34419 7.97525 6.43046 7.92458 6.52405 7.89203L6.71118 7.82736C6.4127 6.75182 6.22439 5.64871 6.14917 4.53506L4.52888 4.59089C4.67652 6.94602 5.29213 9.2481 6.33974 11.3626C8.76542 16.1358 13.1608 18.848 19.4122 19.4318L19.4641 18.0285C18.3494 17.9231 17.2463 17.7188 16.1677 17.418L16.1354 17.5863C16.0974 17.7828 15.983 17.9562 15.8172 18.0683C15.6514 18.1804 15.4478 18.2221 15.2513 18.1841C15.0548 18.1461 14.8814 18.0317 14.7693 17.8659C14.6572 17.7001 14.6155 17.4966 14.6535 17.3001L14.8462 16.3031C14.8667 16.1971 14.9097 16.0967 14.9723 16.0088C15.0349 15.9208 15.1157 15.8473 15.2092 15.7933C15.3026 15.7392 15.4066 15.7058 15.514 15.6954C15.6215 15.6849 15.73 15.6977 15.8321 15.7327C17.2755 16.2118 18.776 16.4976 20.2945 16.5825C20.4906 16.5952 20.6739 16.684 20.8055 16.8298C20.9372 16.9756 21.0067 17.1669 20.9995 17.3632L20.8917 20.2733C20.8845 20.4684 20.802 20.653 20.6616 20.7885C20.5211 20.924 20.3336 20.9998 20.1385 21Z" fill="url(#paint0_linear_33_476)"/>
</g>
</g>
<defs>
<linearGradient id="paint0_linear_33_476" x1="4.37975" y1="6.01669" x2="18.3956" y2="18.3512" gradientUnits="userSpaceOnUse">
<stop stop-color="#26289F"/>
<stop offset="1" stop-color="#2442BA"/>
</linearGradient>
<clipPath id="clip0_33_476">
<rect width="24" height="24" fill="white"/>
</clipPath>
<clipPath id="clip1_33_476">
<rect width="18" height="18" fill="white" transform="translate(3 3)"/>
</clipPath>
</defs>
</svg>
