<svg width="40" height="40" viewBox="0 0 40 40" fill="none" xmlns="http://www.w3.org/2000/svg">
<g clip-path="url(#clip0_151_166)">
<path d="M35.625 9.92188V38.0469C35.625 38.5649 35.4192 39.0617 35.0529 39.4279C34.6867 39.7942 34.1899 40 33.6719 40H6.32812C5.81012 40 5.31334 39.7942 4.94706 39.4279C4.58078 39.0617 4.375 38.5649 4.375 38.0469V1.95312C4.375 1.43512 4.58078 0.938339 4.94706 0.572057C5.31334 0.205775 5.81012 0 6.32812 0L25.7031 0L35.625 9.92188Z" fill="url(#paint0_linear_151_166)"/>
<path d="M38.0469 18.75H1.95312C0.874444 18.75 0 19.6244 0 20.7031V32.4219C0 33.5006 0.874444 34.375 1.95312 34.375H38.0469C39.1256 34.375 40 33.5006 40 32.4219V20.7031C40 19.6244 39.1256 18.75 38.0469 18.75Z" fill="#19E58C"/>
<path opacity="0.75" d="M35.625 9.91875H25.7062V0L35.625 9.91875Z" fill="white"/>
<path d="M8.93671 31.9414V21.1836H12.5492C13.1956 21.1836 13.7268 21.3055 14.143 21.5492C14.5598 21.7932 14.8861 22.1661 15.0726 22.6117C15.2763 23.0768 15.3781 23.6411 15.3781 24.3047C15.3781 25.138 15.2409 25.7734 14.9664 26.2109C14.7107 26.6338 14.3165 26.9551 13.8508 27.1203C13.3424 27.2948 12.8077 27.3802 12.2703 27.3727H11.3141V31.9414H8.93671ZM11.3141 25.7125H12.1094C12.4016 25.7125 12.6229 25.6604 12.7734 25.5563C12.9301 25.4405 13.037 25.2696 13.0726 25.0781C13.1262 24.8115 13.1506 24.5399 13.1453 24.268C13.1481 24.0255 13.1283 23.7833 13.0859 23.5445C13.0537 23.3494 12.9522 23.1724 12.8 23.0461C12.6489 22.9221 12.4146 22.8602 12.0969 22.8602H11.3156L11.3141 25.7125ZM16.5625 31.9414V21.1836H18.9375V25.5398H20.5976V21.1836H22.9883V31.9414H20.5976V27.2398H18.9375V31.9414H16.5625ZM24.6219 31.9414V21.1836H28.2344C28.8807 21.1836 29.412 21.3055 29.8281 21.5492C30.2448 21.7935 30.571 22.1663 30.7578 22.6117C30.9609 23.0768 31.0627 23.6411 31.0633 24.3047C31.0633 25.138 30.926 25.7734 30.6516 26.2109C30.3954 26.6334 30.0014 26.9546 29.5359 27.1203C29.0276 27.2948 28.4929 27.3802 27.9555 27.3727H26.9992V31.9414H24.6219ZM26.9992 25.7125H27.7961C28.0883 25.7125 28.3096 25.6604 28.4601 25.5563C28.6166 25.4404 28.7232 25.2695 28.7586 25.0781C28.8125 24.8116 28.8371 24.5399 28.832 24.268C28.8346 24.0255 28.8145 23.7833 28.7719 23.5445C28.7396 23.3496 28.6384 23.1727 28.4867 23.0461C28.3362 22.9221 28.1018 22.8602 27.7836 22.8602H27.0023L26.9992 25.7125Z" fill="#F8F8F8"/>
</g>
<defs>
<linearGradient id="paint0_linear_151_166" x1="6.7704" y1="6.70376" x2="36.0896" y2="26.8616" gradientUnits="userSpaceOnUse">
<stop stop-color="#26289F"/>
<stop offset="1" stop-color="#2442BA"/>
</linearGradient>
<clipPath id="clip0_151_166">
<rect width="40" height="40" fill="white"/>
</clipPath>
</defs>
</svg>
