<svg width="40" height="40" viewBox="0 0 40 40" fill="none" xmlns="http://www.w3.org/2000/svg">
<path d="M34.5455 4H5.45455C4.65122 4 4 4.65122 4 5.45455V34.5455C4 35.3488 4.65122 36 5.45455 36H34.5455C35.3488 36 36 35.3488 36 34.5455V5.45455C36 4.65122 35.3488 4 34.5455 4Z" fill="url(#paint0_linear_136_1064)"/>
<path d="M22.9091 18.5454C23.7125 18.5454 24.3637 17.8942 24.3637 17.0909C24.3637 16.2876 23.7125 15.6364 22.9091 15.6364C22.1058 15.6364 21.4546 16.2876 21.4546 17.0909C21.4546 17.8942 22.1058 18.5454 22.9091 18.5454Z" fill="#19E58C"/>
<path d="M28.727 12.7272C29.5303 12.7272 30.1816 12.076 30.1816 11.2727C30.1816 10.4693 29.5303 9.81812 28.727 9.81812C27.9237 9.81812 27.2725 10.4693 27.2725 11.2727C27.2725 12.076 27.9237 12.7272 28.727 12.7272Z" fill="#19E58C"/>
<path d="M22.9091 12.7272C23.7125 12.7272 24.3637 12.076 24.3637 11.2727C24.3637 10.4693 23.7125 9.81812 22.9091 9.81812C22.1058 9.81812 21.4546 10.4693 21.4546 11.2727C21.4546 12.076 22.1058 12.7272 22.9091 12.7272Z" fill="#19E58C"/>
<path d="M17.0908 12.7272C17.8941 12.7272 18.5453 12.076 18.5453 11.2727C18.5453 10.4693 17.8941 9.81812 17.0908 9.81812C16.2875 9.81812 15.6362 10.4693 15.6362 11.2727C15.6362 12.076 16.2875 12.7272 17.0908 12.7272Z" fill="#19E58C"/>
<path d="M11.2729 12.7272C12.0762 12.7272 12.7275 12.076 12.7275 11.2727C12.7275 10.4693 12.0762 9.81812 11.2729 9.81812C10.4696 9.81812 9.81836 10.4693 9.81836 11.2727C9.81836 12.076 10.4696 12.7272 11.2729 12.7272Z" fill="#19E58C"/>
<path d="M11.2729 18.5454C12.0762 18.5454 12.7275 17.8942 12.7275 17.0909C12.7275 16.2876 12.0762 15.6364 11.2729 15.6364C10.4696 15.6364 9.81836 16.2876 9.81836 17.0909C9.81836 17.8942 10.4696 18.5454 11.2729 18.5454Z" fill="#19E58C"/>
<path d="M11.2729 21.4546C11.0819 21.4546 10.8927 21.4922 10.7163 21.5653C10.5398 21.6384 10.3795 21.7455 10.2444 21.8806C10.1093 22.0157 10.0022 22.176 9.92908 22.3525C9.85598 22.529 9.81836 22.7181 9.81836 22.9091V28.7273C9.81836 29.1131 9.97161 29.4831 10.2444 29.7558C10.5172 30.0286 10.8871 30.1819 11.2729 30.1819C11.6587 30.1819 12.0286 30.0286 12.3014 29.7558C12.5742 29.4831 12.7275 29.1131 12.7275 28.7273V22.9091C12.7275 22.7181 12.6898 22.529 12.6167 22.3525C12.5436 22.176 12.4365 22.0157 12.3014 21.8806C12.1664 21.7455 12.006 21.6384 11.8295 21.5653C11.6531 21.4922 11.4639 21.4546 11.2729 21.4546Z" fill="#F8F8F8"/>
<path d="M22.9091 21.4546C22.5234 21.4546 22.1534 21.6078 21.8806 21.8806C21.6078 22.1534 21.4546 22.5234 21.4546 22.9091V28.7273C21.4548 29.113 21.6081 29.4827 21.8809 29.7554C22.1536 30.028 22.5235 30.1811 22.9091 30.1811C23.2948 30.1811 23.6646 30.028 23.9374 29.7554C24.2102 29.4827 24.3635 29.113 24.3637 28.7273V22.9091C24.3637 22.7181 24.3261 22.529 24.253 22.3525C24.1799 22.176 24.0727 22.0157 23.9377 21.8806C23.8026 21.7455 23.6422 21.6384 23.4658 21.5653C23.2893 21.4922 23.1001 21.4546 22.9091 21.4546Z" fill="#F8F8F8"/>
<path d="M17.0908 15.6364C16.705 15.6364 16.335 15.7896 16.0623 16.0624C15.7895 16.3352 15.6362 16.7051 15.6362 17.0909V28.7273C15.6364 29.1129 15.7898 29.4827 16.0625 29.7553C16.3353 30.0279 16.7051 30.1811 17.0908 30.1811C17.4764 30.1811 17.8463 30.0279 18.119 29.7553C18.3918 29.4827 18.5451 29.1129 18.5453 28.7273V17.0909C18.5453 16.7051 18.3921 16.3352 18.1193 16.0624C17.8465 15.7896 17.4765 15.6364 17.0908 15.6364Z" fill="#F8F8F8"/>
<path d="M28.727 15.6364C28.3412 15.6364 27.9713 15.7896 27.6985 16.0624C27.4257 16.3352 27.2725 16.7051 27.2725 17.0909V28.7273C27.2725 29.113 27.4257 29.483 27.6985 29.7558C27.9713 30.0286 28.3412 30.1818 28.727 30.1818C29.1128 30.1818 29.4827 30.0286 29.7555 29.7558C30.0283 29.483 30.1816 29.113 30.1816 28.7273V17.0909C30.1816 16.7051 30.0283 16.3352 29.7555 16.0624C29.4827 15.7896 29.1128 15.6364 28.727 15.6364Z" fill="#F8F8F8"/>
<defs>
<linearGradient id="paint0_linear_136_1064" x1="6.45289" y1="9.36301" x2="31.37" y2="31.291" gradientUnits="userSpaceOnUse">
<stop stop-color="#26289F"/>
<stop offset="1" stop-color="#2442BA"/>
</linearGradient>
</defs>
</svg>
