<svg width="38" height="40" viewBox="0 0 38 40" fill="none" xmlns="http://www.w3.org/2000/svg">
<path d="M29.1667 26.3334C28.5 24.8334 25.6667 22.6667 23.1667 20.6667C21.8334 19.5 20.5 18.5 19.5 17.6667C19.3334 17.8333 19 17.8333 19 18C18.5 18.1667 18.3334 18.3334 17.6667 18.3334C16.3334 20 14.6667 20.6666 12.8334 20C12 19.8334 11.5 19.1667 11.3334 18.5C11 16.8334 12.5 14.5 13.6667 13.3334H10.3334C9.66675 16.6667 8.50003 21 7.66675 23.3334C8.33339 24 9.00011 24.8334 9.50011 25.1667C12.6667 27.8334 16.3335 30.5001 17.0001 31.0001C17.5001 31.3334 18.5001 31.6667 19.0001 31.6667H19.5001L16.8334 29C16.5 28.6666 16.5 28.1666 16.8334 27.8334C17.1667 27.5001 17.6667 27.5 18 27.8334L21.3334 31.1667C21.6667 31.5001 22 31.3334 22.3334 31.3334C22.8334 31.1667 23 30.8334 23.1667 30.3334L19.3334 26.5C19 26.1666 19 25.6666 19.3334 25.3334C19.6667 25.0001 20.1667 25 20.5 25.3334L24.6667 29.5C24.8333 29.6666 25.5 29.6666 26 29.5C26.1667 29.3334 26.5 29.1666 26.6667 28.8334L22 24.1666C21.6667 23.8333 21.6667 23.3333 22 23C22.3334 22.6667 22.8334 22.6666 23.1667 23L28 27.8334C28.3334 28 28.6667 27.8334 29 27.6667C29.1667 27.5 29.5 27 29.1667 26.3334Z" fill="url(#paint0_linear_151_227)"/>
<path d="M37.6188 24.2465C37.3889 23.5528 36.7868 23.0696 36.0082 22.9537C35.6411 22.8991 35.2206 22.9224 34.7231 23.0246C33.8558 23.2029 33.2124 23.2708 32.7428 23.2839C34.5152 20.3019 35.9564 16.9013 36.7861 13.7002C38.1277 8.52418 37.4108 6.16617 36.573 5.09959C34.3559 2.27647 31.1212 0.75987 27.2189 0.713465C25.1371 0.688099 23.3096 1.09769 22.3563 1.39224C21.4686 1.23616 20.5142 1.14902 19.5128 1.1329C17.6356 1.10306 15.977 1.51086 14.5598 2.34899C13.7752 2.08459 12.5159 1.71185 11.0617 1.47401C7.64148 0.914455 4.88488 1.35046 2.86857 2.76992C0.427008 4.48856 -0.704828 7.47462 -0.495501 11.6451C-0.429019 12.9692 0.314259 16.998 1.48458 20.8188C2.15718 23.0149 2.87441 24.8386 3.61634 26.2397C4.66851 28.2265 5.79436 29.3964 7.05826 29.8166C7.76665 30.0518 9.05376 30.2165 10.4075 29.0929C10.5791 29.3 10.808 29.5058 11.1119 29.697C11.4977 29.9394 11.9695 30.1376 12.4407 30.255C14.1389 30.678 15.7295 30.5722 17.0865 29.9793C17.0949 30.2198 17.1013 30.4496 17.1067 30.648C17.1157 30.9699 17.1247 31.2855 17.1365 31.5806C17.2169 33.5762 17.3532 35.1279 17.7569 36.2136C17.779 36.2732 17.8088 36.3643 17.8403 36.4608C18.0417 37.0753 18.3784 38.1039 19.2352 38.9095C20.1224 39.7441 21.1955 40 22.1784 40C22.6713 40 23.1416 39.9355 23.5541 39.8475C25.0245 39.5334 26.6945 39.055 27.9025 37.3409C29.0447 35.7204 29.5999 33.2797 29.7004 29.434C29.7134 29.3253 29.7254 29.2214 29.7369 29.1225L29.7609 28.9193L30.03 28.9428L30.0993 28.9475C31.5969 29.0155 33.4282 28.699 34.5528 28.1784C35.4415 27.7675 38.2893 26.2692 37.6188 24.2465Z" fill="#19E58C"/>
<path d="M34.8961 24.4916C30.4877 25.4041 30.1846 23.9064 30.1846 23.9064C34.839 16.9761 36.7848 8.17899 35.1058 6.02594C30.5249 0.152833 22.5953 2.93045 22.463 3.00244L22.4204 3.01018C21.5494 2.82871 20.5748 2.72073 19.4792 2.70273C17.4846 2.67 15.9715 3.22749 14.8233 4.10121C14.8233 4.10121 0.677684 -1.74646 1.33568 11.4556C1.47561 14.2642 5.34739 32.7069 9.96536 27.1364C11.6533 25.0994 13.2842 23.3771 13.2842 23.3771C14.0942 23.917 15.0639 24.1925 16.0805 24.0936L16.1595 24.0263C16.1349 24.2792 16.1461 24.5265 16.191 24.8194C15.0013 26.1532 15.351 26.3873 12.9728 26.8786C10.5663 27.3763 11.98 28.2622 12.903 28.494C14.022 28.7746 16.6107 29.1724 18.3598 26.7153L18.2901 26.9957C18.7562 27.3704 19.0835 29.4325 19.0286 31.3021C18.9738 33.1715 18.9371 34.455 19.3043 35.4575C19.6718 36.46 20.0378 38.7157 23.1642 38.0435C25.7765 37.4817 27.1303 36.026 27.3187 33.5976C27.4522 31.8713 27.7548 32.1266 27.7738 30.583L28.0164 29.8524C28.2961 27.5123 28.0609 26.7572 29.6702 27.1084L30.0615 27.1429C31.2459 27.1969 32.7964 26.9516 33.7064 26.5273C35.6657 25.6149 36.8278 24.0913 34.8958 24.4916H34.8961Z" fill="url(#paint1_linear_151_227)"/>
<path d="M15.748 12.7901C15.3536 12.7355 14.9965 12.786 14.8158 12.9221C14.7142 12.9987 14.6827 13.0874 14.6742 13.1485C14.6515 13.3102 14.7654 13.4892 14.8355 13.5814C15.0335 13.8426 15.3228 14.0221 15.6092 14.0616C15.6507 14.0675 15.6921 14.0701 15.7331 14.0701C16.2106 14.0701 16.6449 13.7001 16.6831 13.4271C16.731 13.0851 16.232 12.857 15.748 12.7901ZM28.8128 12.8009C28.7752 12.5328 28.2957 12.4564 27.8407 12.5194C27.3863 12.5823 26.9457 12.7864 26.9825 13.0551C27.012 13.264 27.3912 13.6206 27.84 13.6206C27.878 13.6206 27.9162 13.6181 27.9548 13.6127C28.2544 13.5714 28.4742 13.3821 28.5787 13.2731C28.7376 13.1067 28.8297 12.9214 28.8128 12.8009Z" fill="white"/>
<path d="M36.3713 24.5204C36.2022 24.0092 35.6579 23.8447 34.7535 24.0314C32.0684 24.5854 31.1068 24.2017 30.7911 23.9692C32.8782 20.7905 34.5952 16.9481 35.5214 13.3631C35.9602 11.6649 36.2025 10.0878 36.2223 8.80231C36.2443 7.39143 36.0039 6.35463 35.5081 5.72128C33.5095 3.16804 30.5761 1.79846 27.0252 1.76089C24.5841 1.73345 22.5216 2.35801 22.1218 2.53364C21.2798 2.32431 20.3619 2.19579 19.3625 2.17939C17.53 2.14972 15.9459 2.58836 14.6345 3.48248C14.0648 3.27047 12.5925 2.76519 10.7921 2.4752C7.67939 1.97424 5.20589 2.35383 3.44076 3.60399C1.33457 5.09583 0.362234 7.76253 0.550587 11.5298C0.613968 12.7973 1.33636 16.6964 2.47633 20.4305C3.97689 25.3452 5.6081 28.1275 7.32431 28.6998C7.52519 28.7668 7.75679 28.8136 8.01225 28.8136C8.63831 28.8136 9.40589 28.5315 10.2045 27.5716C11.1786 26.4034 12.1862 25.2636 13.2261 24.1535C13.9007 24.5155 14.6419 24.7177 15.3999 24.738C15.4014 24.7578 15.4034 24.7776 15.4052 24.7973C15.2747 24.9529 15.1469 25.1107 15.0219 25.2707C14.4967 25.9373 14.3873 26.0761 12.6966 26.4241C12.2157 26.5234 10.9384 26.7865 10.9196 27.6817C10.8993 28.6597 12.4295 29.0705 12.6039 29.114C13.2114 29.2661 13.7968 29.3411 14.355 29.3411C15.7125 29.3411 16.9072 28.895 17.862 28.0319C17.8326 31.5186 17.978 34.9543 18.3968 36.0011C18.7398 36.8581 19.5776 38.9525 22.2241 38.9523C22.6124 38.9523 23.0398 38.9071 23.51 38.8064C26.2721 38.2144 27.4716 36.994 27.9355 34.3033C28.1838 32.8652 28.6099 29.4314 28.8103 27.5895C29.2333 27.7215 29.7778 27.7819 30.3664 27.7817C31.594 27.7817 33.0106 27.521 33.899 27.1087C34.897 26.6453 36.6979 25.5083 36.3713 24.5204ZM29.7937 12.074C29.7846 12.6178 29.7097 13.1114 29.6304 13.6267C29.545 14.1809 29.4567 14.7539 29.4345 15.4494C29.4125 16.1263 29.4971 16.83 29.5788 17.5106C29.7441 18.8853 29.9136 20.3005 29.2573 21.6969C29.1483 21.5038 29.0511 21.3041 28.9665 21.0992C28.8849 20.9015 28.7077 20.5839 28.4624 20.1444C27.5081 18.4334 25.2734 14.4266 26.4174 12.7916C26.7581 12.305 27.6229 11.8046 29.7937 12.074ZM27.1624 2.86195C30.344 2.93217 32.8608 4.12209 34.6426 6.39846C36.0092 8.14451 34.5043 16.0893 30.1478 22.9433C30.1039 22.8876 30.0599 22.8321 30.0156 22.7768L29.9604 22.7079C31.0862 20.8491 30.8661 19.0101 30.6702 17.3796C30.5896 16.7104 30.5136 16.0784 30.533 15.4847C30.5529 14.8555 30.6362 14.3158 30.7167 13.794C30.8156 13.1509 30.9162 12.4855 30.8885 11.7012C30.9092 11.6189 30.9176 11.5216 30.9067 11.4062C30.8358 10.6541 29.9768 8.40289 28.226 6.36537C27.2683 5.25089 25.8717 4.00371 23.9647 3.16252C24.785 2.99255 25.9066 2.83407 27.1624 2.86195ZM9.35936 26.8691C8.47948 27.9268 7.87192 27.724 7.67208 27.6575C6.37016 27.2234 4.85946 24.4723 3.52756 20.1098C2.37507 16.335 1.70159 12.5392 1.6482 11.4748C1.47998 8.10858 2.29618 5.76258 4.07428 4.50184C6.96803 2.4503 11.7256 3.67824 13.6374 4.30101C13.6099 4.32814 13.5813 4.35349 13.5541 4.38107C10.417 7.54843 10.4914 12.96 10.4992 13.2908C10.4989 13.4184 10.5096 13.5991 10.5242 13.8477C10.5782 14.7579 10.6787 16.4519 10.4103 18.3703C10.1609 20.153 10.7106 21.8979 11.9182 23.1576C12.0421 23.2866 12.1723 23.4094 12.3084 23.5255C11.771 24.101 10.6028 25.3737 9.35936 26.8691ZM12.7117 22.3973C11.7385 21.382 11.2964 19.9698 11.4988 18.5224C11.7822 16.4959 11.6776 14.7309 11.6214 13.7827C11.6135 13.65 11.6065 13.5337 11.6025 13.442C12.0607 13.0357 14.1845 11.8981 15.6991 12.245C16.3902 12.4032 16.8113 12.8738 16.9864 13.6831C17.8925 17.8731 17.1063 19.6194 16.4746 21.0228C16.3444 21.3119 16.2214 21.5852 16.1164 21.8679L16.035 22.0865C15.8289 22.639 15.6371 23.1528 15.5182 23.6406C14.4835 23.6376 13.477 23.1957 12.7117 22.3972V22.3973ZM12.8705 28.048C12.5684 27.9726 12.2967 27.8415 12.1372 27.7328C12.2704 27.6702 12.5074 27.5849 12.9184 27.5002C14.9074 27.091 15.2146 26.802 15.8854 25.9505C16.0391 25.7552 16.2135 25.534 16.4549 25.2644L16.4552 25.2641C16.8148 24.8616 16.9793 24.9298 17.2775 25.0536C17.5193 25.1535 17.7547 25.4564 17.8502 25.7898C17.8954 25.9473 17.9461 26.246 17.7801 26.4786C16.3788 28.4401 14.3369 28.4149 12.8705 28.048ZM23.2798 37.732C20.8465 38.2532 19.985 37.012 19.4173 35.5931C19.0508 34.677 18.8707 30.5462 18.9985 25.9844C19.0001 25.9237 18.9915 25.8651 18.9748 25.8099C18.9598 25.701 18.9371 25.5933 18.9068 25.4876C18.7168 24.8238 18.2537 24.2686 17.6982 24.0384C17.4775 23.947 17.0725 23.7793 16.5857 23.9038C16.6895 23.4762 16.8695 22.9933 17.0647 22.4704L17.1466 22.2505C17.2387 22.0025 17.3545 21.7456 17.4768 21.4737C18.1379 20.0054 19.0432 17.9943 18.0606 13.4509C17.6926 11.7492 16.4634 10.9181 14.6002 11.1112C13.4832 11.2267 12.4612 11.6773 11.9514 11.9357C11.8418 11.9911 11.7416 12.0448 11.6479 12.097C11.7902 10.3824 12.3277 7.17808 14.3383 5.15069C15.6043 3.87445 17.2902 3.24408 19.3443 3.27807C23.3918 3.34427 25.9873 5.42085 27.452 7.15139C28.7143 8.64248 29.3978 10.1446 29.6705 10.9548C27.6192 10.7462 26.2241 11.151 25.5169 12.1619C23.9783 14.3607 26.3586 18.6284 27.5026 20.6795C27.7124 21.0553 27.8935 21.3802 27.9504 21.5183C28.323 22.4209 28.8053 23.0235 29.1574 23.4634C29.2653 23.5981 29.37 23.7289 29.4497 23.8431C28.8284 24.0222 27.7124 24.4359 27.8141 26.504C27.7321 27.5417 27.1489 32.4001 26.8525 34.1166C26.4614 36.3843 25.6267 37.2289 23.2798 37.7321V37.732ZM33.4363 26.1122C32.801 26.4069 31.7378 26.628 30.7279 26.6756C29.6124 26.7278 29.0445 26.5506 28.9109 26.4417C28.8482 25.1529 29.328 25.0183 29.8358 24.8757C29.9156 24.8534 29.9934 24.8314 30.0686 24.8052C30.1152 24.8432 30.1664 24.8809 30.2225 24.9179C31.119 25.5095 32.7182 25.5733 34.9759 25.1074L35.0007 25.1025C34.6961 25.3871 34.1751 25.7691 33.4363 26.1122Z" fill="white"/>
<defs>
<linearGradient id="paint0_linear_151_227" x1="9.32571" y1="16.4059" x2="23.7074" y2="31.3469" gradientUnits="userSpaceOnUse">
<stop stop-color="#26289F"/>
<stop offset="1" stop-color="#2442BA"/>
</linearGradient>
<linearGradient id="paint1_linear_151_227" x1="3.96354" y1="8.29755" x2="31.7534" y2="31.8611" gradientUnits="userSpaceOnUse">
<stop stop-color="#26289F"/>
<stop offset="1" stop-color="#2442BA"/>
</linearGradient>
</defs>
</svg>
