<svg width="40" height="40" viewBox="0 0 40 40" fill="none" xmlns="http://www.w3.org/2000/svg">
<g clip-path="url(#clip0_151_201)">
<path d="M19.7307 -0.418939C18.0874 -0.418939 16.4971 -0.266145 15.1126 -0.00733182C11.009 0.709862 10.2887 2.20038 10.2887 5.02238V8.71749H19.9365V9.94919H6.69647C3.92436 9.94919 1.46408 11.6424 0.693871 14.823C-0.179235 18.5181 -0.229126 20.7757 0.693871 24.6236C1.36117 27.4986 3.00448 29.4974 5.82649 29.4974H9.163V25.0851C9.163 21.9045 11.9351 19.0825 15.1656 19.0825H24.7604C27.4296 19.0825 29.5843 16.8748 29.5843 14.1557V4.96937C29.5843 2.35317 27.3766 0.401157 24.7604 -0.0603418C23.0641 -0.316037 21.3709 -0.468831 19.7307 -0.418939ZM14.4952 2.50597C15.4712 2.50597 16.2913 3.32606 16.2913 4.35196C16.2913 5.37786 15.4712 6.19796 14.4952 6.19796C13.5192 6.19796 12.6991 5.37786 12.6991 4.35196C12.6991 3.32606 13.4693 2.50597 14.4952 2.50597Z" fill="url(#paint0_linear_151_201)"/>
<path d="M30.763 9.84314V14.1026C30.763 17.4392 27.941 20.2082 24.7074 20.2082H15.1126C12.4964 20.2082 10.2887 22.4658 10.2887 25.135V34.3213C10.2887 36.9375 12.5463 38.4779 15.1126 39.2481C18.1404 40.1711 21.0653 40.327 24.7604 39.2481C27.1708 38.5309 29.5843 37.1433 29.5843 34.3213V30.6262H19.9334V29.3945H34.4051C37.1772 29.3945 38.253 27.4456 39.229 24.5207C40.2549 21.4929 40.205 18.621 39.229 14.7201C38.5617 11.9479 37.2271 9.84626 34.4051 9.84626L30.763 9.84314ZM25.3217 33.0896C26.2977 33.0896 27.1178 33.9097 27.1178 34.9356C27.1178 35.9615 26.2977 36.7816 25.3217 36.7816C24.3457 36.7816 23.5256 35.9615 23.5256 34.9356C23.5256 33.9097 24.3488 33.0896 25.3217 33.0896Z" fill="#19E58C"/>
</g>
<defs>
<linearGradient id="paint0_linear_151_201" x1="2.28638" y1="4.58704" x2="25.5507" y2="24.8131" gradientUnits="userSpaceOnUse">
<stop stop-color="#26289F"/>
<stop offset="1" stop-color="#2442BA"/>
</linearGradient>
<clipPath id="clip0_151_201">
<rect width="40" height="40" fill="white"/>
</clipPath>
</defs>
</svg>
