<svg width="40" height="40" viewBox="0 0 40 40" fill="none" xmlns="http://www.w3.org/2000/svg">
<path d="M19.1095 0.035063C19.1095 0.0836122 19.1095 0.129465 19.1095 0.178014C19.1095 1.94736 19.1095 3.71671 19.1122 5.48876C19.1122 5.60204 19.0798 5.68026 18.9989 5.75847C16.1183 8.63636 13.2296 11.5116 10.3598 14.4002C8.64711 16.1264 7.57903 18.2006 7.11781 20.5876C6.93441 21.5316 6.87237 22.4864 6.93171 23.4412C7.10433 26.3164 8.15353 28.8301 10.0847 30.9717C11.463 32.501 13.119 33.623 15.0664 34.3027C16.0832 34.6587 17.127 34.8853 18.2032 34.9419C22.4 35.1577 25.8335 33.6122 28.5199 30.408C29.8146 28.8652 30.6129 27.0743 30.9932 25.0999C31.1874 24.0858 31.2441 23.0609 31.1685 22.0305C30.9474 19.0529 29.7822 16.5013 27.7135 14.3571C27.6892 14.3328 27.6676 14.3031 27.6487 14.2816C28.6062 13.3241 29.5583 12.372 30.5212 11.4091C30.5482 11.4333 30.5833 11.4603 30.6129 11.49C32.7545 13.6963 34.1813 16.2937 34.8691 19.2929C35.0579 20.1209 35.1739 20.9571 35.2278 21.804C35.2844 22.6752 35.2817 23.5464 35.1873 24.4122C34.7585 28.4633 33.0539 31.886 30.0951 34.683C27.9913 36.6708 25.518 37.9682 22.6994 38.6128C21.9469 38.7854 21.1863 38.8906 20.4149 38.9499C19.657 39.0093 18.8991 39.0174 18.1412 38.9661C16.709 38.869 15.3091 38.5939 13.9525 38.1246C11.4144 37.248 9.22431 35.8266 7.38753 33.8685C5.54266 31.9049 4.2669 29.6204 3.56024 27.0176C3.29861 26.052 3.13138 25.0676 3.05317 24.0696C2.99113 23.2847 2.98034 22.4999 3.03698 21.715C3.25276 18.7022 4.21835 15.9538 5.95533 13.4778C6.51365 12.6821 7.14748 11.9485 7.83526 11.2607C11.5412 7.55479 15.2525 3.84348 18.9611 0.134859C18.9989 0.0970984 19.0232 0.045852 19.0528 0C19.0717 0.0107887 19.0906 0.0215771 19.1095 0.035063Z" fill="url(#paint0_linear_136_1025)"/>
<path d="M24.8142 10.6755C23.6436 10.6728 22.7212 9.73955 22.7266 8.56088C22.732 7.3984 23.676 6.47327 24.852 6.47866C25.9983 6.48406 26.9261 7.43616 26.9207 8.60404C26.9153 9.75303 25.974 10.6782 24.8142 10.6755Z" fill="#19E58C"/>
<defs>
<linearGradient id="paint0_linear_136_1025" x1="5.47323" y1="6.53617" x2="34.6096" y2="27.7495" gradientUnits="userSpaceOnUse">
<stop stop-color="#26289F"/>
<stop offset="1" stop-color="#2442BA"/>
</linearGradient>
</defs>
</svg>
