<svg width="40" height="40" viewBox="0 0 40 40" fill="none" xmlns="http://www.w3.org/2000/svg">
<path d="M35.371 21.1305C35.0113 20.6642 34.621 20.1977 34.2039 19.733C34.4852 19.4073 34.7576 19.0741 35.0209 18.7337C37.6784 15.2879 38.4329 12.162 37.1454 9.93211C35.858 7.70211 32.774 6.79266 28.4607 7.37125C27.9951 7.43432 27.5315 7.5111 27.0704 7.60148C26.9141 7.14284 26.7439 6.68904 26.5601 6.2407C24.9046 2.21633 22.5749 0 20 0C17.425 0 15.0953 2.21633 13.4399 6.2407C13.2561 6.68904 13.0859 7.14284 12.9296 7.60148C12.4685 7.51114 12.0049 7.43436 11.5393 7.37125C7.22644 6.79273 4.14207 7.70211 2.85457 9.93211C1.56707 12.1621 2.3216 15.2879 4.9791 18.7337C5.24234 19.0741 5.51478 19.4074 5.79613 19.733C5.37894 20.1977 4.98871 20.6641 4.62902 21.1305C1.97152 24.5763 1.21699 27.7022 2.50449 29.9321C3.53894 31.7238 5.73269 32.663 8.7923 32.663C9.54066 32.663 10.3414 32.6067 11.1891 32.493C11.735 32.4197 12.2946 32.3231 12.8646 32.2055C13.0439 32.7434 13.2355 33.2625 13.4399 33.7594C15.0953 37.7837 17.425 40 20 40C22.5749 40 24.9046 37.7837 26.56 33.7593C26.7644 33.2624 26.9561 32.7433 27.1353 32.2055C27.7053 32.323 28.2649 32.4197 28.8108 32.4929C29.6587 32.6066 30.459 32.6629 31.2076 32.6629C34.2669 32.6629 36.4611 31.7237 37.4954 29.932C38.783 27.7021 38.0285 24.5763 35.371 21.1305ZM30.8707 9.54109C33.0131 9.54109 34.5273 10.0849 35.1157 11.1039C35.8855 12.4373 35.1745 14.6966 33.165 17.3023C32.9695 17.5551 32.7684 17.8035 32.5618 18.0473C31.3869 16.9295 30.0643 15.8358 28.6254 14.7934C28.4267 13.0577 28.1278 11.3991 27.7371 9.85703C28.8843 9.64531 29.9376 9.54109 30.8707 9.54109ZM23.1113 25.6244C22.0578 26.2326 21.018 26.7782 20.0007 27.2634C18.9422 26.7581 17.9041 26.2113 16.8886 25.6244C15.7257 24.953 14.6128 24.2423 13.5629 23.5042C13.4719 22.3384 13.4266 21.1694 13.4271 20C13.4271 18.6408 13.4868 17.336 13.5964 16.0936C14.5526 15.4377 15.5341 14.8193 16.5385 14.2398C17.7135 13.5615 18.8711 12.962 19.9999 12.4364C21.1288 12.962 22.2864 13.5615 23.4614 14.2398C24.4658 14.8193 25.4472 15.4376 26.4034 16.0936C26.5131 17.336 26.5727 18.6408 26.5727 20C26.5727 21.2134 26.525 22.3831 26.4369 23.5042C25.3871 24.2423 24.2742 24.953 23.1113 25.6244ZM26.0794 26.5628C25.9224 27.5605 25.7319 28.5055 25.5132 29.3911C24.6439 29.1385 23.7382 28.8329 22.804 28.4728C23.3019 28.2087 23.795 27.9357 24.2832 27.6541C24.8899 27.3037 25.4888 26.9398 26.0794 26.5628ZM17.1957 28.4727C16.2614 28.8329 15.356 29.1382 14.4866 29.3908C14.2679 28.5053 14.0775 27.5604 13.9204 26.5628C14.511 26.9398 15.1099 27.3036 15.7167 27.6541C16.2048 27.9357 16.6979 28.2087 17.1957 28.4727ZM11.112 21.6362C10.3698 21.0214 9.67441 20.395 9.03277 19.7627C9.68301 19.1427 10.3836 18.5294 11.1289 17.928C11.0987 18.6183 11.0835 19.3091 11.0834 20C11.0834 20.5491 11.0933 21.0948 11.112 21.6362ZM13.9853 13.0397C14.1428 12.1059 14.33 11.2207 14.5421 10.3892C15.3749 10.622 16.2427 10.9045 17.1381 11.2373C16.5408 11.549 15.9502 11.8733 15.3667 12.2102C14.9015 12.4788 14.441 12.7554 13.9853 13.0397ZM22.8618 11.2373C23.7571 10.9044 24.625 10.6218 25.4578 10.3891C25.6699 11.2207 25.8571 12.1059 26.0146 13.0397C25.5589 12.7554 25.0984 12.4788 24.6333 12.2102C24.0498 11.8733 23.4591 11.5489 22.8618 11.2373ZM28.871 17.928C29.6163 18.5294 30.3169 19.1427 30.9671 19.7627C30.3255 20.395 29.6301 21.0214 28.8879 21.6362C28.9069 21.091 28.9164 20.5455 28.9165 20C28.9165 19.3032 28.9009 18.612 28.871 17.928ZM20 2.34375C21.6952 2.34375 23.496 4.50023 24.7832 8.1482C23.2323 8.58406 21.6246 9.16195 20 9.86836C18.3753 9.16195 16.7676 8.58414 15.2168 8.1482C16.5039 4.50023 18.3047 2.34375 20 2.34375ZM4.88426 11.104C5.47269 10.0848 6.98621 9.54117 9.12918 9.54117C10.0622 9.54117 11.1157 9.64539 12.2629 9.85719C11.8721 11.3993 11.5733 13.0579 11.3746 14.7935C9.93566 15.8359 8.61308 16.9296 7.43816 18.0474C7.23157 17.8036 7.03048 17.5552 6.83504 17.3023C4.82543 14.6966 4.11441 12.4374 4.88426 11.104ZM8.7791 30.323C6.63676 30.3229 5.12254 29.7792 4.53418 28.7602C3.76433 27.4268 4.47535 25.1676 6.48488 22.5619C6.77969 22.1805 7.08697 21.8089 7.40621 21.4477C8.56785 22.5898 9.88637 23.71 11.3279 24.7797C11.5177 26.5973 11.8157 28.336 12.214 29.9498C10.9493 30.2006 9.7934 30.3231 8.7791 30.323ZM20 37.6562C18.2718 37.6562 16.4343 35.4148 15.1427 31.6374C16.7197 31.179 18.3527 30.5753 20 29.8416C21.6472 30.5753 23.2802 31.179 24.8572 31.6374C23.5657 35.4148 21.7281 37.6562 20 37.6562ZM35.4657 28.7602C34.5989 30.2618 31.7229 30.7306 27.7858 29.9498C28.1843 28.336 28.4821 26.5973 28.6719 24.7797C30.1136 23.71 31.4321 22.5898 32.5936 21.4477C32.9129 21.8089 33.2201 22.1805 33.515 22.5619C35.5246 25.1676 36.2357 27.4268 35.4657 28.7602Z" fill="url(#paint0_linear_151_244)"/>
<path d="M20 23.6211C21.9999 23.6211 23.6211 21.9999 23.6211 20C23.6211 18.0001 21.9999 16.3789 20 16.3789C18.0001 16.3789 16.3789 18.0001 16.3789 20C16.3789 21.9999 18.0001 23.6211 20 23.6211Z" fill="#19E58C"/>
<defs>
<linearGradient id="paint0_linear_151_244" x1="4.66741" y1="6.70376" x2="35.2755" y2="31.0929" gradientUnits="userSpaceOnUse">
<stop stop-color="#26289F"/>
<stop offset="1" stop-color="#2442BA"/>
</linearGradient>
</defs>
</svg>
