<svg width="40" height="23" viewBox="0 0 40 23" fill="none" xmlns="http://www.w3.org/2000/svg">
<path d="M34.8115 7.73671C34.5919 6.21775 34.0337 4.84521 33.0769 3.64259C31.9932 2.27789 30.5919 1.38377 28.9265 0.897494C28.3618 0.732788 27.7893 0.602069 27.1958 0.607297C27.1043 0.608605 27.0141 0.594222 26.9239 0.558928C27.1213 0.540627 27.3187 0.522329 27.5161 0.504028H25.1305C25.2337 0.523636 25.3357 0.543246 25.439 0.562853C25.439 0.569389 25.439 0.575922 25.4403 0.583765C25.405 0.587687 25.371 0.598146 25.337 0.598146C24.3684 0.60076 23.4403 0.830827 22.5279 1.12625C20.1475 1.89619 18.1122 3.22167 16.3984 5.03213C15.0664 6.43997 14.2716 8.14455 13.7893 10.0073C13.3867 11.5629 13.2298 13.1472 13.2808 14.7472C13.3292 16.2687 13.5252 17.7746 14.0546 19.2138C14.1958 19.5981 14.3958 19.9655 14.5984 20.3236C14.8167 20.7066 15.1984 20.8988 15.5867 21.0648C16.3775 21.3995 17.2076 21.5916 18.0481 21.7445C19.6507 22.0374 21.2664 22.0256 22.8821 21.9445C24.6377 21.8557 26.3174 21.4361 27.9148 20.6949C29.2821 20.0622 30.4311 19.1498 31.3997 17.9995C31.5383 17.8347 31.6416 17.6674 31.6991 17.4544C31.8324 16.9576 32.0612 16.5001 32.3448 16.0713C32.3618 16.0439 32.3775 16.0151 32.3919 15.9851C32.3932 15.9812 32.3919 15.9746 32.3893 15.9707C32.1553 16.0439 31.9174 16.1119 31.6847 16.1942C31.6194 16.2178 31.5514 16.274 31.5148 16.3328C30.9344 17.2779 30.1187 17.9955 29.2612 18.674C29.022 18.8635 28.7488 18.9733 28.4337 18.972C28.1488 18.9707 27.9409 18.853 27.8076 18.606C27.6586 18.3263 27.6011 18.0243 27.6102 17.7079C27.6115 17.6465 27.6102 17.5838 27.6102 17.5001C27.418 17.738 27.2586 17.9642 27.0703 18.1628C26.8769 18.3668 26.6756 18.5759 26.4403 18.7276C25.7292 19.1825 24.9292 19.0517 24.5775 18.0831C24.5357 17.9668 24.5082 17.8452 24.4795 17.7459C24.1514 18.0047 23.8272 18.2753 23.486 18.5236C22.9488 18.9119 22.3448 19.0452 21.6913 18.9419C21.0494 18.84 20.5462 18.3485 20.4128 17.7053C20.4102 17.6962 20.4024 17.687 20.3906 17.6674C20.2651 17.7759 20.1475 17.8949 20.0141 17.9903C19.652 18.2491 19.2939 18.5145 18.9135 18.7459C18.5854 18.9459 18.2089 18.9929 17.8259 18.9668C17.4442 18.9393 17.1867 18.7132 16.9801 18.4178C16.7043 18.0204 16.6729 17.5642 16.6899 17.1027C16.7357 15.8361 17.0926 14.6387 17.5357 13.4648C17.7618 12.8661 18.0429 12.2883 18.2991 11.7001C18.3592 11.5602 18.4481 11.4583 18.6024 11.4047C18.9984 11.2713 19.388 11.1184 19.7841 10.9851C20.0259 10.9027 20.1501 10.9576 20.2167 11.2086C20.2756 11.4308 20.3043 11.6687 20.3043 11.9001C20.3082 13.1485 19.7932 14.2086 19.0664 15.1825C18.8154 15.5184 18.5331 15.8295 18.269 16.155C18.2259 16.2073 18.1762 16.2753 18.1749 16.3367C18.1645 16.7053 18.1671 17.0753 18.1671 17.4439C18.1671 17.4753 18.1762 17.5079 18.1867 17.5393C18.3265 18.0125 18.6651 18.1877 19.1148 17.9825C19.3435 17.8792 19.5488 17.7171 19.7501 17.5615C19.9305 17.423 20.0991 17.2648 20.256 17.0988C20.3239 17.0269 20.3801 16.9158 20.388 16.8191C20.4913 15.6766 21.4939 14.44 22.537 14.1851C22.8782 14.1027 23.2154 14.1001 23.5475 14.2334C24.039 14.4308 24.2677 14.9158 24.103 15.4191C24.0089 15.7027 23.8324 15.9249 23.6024 16.1093C23.086 16.521 22.4795 16.7446 21.8599 16.938C21.8141 16.9524 21.7684 16.9668 21.7226 16.9811C21.92 17.9498 22.7213 18.2923 23.4965 17.8361C23.8337 17.6387 24.1135 17.3406 24.4089 17.0766C24.4664 17.0256 24.4886 16.9249 24.5096 16.8426C24.8377 15.5249 25.6429 14.6387 26.9187 14.1851C27.337 14.0374 27.7475 14.0583 28.0926 14.3812C28.1945 14.4766 28.2677 14.6008 28.354 14.7106C28.8324 14.5406 29.205 14.1093 29.7893 14.0988C29.7645 14.2047 29.7514 14.2831 29.7292 14.3589C29.5226 15.057 29.3056 15.7524 29.1096 16.453C29.0285 16.7446 28.988 17.0491 28.9292 17.3472C28.9265 17.3629 28.9265 17.3798 28.9265 17.3955C28.9305 17.572 28.937 17.7563 29.1109 17.857C29.2782 17.9524 29.4363 17.8648 29.5631 17.7642C30.1344 17.3066 30.6468 16.7916 31.0573 16.1681C30.9736 16.1106 30.8913 16.0674 30.8246 16.006C30.5919 15.7968 30.5344 15.5276 30.6363 15.2465C30.7357 14.9746 30.8586 14.704 31.0128 14.4596C31.1592 14.2269 31.4102 14.1276 31.6873 14.121C31.9762 14.1132 32.1592 14.2622 32.1448 14.5485C32.1318 14.8112 32.0573 15.07 32.005 15.3302C31.9919 15.3929 31.9645 15.453 31.9305 15.5485C32.0167 15.5315 32.0821 15.5263 32.1422 15.5053C32.605 15.3419 32.9344 15.0204 33.2024 14.623C33.2599 14.5367 33.3135 14.4491 33.3671 14.3602C33.5161 14.1158 33.5514 14.1001 33.8716 14.1537H33.873L33.9109 14.1341V14.1249C33.9122 14.0844 33.903 14.04 33.9187 14.0047C34.2913 13.1315 34.5671 12.2282 34.737 11.2949C34.9501 10.1145 34.9854 8.92886 34.8115 7.73671ZM23.171 12.3629C23.0756 12.3798 22.9762 12.3838 22.9043 12.3916C22.6063 12.389 22.3723 12.3119 22.2533 12.04C22.2128 11.9472 22.1671 11.8347 22.286 11.7655C22.3997 11.6988 22.5279 11.7589 22.5723 11.9001C22.6246 12.0674 22.7592 12.1027 22.9017 12.1158C23.0586 12.1302 23.2102 12.0962 23.3043 11.955C23.3828 11.8387 23.3279 11.7406 23.2194 11.6857C23.1239 11.6374 23.0154 11.6164 22.9122 11.5851C22.8024 11.5524 22.6912 11.5276 22.5841 11.491C22.4076 11.4308 22.2769 11.321 22.2547 11.1249C22.2298 10.9132 22.3056 10.7393 22.4834 10.6191C22.852 10.3694 23.3854 10.4792 23.5579 10.8426C23.588 10.9066 23.6743 10.9981 23.5605 11.0491C23.4664 11.0923 23.337 11.1302 23.2716 10.9995C23.1671 10.7942 22.9984 10.772 22.8024 10.8047C22.6939 10.823 22.5958 10.8648 22.5893 10.9916C22.5841 11.1171 22.6599 11.1903 22.7788 11.223C22.9305 11.2648 23.0821 11.3066 23.2324 11.3498C23.5475 11.4413 23.6677 11.5838 23.6546 11.8439C23.6403 12.104 23.4533 12.3093 23.171 12.3629ZM24.3109 11.9145C24.4037 12.0491 24.5383 12.1197 24.7017 12.104C24.8533 12.0896 24.9645 12.0138 25.0207 11.8635C25.0638 11.7472 25.1252 11.6347 25.2756 11.6622C25.371 11.6792 25.3841 11.8308 25.3148 11.9955C25.2102 12.2491 24.9723 12.3942 24.6612 12.3955C24.2756 12.3968 24.0141 12.189 23.9161 11.8178C23.8403 11.5289 23.8416 11.2465 23.9553 10.9694C24.0782 10.6674 24.3148 10.5053 24.635 10.4923C24.9265 10.4818 25.1658 10.5955 25.3043 10.8713C25.3069 10.8753 25.3109 10.8805 25.3122 10.8857C25.3435 10.9851 25.422 11.0962 25.2939 11.1759C25.1945 11.2387 25.0756 11.1681 25.0102 11.023C24.8821 10.7446 24.537 10.704 24.3462 10.9459C24.1435 11.2008 24.1252 11.6478 24.3109 11.9145ZM25.7788 12.3263C25.6834 12.338 25.6429 12.3001 25.6442 12.1981C25.6481 11.6857 25.6455 11.1746 25.6455 10.6635C25.6455 10.6374 25.6494 10.6112 25.6533 10.5785H25.9527V11.0779C25.954 11.4478 25.9488 11.8178 25.9605 12.1877C25.9658 12.3432 25.8651 12.3158 25.7788 12.3263ZM25.7814 10.2596C25.635 10.2648 25.635 10.1602 25.635 10.0583C25.6363 9.94063 25.652 9.84128 25.8128 9.85043C25.971 9.85828 25.9841 9.95501 25.971 10.0857C26.0089 10.24 25.8978 10.2544 25.7814 10.2596ZM27.4939 12.2648C27.4259 12.2295 27.388 12.1302 27.3422 12.057C27.2324 11.8753 27.1239 11.6936 27.0167 11.5106C26.9553 11.4021 26.8965 11.3942 26.805 11.487C26.703 11.5903 26.6442 11.6975 26.6625 11.8478C26.6743 11.9498 26.6586 12.0544 26.6677 12.1576C26.6782 12.2766 26.6337 12.3262 26.5135 12.3249C26.3984 12.3249 26.3697 12.2713 26.3697 12.1629C26.3736 11.4557 26.3736 10.7472 26.3684 10.04C26.3684 9.9171 26.4037 9.86089 26.5331 9.86089C26.6769 9.86089 26.6664 9.94978 26.6664 10.0465C26.6638 10.4439 26.6651 10.84 26.6651 11.2896C26.8782 11.074 27.0625 10.9001 27.2337 10.7132C27.3684 10.5655 27.5213 10.538 27.7448 10.5929C27.6442 10.6962 27.5658 10.7877 27.4782 10.8687C27.1605 11.1602 27.1605 11.1589 27.3919 11.5276C27.5135 11.721 27.6377 11.9119 27.7514 12.1093C27.7867 12.1707 27.7906 12.2491 27.8089 12.3197C27.703 12.304 27.5854 12.3106 27.4939 12.2648ZM28.2233 12.3328C28.1056 12.3328 28.0455 12.2988 28.0468 12.1642C28.052 11.6805 28.0494 11.1968 28.0442 10.7132C28.0442 10.6112 28.0664 10.5563 28.1788 10.5681C28.2324 10.5746 28.286 10.5694 28.354 10.5694V11.7459C28.3553 11.887 28.354 12.0282 28.3631 12.1694C28.371 12.2766 28.3435 12.3341 28.2233 12.3328ZM28.2167 10.2635C28.0546 10.2622 28.0364 10.1681 28.0403 10.04C28.0429 9.93017 28.0586 9.85043 28.1984 9.85043C28.3527 9.85043 28.3854 9.92756 28.3618 10.0491C28.3723 10.1668 28.3762 10.2661 28.2167 10.2635ZM29.3396 12.1419C29.3906 12.1485 29.4337 12.2125 29.4808 12.2491C29.4363 12.2975 29.3958 12.3785 29.3448 12.3851C29.2403 12.3981 29.12 12.3981 29.0272 12.3563C28.9618 12.3276 28.8939 12.2217 28.8913 12.1472C28.8795 11.7132 28.886 11.2779 28.886 10.8269C28.7422 10.7981 28.5566 10.8204 28.6455 10.5798C28.7096 10.5733 28.7775 10.5668 28.8625 10.5576V10.1864C28.8625 10.07 28.9279 10.0452 29.0324 10.0465C29.1462 10.0465 29.1527 10.1093 29.1514 10.1942C29.1475 10.3132 29.1501 10.4321 29.1501 10.5694C29.2207 10.5694 29.2847 10.5537 29.3344 10.5733C29.3919 10.5955 29.4377 10.6491 29.4886 10.6896C29.4416 10.7262 29.4011 10.7746 29.3475 10.7955C29.2952 10.8164 29.2324 10.8086 29.1631 10.8138C29.1592 10.8583 29.1514 10.8936 29.1514 10.9302C29.1501 11.2504 29.1527 11.572 29.1488 11.8936C29.1475 12.0308 29.1814 12.1236 29.3396 12.1419Z" fill="url(#paint0_linear_138_197)"/>
<path d="M40 17.0072V17.5955C39.8275 17.7602 39.6615 17.9314 39.4824 18.0896C39.051 18.47 38.5922 18.8085 38.0092 18.921C37.7216 18.9772 37.451 18.938 37.251 18.6974C37.0419 18.4478 36.9556 18.1589 37.0092 17.8308C37.1151 17.1824 37.353 16.5759 37.587 15.9667C37.6575 15.785 37.7111 15.5955 37.753 15.4046C37.766 15.3445 37.7307 15.2451 37.6824 15.2099C37.6353 15.1759 37.5399 15.185 37.4758 15.2072C37.4013 15.2321 37.3281 15.2817 37.2732 15.3393C36.902 15.7223 36.5229 16.0987 36.1739 16.5C36.0484 16.6451 35.9556 16.8478 35.9203 17.0373C35.8575 17.3824 35.8432 17.7366 35.8196 18.0883C35.8066 18.2778 35.817 18.4674 35.817 18.6582C35.4 18.7563 35.0026 18.8491 34.5922 18.9458C34.5674 18.5014 34.5438 18.0883 34.519 17.6569C34.2915 17.8543 34.0915 18.0373 33.8811 18.2085C33.5125 18.5066 33.1334 18.7902 32.6641 18.917C32.3739 18.9955 32.1268 18.9353 31.9242 18.7079C31.7386 18.5 31.6484 18.2504 31.6432 17.9785C31.6406 17.8726 31.6876 17.755 31.7438 17.6621C31.817 17.5419 31.9229 17.4425 32.0105 17.3327C32.7386 16.4085 33.3268 15.402 33.8157 14.3353C33.8419 14.2778 33.8536 14.2164 33.8732 14.1536L33.9111 14.134C33.9111 14.2099 33.9294 14.2909 33.9059 14.3576C33.783 14.717 33.6366 15.0687 33.5177 15.4295C33.3255 16.0164 33.1347 16.6059 32.9674 17.2007C32.8902 17.4713 33.0053 17.7288 33.1883 17.836C33.3582 17.9353 33.6105 17.8844 33.8301 17.6922C34.0628 17.487 34.2902 17.2752 34.5138 17.0608C34.5582 17.019 34.5974 16.9536 34.6053 16.8961C34.7125 16.1066 34.9909 15.3706 35.2994 14.6438C35.3752 14.4648 35.4641 14.3419 35.685 14.3458C35.817 14.3484 35.9517 14.2987 36.085 14.2726C36.2837 14.236 36.4837 14.1994 36.6968 14.1589C36.5151 14.7497 36.2732 15.3 36.1752 15.9092C36.2209 15.8987 36.234 15.9 36.2392 15.8935C36.2745 15.8595 36.3098 15.8242 36.3412 15.7876C36.7634 15.3092 37.2053 14.8504 37.7347 14.487C37.8981 14.3746 38.0798 14.2713 38.268 14.2151C38.8745 14.0321 39.3242 14.4282 39.1883 15.0465C39.0745 15.5641 38.8994 16.07 38.7412 16.5772C38.6157 16.9785 38.3987 17.3563 38.4288 17.7981C38.4406 17.9746 38.5007 18.0451 38.6758 18.053C38.8811 18.0608 39.0497 17.9628 39.1883 17.8308C39.4667 17.5654 39.7308 17.2831 40 17.0072Z" fill="#19E58C"/>
<path d="M0 13.5184C0.0226144 13.6423 0.0452293 13.7662 0.0679744 13.8901C0.076079 13.89 0.0841831 13.8897 0.0924184 13.8896C0.100392 13.827 0.116602 13.7641 0.115295 13.7016C0.098824 12.8614 0.418563 12.1269 0.859608 11.4432C1.51203 10.432 2.46091 9.81954 3.6085 9.50281C4.87033 9.15444 6.11386 9.27941 7.32954 9.70699C8.84013 10.2384 10.1369 11.0955 11.1218 12.3731C11.7541 13.1933 12.1058 14.1449 12.3029 15.1563C12.6282 16.8258 12.5546 18.4765 12.0929 20.1144C11.9077 20.7716 11.5161 21.1916 10.8596 21.4027C9.85333 21.7262 8.82719 21.856 7.77386 21.8407C6.79163 21.8265 5.83582 21.6727 4.90627 21.3606C3.72575 20.9642 2.74837 20.2754 1.95569 19.3137C1.06131 18.2284 0.413988 17.0231 0.158171 15.6321C0.104053 15.3378 0.150326 15.025 0.150326 14.7208C0.135032 14.7199 0.119738 14.7191 0.104444 14.7182C0.0696727 14.9174 0.0349029 15.1167 0.000131644 15.3159C9.25494e-07 14.7167 0 14.1174 0 13.5184Z" fill="#19E58C"/>
<path d="M20.7842 22.0804C20.9507 22.0697 21.1174 22.0488 21.2839 22.0504C21.5967 22.0535 21.9094 22.0697 22.2221 22.0804C21.7427 22.0804 21.2635 22.0804 20.7842 22.0804Z" fill="black"/>
<path d="M27.919 15.2975C27.8667 16.1158 27.5726 16.8543 27.0732 17.5092C26.919 17.7118 26.7242 17.8896 26.4419 17.8988C26.2066 17.9066 26.068 17.8125 25.9739 17.5942C25.851 17.3066 25.9033 17.0138 25.9608 16.7275C26.0758 16.155 26.2994 15.6243 26.6419 15.1537C26.77 14.9772 26.9373 14.8112 27.1229 14.7014C27.5124 14.4713 27.8497 14.6596 27.9072 15.1079C27.9151 15.1667 27.9151 15.2269 27.919 15.2975Z" fill="url(#paint1_linear_138_197)"/>
<path d="M19.8525 12.1851C19.7283 13.257 19.2551 14.1838 18.6211 15.0387C18.5388 15.1511 18.4486 15.2596 18.3623 15.3694C18.6054 14.223 18.8329 13.0766 19.3492 12.0165C19.4002 11.9106 19.4669 11.8087 19.5388 11.7145C19.6381 11.5838 19.7296 11.5877 19.7845 11.7433C19.8342 11.8819 19.8695 12.0413 19.8525 12.1851Z" fill="url(#paint2_linear_138_197)"/>
<path d="M22.4524 16.2151C22.2185 16.3641 21.957 16.4674 21.7073 16.5916C21.6956 16.5746 21.6825 16.5589 21.6694 16.5419C21.6943 15.87 21.8132 15.2321 22.3505 14.751C22.4825 14.6334 22.6472 14.5811 22.8211 14.6491C23.0002 14.721 23.0276 14.887 23.0381 15.0543C23.0707 15.5563 22.8694 15.9484 22.4524 16.2151Z" fill="url(#paint3_linear_138_197)"/>
<defs>
<linearGradient id="paint0_linear_138_197" x1="14.9311" y1="4.10565" x2="31.6799" y2="18.9555" gradientUnits="userSpaceOnUse">
<stop stop-color="#26289F"/>
<stop offset="1" stop-color="#2442BA"/>
</linearGradient>
<linearGradient id="paint1_linear_138_197" x1="26.0538" y1="15.1553" x2="28.216" y2="16.3215" gradientUnits="userSpaceOnUse">
<stop stop-color="#26289F"/>
<stop offset="1" stop-color="#2442BA"/>
</linearGradient>
<linearGradient id="paint2_linear_138_197" x1="18.4769" y1="12.2494" x2="20.3155" y2="12.8946" gradientUnits="userSpaceOnUse">
<stop stop-color="#26289F"/>
<stop offset="1" stop-color="#2442BA"/>
</linearGradient>
<linearGradient id="paint3_linear_138_197" x1="21.7746" y1="14.9495" x2="23.1537" y2="15.7936" gradientUnits="userSpaceOnUse">
<stop stop-color="#26289F"/>
<stop offset="1" stop-color="#2442BA"/>
</linearGradient>
</defs>
</svg>
