<svg width="159" height="575" viewBox="0 0 159 575" fill="none" xmlns="http://www.w3.org/2000/svg">
<path d="M48.0651 566.157C42.4943 566.663 38.1642 568.917 35.0749 572.918C31.935 576.868 30.3651 582.515 30.3651 589.858C30.3651 594.72 30.9981 598.771 32.2642 602.012C33.5303 605.254 35.2775 607.685 37.5058 609.305C39.6835 610.926 42.1904 611.761 45.0265 611.812C47.3561 611.913 49.4071 611.457 51.1797 610.445C52.9522 609.381 54.5222 607.862 55.8896 605.887C57.2063 603.861 58.3711 601.43 59.384 598.594C60.3969 595.758 61.2831 592.567 62.0428 589.022L65.0814 575.652C66.7527 567.954 68.981 561.168 71.7664 555.293C74.5518 549.368 77.869 544.405 81.7179 540.404C85.5669 536.353 89.9982 533.289 95.0119 531.212C100.026 529.136 105.647 528.072 111.876 528.022C121.701 528.072 130.133 530.554 137.173 535.466C144.212 540.379 149.606 547.444 153.354 556.661C157.101 565.827 158.975 576.893 158.975 589.858C158.975 602.873 157.025 614.218 153.126 623.891C149.226 633.564 143.301 641.084 135.35 646.452C127.399 651.821 117.346 654.581 105.191 654.733L105.191 618.725C110.205 618.421 114.383 617.079 117.726 614.699C121.068 612.318 123.6 609.052 125.322 604.899C127.044 600.696 127.905 595.834 127.905 590.314C127.905 585.249 127.221 580.945 125.854 577.399C124.487 573.804 122.588 571.044 120.157 569.119C117.726 567.195 114.94 566.207 111.8 566.157C108.863 566.207 106.356 567.119 104.28 568.891C102.153 570.664 100.33 573.399 98.8102 577.096C97.2403 580.742 95.7969 585.401 94.4802 591.073L90.6819 607.33C87.5926 620.801 82.6042 631.411 75.7166 639.16C68.7784 646.908 59.4093 650.757 47.6093 650.706C37.987 650.757 29.5548 648.174 22.3127 642.958C15.0706 637.742 9.42382 630.525 5.37231 621.308C1.3208 612.091 -0.704956 601.582 -0.704957 589.782C-0.704957 577.729 1.34612 567.271 5.44827 558.408C9.49978 549.495 15.1972 542.582 22.5406 537.669C29.8839 532.757 38.3921 530.25 48.0651 530.149L48.0651 566.157ZM157 509.03L1.42208 509.03L1.42208 471.427L67.2085 471.427L67.2085 469.376L1.42208 417.947L1.42208 373.659L70.8548 428.81L157 372.672L157 417.643L95.8476 456.386L114.839 471.427L157 471.427L157 509.03ZM1.42207 321.224L157 321.224L157 358.827L1.42208 358.827L1.42207 321.224ZM157 297.618L1.42207 297.618L1.42207 260.014L126.462 260.014L126.462 195.292L157 195.292L157 297.618ZM157 175.825L1.42207 175.825L1.42207 138.222L126.462 138.222L126.462 73.4994L157 73.4994L157 175.825ZM48.065 -30.0609C42.4942 -29.5545 38.1642 -27.3008 35.0749 -23.3C31.935 -19.3497 30.365 -13.7029 30.365 -6.35958C30.365 -1.49777 30.9981 2.55374 32.2642 5.79494C33.5303 9.03615 35.2775 11.4671 37.5058 13.0877C39.6835 14.7083 42.1904 15.5439 45.0264 15.5945C47.356 15.6958 49.4071 15.24 51.1797 14.2271C52.9522 13.1636 54.5221 11.6443 55.8895 9.66919C57.2063 7.64344 58.3711 5.21254 59.384 2.37648C60.3968 -0.459574 61.2831 -3.65014 62.0428 -7.19521L65.0814 -20.5652C66.7526 -28.2631 68.981 -35.0493 71.7664 -40.924C74.5518 -46.8494 77.869 -51.8125 81.7179 -55.8133C85.5668 -59.8648 89.9982 -62.9288 95.0119 -65.0052C100.026 -67.0816 105.647 -68.1451 111.876 -68.1957C121.701 -68.1451 130.133 -65.6635 137.173 -60.7511C144.212 -55.8386 149.606 -48.7738 153.354 -39.5566C157.101 -30.3901 158.975 -19.3244 158.975 -6.35959C158.975 6.65588 157.025 18.0001 153.126 27.6731C149.226 37.3461 143.301 44.8667 135.35 50.2349C127.399 55.6032 117.346 58.3633 105.191 58.5152L105.191 22.5074C110.205 22.2035 114.383 20.8615 117.726 18.4812C121.068 16.101 123.6 12.8344 125.322 8.68164C127.044 4.4782 127.905 -0.383613 127.905 -5.90379C127.905 -10.9682 127.221 -15.2729 125.854 -18.818C124.487 -22.4137 122.587 -25.1738 120.157 -27.0982C117.726 -29.0227 114.94 -30.0103 111.8 -30.0609C108.863 -30.0103 106.356 -29.0987 104.28 -27.3261C102.153 -25.5536 100.33 -22.8188 98.8102 -19.1218C97.2402 -15.4755 95.7969 -10.8162 94.4802 -5.14414L90.6819 11.1125C87.5926 24.5838 82.6042 35.1937 75.7166 42.9422C68.7784 50.6907 59.4093 54.5397 47.6093 54.489C37.9869 54.5397 29.5547 51.9568 22.3127 46.7405C15.0706 41.5242 9.42379 34.3074 5.37229 25.0903C1.32077 15.8731 -0.704982 5.36447 -0.704983 -6.43555C-0.704984 -18.4888 1.34609 -28.9467 5.44824 -37.8094C9.49975 -46.7227 15.1972 -53.6356 22.5406 -58.5481C29.8839 -63.4605 38.3921 -65.9674 48.065 -66.0687L48.065 -30.0609Z" fill="white" fill-opacity="0.07"/>
</svg>
