<svg width="40" height="40" viewBox="0 0 40 40" fill="none" xmlns="http://www.w3.org/2000/svg">
<path d="M15.8975 37C15.8075 36.9665 15.7184 36.93 15.6273 36.8999C14.8061 36.6277 14.2444 35.8668 14.2389 34.9808C14.2301 33.5593 14.2359 32.1377 14.2356 30.7161C14.2356 30.6166 14.2356 30.5171 14.2356 30.3623C14.1045 30.4368 14.0071 30.4902 13.9114 30.5469C12.7224 31.2509 11.5399 31.9669 10.3428 32.6561C9.39879 33.1995 8.28157 32.9218 7.69201 32.0306C7.02225 31.0183 7.32443 29.7013 8.38144 29.0662C9.50456 28.3913 10.6332 27.7262 11.7596 27.0571C12.8705 26.3972 13.9804 25.7353 15.0931 25.0786C16.5782 24.2022 18.2324 25.1817 18.2362 26.9449C18.2417 29.5404 18.238 32.1359 18.2375 34.7314C18.2372 35.9413 17.7179 36.6421 16.5831 36.9692C16.5672 36.9738 16.5542 36.9895 16.5399 37C16.3257 37 16.1116 37 15.8975 37Z" fill="url(#paint0_linear_138_619)"/>
<path d="M23.4456 37C23.4151 36.9838 23.3862 36.9609 23.3537 36.9522C22.3452 36.6829 21.7763 35.9359 21.7746 34.8539C21.7709 32.3314 21.7736 29.809 21.773 27.2866C21.7729 27.0941 21.756 26.9009 21.7668 26.7093C21.8516 25.2007 23.3902 24.2833 24.6897 24.9924C25.61 25.4946 26.5008 26.0543 27.4039 26.59C28.8087 27.4232 30.2194 28.2463 31.615 29.0955C32.7115 29.7627 32.9384 31.2126 32.1282 32.2081C31.5033 32.9759 30.4466 33.1551 29.5562 32.6317C28.3803 31.9405 27.2095 31.2402 26.0362 30.5444C25.9618 30.5002 25.8845 30.461 25.7655 30.3958C25.7655 30.536 25.7655 30.6329 25.7655 30.7298C25.7655 32.069 25.7663 33.4082 25.7652 34.7474C25.7643 35.9521 25.2621 36.6318 24.1292 36.9672C24.1137 36.9717 24.1017 36.9888 24.088 37.0001C23.8739 37 23.6598 37 23.4456 37Z" fill="url(#paint1_linear_138_619)"/>
<path d="M3.85265 15.9742C3.99009 15.5051 4.16807 15.0609 4.56218 14.7488C5.24251 14.2102 5.98978 14.0936 6.73631 14.528C9.06112 15.881 11.3794 17.2467 13.6776 18.6468C14.953 19.4238 14.934 21.357 13.654 22.1314C11.3669 23.5149 9.06648 24.8756 6.75898 26.223C5.64338 26.8744 4.26585 26.2555 3.91762 24.9873C3.89853 24.9178 3.87436 24.8497 3.85259 24.7809C3.85259 24.5607 3.85259 24.3406 3.85259 24.1204C4.04622 23.2966 4.60046 22.82 5.29724 22.4323C6.37838 21.8308 7.43132 21.1757 8.49594 20.5429C8.57587 20.4954 8.65366 20.444 8.7583 20.378C8.64411 20.307 8.56992 20.2588 8.49396 20.2137C7.42907 19.5815 6.37596 18.9267 5.2945 18.3259C4.59655 17.9382 4.04735 17.4568 3.85254 16.6349C3.85265 16.4145 3.85265 16.1943 3.85265 15.9742Z" fill="url(#paint2_linear_138_619)"/>
<path d="M3.85303 16.6346C4.04783 17.4566 4.59703 17.938 5.29499 18.3257C6.37645 18.9265 7.42955 19.5812 8.49445 20.2135C8.57041 20.2586 8.6446 20.3067 8.75878 20.3778C8.65414 20.4437 8.57636 20.4952 8.49643 20.5427C7.43181 21.1755 6.37886 21.8306 5.29773 22.4321C4.60095 22.8197 4.04671 23.2964 3.85308 24.1202C3.85303 21.6251 3.85303 19.1299 3.85303 16.6346Z" fill="white"/>
<path d="M14.2356 10.3991C14.2356 10.2544 14.2356 10.1565 14.2356 10.0586C14.2358 8.62826 14.23 7.19797 14.2382 5.76778C14.2443 4.71681 14.991 3.86541 15.9924 3.74264C17.0023 3.61888 17.9153 4.25705 18.1654 5.27565C18.215 5.47753 18.2343 5.69231 18.2346 5.90119C18.2391 8.52336 18.2165 11.1457 18.2451 13.7676C18.2641 15.5087 16.4985 16.5643 15.0432 15.6637C12.8535 14.3084 10.6195 13.0288 8.40742 11.7115C7.65055 11.2609 7.26437 10.575 7.35673 9.67735C7.44738 8.79635 7.9375 8.19711 8.76444 7.92025C9.34039 7.72742 9.88895 7.82676 10.4088 8.13592C11.5731 8.82832 12.7388 9.51809 13.9041 10.2086C14.0018 10.2665 14.1009 10.3218 14.2356 10.3991Z" fill="url(#paint3_linear_138_619)"/>
<path d="M31.277 20.3791C31.7019 20.6325 32.0847 20.8612 32.4679 21.0891C33.3706 21.6258 34.2846 22.1432 35.1736 22.7029C36.3584 23.4487 36.4779 25.1195 35.434 26.0351C34.7769 26.6114 33.8776 26.6886 33.0892 26.2232C31.6671 25.3837 30.2486 24.5377 28.8286 23.6945C28.0183 23.2133 27.2067 22.7343 26.3978 22.2505C24.9067 21.3585 24.9111 19.3909 26.4066 18.5023C28.6366 17.1771 30.8648 15.8489 33.0998 14.5329C34.3388 13.8033 35.8089 14.4778 36.1044 15.8945C36.2823 16.7475 35.8998 17.621 35.1209 18.0903C33.9984 18.7669 32.8686 19.4305 31.7419 20.0999C31.6034 20.1821 31.4656 20.2657 31.277 20.3791Z" fill="url(#paint4_linear_138_619)"/>
<path d="M25.7651 10.3621C25.8818 10.2996 25.9594 10.2617 26.0334 10.2178C27.2068 9.52203 28.3762 8.81887 29.5538 8.13098C30.809 7.39784 32.2847 8.07387 32.5729 9.50307C32.7475 10.3693 32.3465 11.2343 31.5283 11.7229C30.2182 12.5052 28.9039 13.2799 27.591 14.0572C26.6257 14.6287 25.6724 15.2231 24.6912 15.7642C23.5239 16.4081 22.1064 15.7292 21.8178 14.4057C21.7565 14.1247 21.775 13.823 21.7747 13.5307C21.7719 10.9715 21.7704 8.41214 21.7746 5.85287C21.7763 4.83614 22.3394 4.05685 23.2384 3.79962C24.4638 3.44912 25.7159 4.34831 25.7496 5.65546C25.7872 7.11293 25.7626 8.57217 25.7651 10.0306C25.7653 10.1284 25.7651 10.2261 25.7651 10.3621Z" fill="url(#paint5_linear_138_619)"/>
<path d="M19.9451 24.1756C19.5458 24.257 19.2339 24.0636 18.9393 23.751C18.1635 22.9279 17.3685 22.1237 16.5752 21.3183C16.3652 21.1051 16.2512 20.8662 16.2695 20.56C16.2788 20.4046 16.2415 20.2403 16.2783 20.0942C16.3318 19.8813 16.3834 19.6317 16.5224 19.4835C17.3765 18.5726 18.2474 17.6777 19.1331 16.7991C19.2784 16.655 19.5181 16.5913 19.7258 16.5403C19.8945 16.4988 20.0882 16.4991 20.2571 16.5402C20.4651 16.5908 20.7061 16.6528 20.8511 16.7968C21.7365 17.6757 22.6068 18.5713 23.4604 19.4827C23.5996 19.6313 23.6549 19.8805 23.7048 20.0941C23.7433 20.2588 23.7438 20.4485 23.7049 20.613C23.6524 20.8353 23.5984 21.096 23.4541 21.2503C22.6076 22.156 21.7318 23.0327 20.8723 23.9258C20.616 24.192 20.3035 24.198 19.9451 24.1756ZM21.336 20.3701C21.2628 20.2259 21.2205 20.0783 21.1297 19.9763C20.883 19.6993 20.6227 19.4339 20.3545 19.1785C20.1285 18.9633 19.8577 18.9616 19.6315 19.176C19.3628 19.4307 19.1044 19.6979 18.8545 19.9721C18.6256 20.2235 18.6308 20.5057 18.8623 20.7572C19.1014 21.0168 19.3477 21.27 19.5991 21.5171C19.8503 21.764 20.1309 21.7647 20.3827 21.5186C20.6348 21.2723 20.8839 21.0216 21.1185 20.758C21.21 20.6552 21.2586 20.5121 21.336 20.3701Z" fill="#19E58C"/>
<defs>
<linearGradient id="paint0_linear_138_619" x1="8.17215" y1="26.8051" x2="17.5073" y2="34.1183" gradientUnits="userSpaceOnUse">
<stop stop-color="#26289F"/>
<stop offset="1" stop-color="#2442BA"/>
</linearGradient>
<linearGradient id="paint1_linear_138_619" x1="22.5949" y1="26.8018" x2="31.9214" y2="34.0708" gradientUnits="userSpaceOnUse">
<stop stop-color="#26289F"/>
<stop offset="1" stop-color="#2442BA"/>
</linearGradient>
<linearGradient id="paint2_linear_138_619" x1="4.67821" y1="16.311" x2="13.9714" y2="23.5186" gradientUnits="userSpaceOnUse">
<stop stop-color="#26289F"/>
<stop offset="1" stop-color="#2442BA"/>
</linearGradient>
<linearGradient id="paint3_linear_138_619" x1="8.17893" y1="5.78287" x2="17.5239" y2="13.093" gradientUnits="userSpaceOnUse">
<stop stop-color="#26289F"/>
<stop offset="1" stop-color="#2442BA"/>
</linearGradient>
<linearGradient id="paint4_linear_138_619" x1="26.1151" y1="16.2955" x2="35.4671" y2="23.5713" gradientUnits="userSpaceOnUse">
<stop stop-color="#26289F"/>
<stop offset="1" stop-color="#2442BA"/>
</linearGradient>
<linearGradient id="paint5_linear_138_619" x1="22.603" y1="5.78257" x2="31.9478" y2="13.0388" gradientUnits="userSpaceOnUse">
<stop stop-color="#26289F"/>
<stop offset="1" stop-color="#2442BA"/>
</linearGradient>
</defs>
</svg>
