<svg width="40" height="40" viewBox="0 0 40 40" fill="none" xmlns="http://www.w3.org/2000/svg">
<g clip-path="url(#clip0_136_1051)">
<mask id="mask0_136_1051" style="mask-type:luminance" maskUnits="userSpaceOnUse" x="0" y="1" width="40" height="39">
<path d="M39.2288 1.22485H0.771477C0.760425 1.22485 0.751465 1.23381 0.751465 1.24487V39.6731C0.751465 39.6842 0.760425 39.6931 0.771477 39.6931H39.2288C39.2399 39.6931 39.2488 39.6842 39.2488 39.6731V1.24487C39.2488 1.23381 39.2399 1.22485 39.2288 1.22485Z" fill="white"/>
</mask>
<g mask="url(#mask0_136_1051)">
<path fill-rule="evenodd" clip-rule="evenodd" d="M37.2978 12.8525C36.3176 15.917 34.8492 18.8973 32.5571 20.8252C30.6658 22.416 28.6098 22.8647 26.5967 22.7896C24.9293 22.7274 23.1855 22.2929 21.6199 21.9028C21.4201 21.853 21.2231 21.804 21.0297 21.7565C17.4556 20.8795 14.1135 20.2709 10.3255 22.489C9.75458 22.8233 9.10338 23.515 8.44613 24.7298C7.79853 25.9267 7.22585 27.4817 6.73376 29.3256C5.74963 33.0132 5.16099 37.5724 4.82305 42.0773C4.48643 46.5645 4.4043 50.9137 4.40694 54.1475C4.40825 55.7624 4.4307 57.0945 4.45274 58.0207C4.46376 58.4837 4.47467 58.8451 4.48277 59.0894C4.48682 59.2115 4.49017 59.3043 4.49247 59.366C4.49362 59.3968 4.49452 59.4198 4.49511 59.4347L4.49593 59.4553C4.49593 59.4553 4.49593 59.4552 2.36805 59.5434C0.240166 59.6316 0.24015 59.6312 0.240129 59.6307L0.239006 59.6027C0.238303 59.5849 0.237299 59.559 0.236037 59.5252C0.233512 59.4578 0.229951 59.3589 0.225695 59.2305C0.217183 58.9738 0.205888 58.5992 0.194534 58.122C0.171832 57.1679 0.148872 55.8029 0.147523 54.151C0.144829 50.8511 0.22832 46.3877 0.575566 41.7587C0.921484 37.1475 1.53492 32.2871 2.61838 28.2273C3.16008 26.1975 3.83756 24.2967 4.69991 22.7029C5.5526 21.1269 6.67113 19.6929 8.17315 18.8134C13.5118 15.6873 18.3339 16.7093 22.0447 17.6198C22.2433 17.6685 22.4367 17.7163 22.6255 17.763C24.2734 18.1705 25.5597 18.4885 26.7554 18.5331C27.9552 18.5779 28.9026 18.3333 29.8154 17.5655C31.1983 16.4023 32.3532 14.3303 33.2408 11.5549C34.1133 8.82681 34.6492 5.67166 34.9676 2.62803C35.2848 -0.404084 35.3796 -3.25898 35.3945 -5.36034C35.4019 -6.40904 35.3893 -7.26528 35.3751 -7.85623C35.3679 -8.15161 35.3604 -8.3804 35.3547 -8.53349C35.3519 -8.61002 35.3495 -8.6676 35.3479 -8.7051C35.3471 -8.72384 35.3465 -8.73756 35.3461 -8.74611L35.3456 -8.75656C35.3456 -8.75665 35.3456 -8.75652 35.3456 -8.75656C35.3456 -8.75637 35.3456 -8.75611 37.4728 -8.85952C39.6 -8.96294 39.6 -8.96249 39.6001 -8.96196L39.601 -8.94118C39.6016 -8.92866 39.6024 -8.91091 39.6034 -8.88808C39.6053 -8.84242 39.6081 -8.77643 39.6112 -8.69126C39.6175 -8.52092 39.6256 -8.27375 39.6332 -7.95897C39.6484 -7.32961 39.6615 -6.42874 39.6538 -5.33028C39.6383 -3.13731 39.5396 -0.137632 39.2039 3.07121C38.8694 6.26853 38.293 9.74071 37.2978 12.8525Z" fill="#19E58C"/>
<path d="M11.7395 38.9081C9.78261 38.9081 8.18994 37.3155 8.18994 35.3586C8.18994 33.4017 9.78261 31.8091 11.7395 31.8091C13.6963 31.8091 15.289 33.4017 15.289 35.3586C15.289 37.3155 13.6963 38.9081 11.7395 38.9081ZM11.7395 34.0507C11.0177 34.0507 14.0175 36.7809 10.4315 35.3586C9.76059 35.0925 11.0177 36.6666 11.7395 36.6666C12.4613 36.6666 13.0474 36.0804 13.0474 35.3586C13.0474 34.6368 12.4613 34.0507 11.7395 34.0507Z" fill="#3F51B5"/>
<path fill-rule="evenodd" clip-rule="evenodd" d="M11.7393 32.306C10.0569 32.306 8.68673 33.6761 8.68673 35.3586C8.68673 37.041 10.0569 38.4112 11.7393 38.4112C13.4218 38.4112 14.7919 37.041 14.7919 35.3586C14.7919 33.6761 13.4218 32.306 11.7393 32.306ZM7.69287 35.3586C7.69287 33.1272 9.50803 31.3121 11.7393 31.3121C13.9707 31.3121 15.7858 33.1272 15.7858 35.3586C15.7858 37.5899 13.9707 39.405 11.7393 39.405C9.50803 39.405 7.69287 37.5899 7.69287 35.3586ZM11.2838 33.7398C11.436 33.5786 11.6289 33.5537 11.7393 33.5537C12.7356 33.5537 13.5442 34.3624 13.5442 35.3586C13.5442 36.3548 12.7356 37.1635 11.7393 37.1635C11.4034 37.1635 11.085 36.9924 10.8548 36.8344C10.6071 36.6643 10.3737 36.4475 10.1919 36.2432C10.0265 36.0574 9.84622 35.8185 9.77733 35.6003C9.75862 35.5411 9.73405 35.4414 9.74733 35.3244C9.76258 35.1902 9.83217 35.022 10.004 34.9157C10.1524 34.824 10.3022 34.8265 10.3831 34.8356C10.4708 34.8455 10.5506 34.8713 10.6146 34.8967C11.0515 35.07 11.3716 35.1732 11.6008 35.2269C11.601 35.2269 11.6012 35.227 11.6014 35.227C11.5775 35.1829 11.5512 35.1362 11.5229 35.0869C11.5038 35.0536 11.4831 35.0181 11.4618 34.9815C11.4053 34.8844 11.3443 34.7796 11.2955 34.6875C11.239 34.5806 11.1433 34.3939 11.1278 34.2061C11.119 34.0999 11.1287 33.904 11.2838 33.7398ZM10.2382 35.8169C10.2382 35.8169 10.2387 35.817 10.2396 35.8173C10.2387 35.8171 10.2382 35.8169 10.2382 35.8169Z" fill="url(#paint0_linear_136_1051)"/>
<path d="M27.3899 10.2084C25.433 10.2084 23.8403 8.61578 23.8403 6.65891C23.8403 4.70199 25.433 3.10938 27.3899 3.10938C29.3467 3.10938 30.9394 4.70199 30.9394 6.65891C30.9394 8.61578 29.3467 10.2084 27.3899 10.2084ZM27.3899 5.35095C26.6681 5.35095 29.5161 8.06217 26.0819 6.65891C25.4138 6.3859 26.6681 7.96686 27.3899 7.96686C28.1116 7.96686 28.6978 7.38069 28.6978 6.65891C28.6978 5.93714 28.1116 5.35095 27.3899 5.35095Z" fill="#3F51B5"/>
<path fill-rule="evenodd" clip-rule="evenodd" d="M27.3897 3.60629C25.7073 3.60629 24.3371 4.97643 24.3371 6.6589C24.3371 8.34131 25.7073 9.71145 27.3897 9.71145C29.0721 9.71145 30.4423 8.34132 30.4423 6.6589C30.4423 4.97642 29.0721 3.60629 27.3897 3.60629ZM23.3433 6.6589C23.3433 4.42752 25.1584 2.61243 27.3897 2.61243C29.621 2.61243 31.4361 4.42753 31.4361 6.6589C31.4361 8.89021 29.621 10.7053 27.3897 10.7053C25.1584 10.7053 23.3433 8.89022 23.3433 6.6589ZM26.9434 5.02865C27.0934 4.87956 27.2773 4.854 27.3897 4.854C28.386 4.854 29.1946 5.66268 29.1946 6.6589C29.1946 7.65512 28.386 8.46378 27.3897 8.46378C27.0531 8.46378 26.7345 8.29162 26.5047 8.13312C26.2572 7.96236 26.0242 7.74482 25.8428 7.54023C25.6776 7.354 25.4981 7.11541 25.4292 6.89864C25.4105 6.83997 25.3856 6.74036 25.3986 6.62329C25.4136 6.48861 25.4837 6.3179 25.6591 6.21166C25.8095 6.12059 25.9604 6.12554 26.0401 6.1355C26.1272 6.14639 26.2064 6.17299 26.2697 6.19888C26.6839 6.36812 26.9872 6.4687 27.2044 6.52095C27.1806 6.47315 27.1541 6.42214 27.1253 6.36786C27.1092 6.3376 27.092 6.30555 27.0743 6.2725C27.0207 6.1729 26.9623 6.06426 26.9161 5.96824C26.8645 5.86109 26.776 5.67066 26.7704 5.47925C26.7672 5.36826 26.7898 5.18144 26.9434 5.02865ZM25.8836 7.11507C25.8836 7.11505 25.884 7.11518 25.8849 7.11549C25.884 7.11524 25.8836 7.11508 25.8836 7.11507Z" fill="url(#paint1_linear_136_1051)"/>
<path d="M5.32151 15.5684C3.36464 15.5684 1.77197 13.9758 1.77197 12.0189C1.77197 10.062 3.36464 8.46936 5.32151 8.46936C7.27838 8.46936 8.87099 10.062 8.87099 12.0189C8.87099 13.9758 7.27838 15.5684 5.32151 15.5684ZM5.32151 10.7109C4.59974 10.7109 7.42878 13.2893 4.01355 12.0189C3.33707 11.7672 4.59974 13.3268 5.32151 13.3268C6.04328 13.3268 6.62946 12.7407 6.62946 12.0189C6.62946 11.2971 6.04328 10.7109 5.32151 10.7109Z" fill="#3F51B5"/>
<path fill-rule="evenodd" clip-rule="evenodd" d="M5.32137 8.96628C3.63894 8.96628 2.26877 10.3364 2.26877 12.0189C2.26877 13.7013 3.63894 15.0714 5.32137 15.0714C7.00379 15.0714 8.37392 13.7013 8.37392 12.0189C8.37392 10.3364 7.00379 8.96628 5.32137 8.96628ZM1.2749 12.0189C1.2749 9.78751 3.09006 7.97241 5.32137 7.97241C7.55269 7.97241 9.36779 9.78752 9.36779 12.0189C9.36779 14.2502 7.55269 16.0653 5.32137 16.0653C3.09006 16.0653 1.2749 14.2502 1.2749 12.0189ZM4.88491 10.3775C5.03499 10.2364 5.21427 10.214 5.32137 10.214C6.3176 10.214 7.12625 11.0227 7.12625 12.0189C7.12625 13.0151 6.31759 13.8238 5.32137 13.8238C4.98693 13.8238 4.66885 13.655 4.43801 13.498C4.18975 13.3293 3.95562 13.1139 3.77303 12.9102C3.68107 12.8076 3.59708 12.7023 3.52839 12.6011C3.46446 12.5068 3.39511 12.389 3.35644 12.2649C3.33761 12.2044 3.31377 12.1046 3.32756 11.9879C3.34328 11.8547 3.41177 11.6913 3.57662 11.5851C3.72075 11.4922 3.86829 11.4898 3.95154 11.497C4.0404 11.5047 4.12152 11.5289 4.18667 11.5531C4.6014 11.7074 4.90401 11.7966 5.11969 11.8405C5.12379 11.8413 5.12785 11.8421 5.13185 11.8429C5.10884 11.7979 5.08309 11.7498 5.05496 11.6984C5.03876 11.6688 5.02123 11.6372 5.0031 11.6045C4.95066 11.51 4.89314 11.4063 4.84784 11.3153C4.81611 11.2515 4.78336 11.1803 4.75749 11.1081C4.73356 11.0413 4.70387 10.9424 4.70123 10.831C4.69848 10.7148 4.72592 10.5269 4.88491 10.3775ZM5.68921 10.7607C5.68924 10.7607 5.68949 10.7616 5.68986 10.7631C5.68937 10.7615 5.68918 10.7607 5.68921 10.7607ZM3.83076 12.4814C3.83076 12.4814 3.83123 12.4816 3.83219 12.4819C3.83125 12.4816 3.83077 12.4815 3.83076 12.4814Z" fill="url(#paint2_linear_136_1051)"/>
<path d="M34.3723 32.4453C32.4154 32.4453 30.8228 30.8527 30.8228 28.8958C30.8228 26.9389 32.4154 25.3463 34.3723 25.3463C36.3292 25.3463 37.9218 26.9389 37.9218 28.8958C37.9218 30.8527 36.3292 32.4453 34.3723 32.4453ZM34.3723 27.5879C33.6505 27.5879 36.4796 30.2517 33.0643 28.8958C32.3935 28.6295 33.6505 30.2038 34.3723 30.2038C35.0941 30.2038 35.6802 29.6176 35.6802 28.8958C35.6802 28.1741 35.0941 27.5879 34.3723 27.5879Z" fill="#3F51B5"/>
<path fill-rule="evenodd" clip-rule="evenodd" d="M34.3722 25.8432C32.6897 25.8432 31.3195 27.2134 31.3195 28.8958C31.3195 30.5782 32.6897 31.9484 34.3722 31.9484C36.0546 31.9484 37.4247 30.5783 37.4247 28.8958C37.4247 27.2134 36.0546 25.8432 34.3722 25.8432ZM30.3257 28.8958C30.3257 26.6645 32.1408 24.8494 34.3722 24.8494C36.6035 24.8494 38.4186 26.6645 38.4186 28.8958C38.4186 31.1271 36.6035 32.9423 34.3722 32.9423C32.1408 32.9423 30.3257 31.1272 30.3257 28.8958ZM33.9299 27.2609C34.0798 27.1154 34.2614 27.0909 34.3722 27.0909C35.3684 27.0909 36.177 27.8996 36.177 28.8958C36.177 29.8921 35.3684 30.7007 34.3722 30.7007C34.0362 30.7007 33.7177 30.5296 33.4876 30.3716C33.2399 30.2015 33.0065 29.9846 32.8247 29.7803C32.6594 29.5945 32.4791 29.3556 32.4102 29.1375C32.3915 29.0783 32.3669 28.9786 32.3802 28.8616C32.3954 28.7274 32.465 28.5591 32.637 28.4528C32.7854 28.3611 32.9353 28.3637 33.0161 28.3728C33.1038 28.3827 33.1836 28.4086 33.2476 28.434C33.6625 28.5987 33.9654 28.6953 34.1813 28.7443C34.1814 28.7443 34.1814 28.7443 34.1815 28.7443C34.158 28.6971 34.1317 28.6467 34.1031 28.5929C34.0872 28.5632 34.0702 28.5315 34.0525 28.4989C33.9996 28.4009 33.9418 28.2936 33.8961 28.199C33.8454 28.094 33.7564 27.9035 33.752 27.7111C33.7494 27.5981 33.7746 27.4116 33.9299 27.2609ZM32.8709 29.3541C32.8709 29.3541 32.8713 29.3542 32.8722 29.3545C32.8713 29.3542 32.8709 29.3541 32.8709 29.3541Z" fill="url(#paint3_linear_136_1051)"/>
<path d="M19.1174 30.7757C17.1605 30.7757 15.5679 29.183 15.5679 27.2262C15.5679 25.2692 17.1605 23.6766 19.1174 23.6766C21.0743 23.6766 22.6669 25.2692 22.6669 27.2262C22.6669 29.183 21.0743 30.7757 19.1174 30.7757ZM19.1174 25.9182C18.3956 25.9182 21.5093 28.4018 17.8094 27.2262C17.1216 27.0076 18.3956 28.5341 19.1174 28.5341C19.8392 28.5341 20.4254 27.9479 20.4254 27.2262C20.4254 26.5044 19.8392 25.9182 19.1174 25.9182Z" fill="#3F51B5"/>
<path fill-rule="evenodd" clip-rule="evenodd" d="M19.1173 24.1736C17.4348 24.1736 16.0647 25.5437 16.0647 27.2262C16.0647 28.9086 17.4348 30.2787 19.1173 30.2787C20.7997 30.2787 22.1698 28.9086 22.1698 27.2262C22.1698 25.5437 20.7997 24.1736 19.1173 24.1736ZM15.0708 27.2262C15.0708 24.9948 16.886 23.1797 19.1173 23.1797C21.3486 23.1797 23.1637 24.9948 23.1637 27.2262C23.1637 29.4575 21.3486 31.2726 19.1173 31.2726C16.886 31.2726 15.0708 29.4575 15.0708 27.2262ZM18.6714 25.596C18.8271 25.4389 19.0205 25.4213 19.1173 25.4213C20.1135 25.4213 20.9221 26.2299 20.9221 27.2262C20.9221 28.2224 20.1135 29.031 19.1173 29.031C18.7862 29.031 18.4691 28.8674 18.2366 28.7129C17.9873 28.5472 17.7516 28.3351 17.5673 28.1328C17.4746 28.031 17.3896 27.9259 17.3201 27.824C17.2553 27.7292 17.1849 27.6096 17.1463 27.4822C17.1227 27.404 17.0303 27.0399 17.3524 26.8132C17.4874 26.7182 17.6295 26.7055 17.7172 26.7081C17.8083 26.7108 17.892 26.731 17.9598 26.7526C18.4106 26.8958 18.7415 26.978 18.979 27.0172C18.9918 27.0193 19.0041 27.0212 19.0161 27.0231C18.9947 26.9889 18.9715 26.9529 18.9467 26.9152C18.9239 26.8806 18.8985 26.8427 18.8722 26.8034C18.8155 26.7186 18.7543 26.6274 18.706 26.5492C18.6687 26.4888 18.6297 26.4218 18.5973 26.354C18.5678 26.2924 18.5278 26.198 18.5131 26.0889C18.4982 25.9785 18.5009 25.7679 18.6714 25.596ZM19.0806 28.0313C19.0977 28.0355 19.11 28.0372 19.1173 28.0372C19.13 28.0372 19.1427 28.0369 19.1553 28.0363C19.1306 28.035 19.1057 28.0333 19.0806 28.0313ZM19.4878 25.9113C19.4878 25.9113 19.4881 25.9121 19.4886 25.9135C19.488 25.912 19.4877 25.9113 19.4878 25.9113ZM19.1185 26.4151C19.1181 26.4151 19.1178 26.4151 19.1176 26.4151L19.1173 26.4151C19.1177 26.4151 19.1181 26.4151 19.1185 26.4151ZM17.6506 27.6974C17.6506 27.6974 17.6511 27.6975 17.6521 27.6978C17.6511 27.6975 17.6506 27.6974 17.6506 27.6974Z" fill="url(#paint4_linear_136_1051)"/>
<path d="M14.8674 9.60122C12.9105 9.60122 11.3179 8.0086 11.3179 6.05173C11.3179 4.09481 12.9105 2.5022 14.8674 2.5022C16.8243 2.5022 18.4169 4.09481 18.4169 6.05173C18.4169 8.0086 16.8243 9.60122 14.8674 9.60122ZM14.8674 4.74377C14.5499 5.02525 16.7328 7.53928 13.5594 6.05173C12.9059 5.74538 14.1456 7.35968 14.8674 7.35968C15.5892 7.35968 16.1754 6.77351 16.1754 6.05173C16.1754 5.32996 15.4075 4.26495 14.8674 4.74377Z" fill="#3F51B5"/>
<path fill-rule="evenodd" clip-rule="evenodd" d="M14.8673 2.99911C13.1848 2.99911 11.8147 4.36925 11.8147 6.05172C11.8147 7.73413 13.1848 9.10427 14.8673 9.10427C16.5497 9.10427 17.9198 7.73414 17.9198 6.05172C17.9198 4.36924 16.5497 2.99911 14.8673 2.99911ZM10.8208 6.05172C10.8208 3.82035 12.636 2.00525 14.8673 2.00525C17.0986 2.00525 18.9137 3.82035 18.9137 6.05172C18.9137 8.28303 17.0986 10.0981 14.8673 10.0981C12.636 10.0981 10.8208 8.28304 10.8208 6.05172ZM16.0978 4.62033C16.42 4.98866 16.6721 5.54758 16.6721 6.05172C16.6721 7.04794 15.8635 7.8566 14.8673 7.8566C14.5271 7.8566 14.2077 7.67908 13.9798 7.51813C13.7336 7.34422 13.5026 7.12335 13.323 6.91737C13.1587 6.72893 12.9834 6.49197 12.9144 6.28207C12.8961 6.22643 12.8695 6.12742 12.8809 6.01028C12.8943 5.87384 12.9663 5.68929 13.1607 5.58348C13.3213 5.49612 13.4771 5.51382 13.5501 5.52753C13.634 5.54328 13.7097 5.57342 13.7702 5.60177C14.155 5.78212 14.4435 5.8946 14.6558 5.958C14.6859 5.96699 14.7137 5.97475 14.7393 5.98145C14.7013 5.88204 14.6516 5.77089 14.5959 5.64628C14.5716 5.59195 14.5462 5.53507 14.5201 5.47547C14.4655 5.35103 14.4024 5.20036 14.3679 5.06189C14.3508 4.99319 14.3322 4.89547 14.3393 4.78824C14.3466 4.67801 14.386 4.50637 14.5376 4.37192C14.8073 4.13277 15.1365 4.07814 15.4405 4.16813C15.7127 4.2487 15.9346 4.43375 16.0978 4.62033ZM15.3299 4.81043C15.3299 4.81045 15.33 4.81119 15.3302 4.81261C15.3299 4.81113 15.3298 4.81042 15.3299 4.81043ZM13.3368 6.49662C13.3368 6.49661 13.3371 6.49674 13.3379 6.49703C13.3371 6.49677 13.3368 6.49663 13.3368 6.49662Z" fill="url(#paint5_linear_136_1051)"/>
</g>
</g>
<defs>
<linearGradient id="paint0_linear_136_1051" x1="8.31321" y1="32.6685" x2="14.6148" y2="38.2141" gradientUnits="userSpaceOnUse">
<stop stop-color="#26289F"/>
<stop offset="1" stop-color="#2442BA"/>
</linearGradient>
<linearGradient id="paint1_linear_136_1051" x1="23.9636" y1="3.96875" x2="30.2652" y2="9.5144" gradientUnits="userSpaceOnUse">
<stop stop-color="#26289F"/>
<stop offset="1" stop-color="#2442BA"/>
</linearGradient>
<linearGradient id="paint2_linear_136_1051" x1="1.89524" y1="9.32873" x2="8.19684" y2="14.8744" gradientUnits="userSpaceOnUse">
<stop stop-color="#26289F"/>
<stop offset="1" stop-color="#2442BA"/>
</linearGradient>
<linearGradient id="paint3_linear_136_1051" x1="30.946" y1="26.2057" x2="37.2476" y2="31.7513" gradientUnits="userSpaceOnUse">
<stop stop-color="#26289F"/>
<stop offset="1" stop-color="#2442BA"/>
</linearGradient>
<linearGradient id="paint4_linear_136_1051" x1="15.6911" y1="24.536" x2="21.9927" y2="30.0817" gradientUnits="userSpaceOnUse">
<stop stop-color="#26289F"/>
<stop offset="1" stop-color="#2442BA"/>
</linearGradient>
<linearGradient id="paint5_linear_136_1051" x1="11.4411" y1="3.36157" x2="17.7427" y2="8.90722" gradientUnits="userSpaceOnUse">
<stop stop-color="#26289F"/>
<stop offset="1" stop-color="#2442BA"/>
</linearGradient>
<clipPath id="clip0_136_1051">
<rect width="40" height="40" fill="white"/>
</clipPath>
</defs>
</svg>
