<svg width="37" height="40" viewBox="0 0 37 40" fill="none" xmlns="http://www.w3.org/2000/svg">
<path d="M21.5433 6.61426V12.5631L31.8477 18.512V12.5631L21.5433 6.61426ZM0.936035 12.5631V18.512L6.08823 21.4864V15.5376L0.936035 12.5631ZM16.3911 15.5376L11.2389 18.512V36.3586L16.3911 39.3346V27.4368L21.5433 30.4113V24.4624L16.3911 21.488V15.5376Z" fill="url(#paint0_linear_136_1137)"/>
<path d="M21.5434 6.61426L6.08838 15.5376V21.4864L16.3928 15.5376V21.4864L21.545 18.512V6.61426H21.5434ZM36.9984 9.58869L31.8463 12.5631V18.512L36.9984 15.5376V9.58869ZM26.6956 21.488L21.5434 24.4624V30.4113L26.6956 27.4368V21.488ZM21.5434 30.4113L16.3912 27.4368V39.3346L21.5434 36.3601V30.4113Z" fill="url(#paint1_linear_136_1137)"/>
<path d="M21.5433 0.665405L0.936035 12.5631L6.08823 15.5376L21.5433 6.61427L31.8477 12.5631L36.9998 9.5887L21.5433 0.665405ZM21.5433 18.512L16.3911 21.4864L21.5433 24.4609L26.6955 21.4864L21.5433 18.512Z" fill="#19E58C"/>
<defs>
<linearGradient id="paint0_linear_136_1137" x1="3.3055" y1="12.098" x2="28.56" y2="33.0944" gradientUnits="userSpaceOnUse">
<stop stop-color="#26289F"/>
<stop offset="1" stop-color="#2442BA"/>
</linearGradient>
<linearGradient id="paint1_linear_136_1137" x1="8.45772" y1="12.098" x2="15.4354" y2="12.8077" gradientUnits="userSpaceOnUse">
<stop stop-color="#26289F"/>
<stop offset="1" stop-color="#2442BA"/>
</linearGradient>
</defs>
</svg>
